MerriweatherSans-Italic.ufo
<glyph name="exclam" format="2">
  <advance width="335.0"/>
  <unicode hex="0021"/>
  <note>
exclam
</note>
  <outline>
    <contour>
      <point x="116.425" y="239.3" type="line"/>
      <point x="201.55" y="239.3" type="line"/>
      <point x="312.175" y="868.0" type="line"/>
      <point x="191.125" y="868.0" type="line"/>
    </contour>
    <contour>
      <point x="122.325" y="-8.325" type="curve" smooth="yes"/>
      <point x="172.275" y="-8.325"/>
      <point x="210.275" y="28.65"/>
      <point x="211.925" y="77.9" type="curve" smooth="yes"/>
      <point x="213.25" y="110.525"/>
      <point x="192.275" y="132.475"/>
      <point x="149.675" y="132.475" type="curve" smooth="yes"/>
      <point x="102.4" y="132.475"/>
      <point x="61.4" y="93.875"/>
      <point x="60.4" y="47.925" type="curve" smooth="yes"/>
      <point x="59.4" y="14.3"/>
      <point x="87.05" y="-8.325"/>
    </contour>
  </outline>
</glyph>
<glyph name="numbersign" format="2">
  <advance width="686.0"/>
  <unicode hex="0023"/>
  <note>
numbersign
</note>
  <outline>
    <contour>
      <point x="127.07499999999999" y="0.0" type="line"/>
      <point x="212.25" y="0.0" type="line"/>
      <point x="242.925" y="174.42499999999998" type="line"/>
      <point x="388.75" y="174.42499999999998" type="line"/>
      <point x="363.75" y="0.0" type="line"/>
      <point x="448.25" y="0.0" type="line"/>
      <point x="475.925" y="174.42499999999998" type="line"/>
      <point x="589.675" y="174.42499999999998" type="line"/>
      <point x="594.65" y="245.225" type="line"/>
      <point x="486.9" y="245.225" type="line"/>
      <point x="517.6" y="434.425" type="line"/>
      <point x="633.675" y="434.425" type="line"/>
      <point x="638.325" y="503.9" type="line"/>
      <point x="527.9" y="503.9" type="line"/>
      <point x="554.25" y="663.0" type="line"/>
      <point x="466.75" y="663.0" type="line"/>
      <point x="440.4" y="503.9" type="line"/>
      <point x="294.575" y="503.9" type="line"/>
      <point x="319.25" y="663.0" type="line"/>
      <point x="232.075" y="663.0" type="line"/>
      <point x="206.4" y="503.9" type="line"/>
      <point x="96.65" y="503.9" type="line"/>
      <point x="91.675" y="434.425" type="line"/>
      <point x="196.42499999999998" y="434.425" type="line"/>
      <point x="165.725" y="245.225" type="line"/>
      <point x="58.975" y="245.225" type="line"/>
      <point x="54.0" y="174.42499999999998" type="line"/>
      <point x="155.42499999999998" y="174.42499999999998" type="line"/>
    </contour>
    <contour>
      <point x="253.9" y="245.225" type="line"/>
      <point x="283.925" y="434.425" type="line"/>
      <point x="429.425" y="434.425" type="line"/>
      <point x="399.725" y="245.225" type="line"/>
    </contour>
  </outline>
</glyph>
<glyph name="dollar" format="2">
  <advance width="588.0"/>
  <unicode hex="0024"/>
  <note>
dollar
</note>
  <outline>
    <contour>
      <point x="184.075" y="-115.9" type="line"/>
      <point x="276.95" y="-115.9" type="line"/>
      <point x="294.925" y="-7.024999999999999" type="line"/>
      <point x="420.575" y="9.975000000000001"/>
      <point x="500.625" y="83.275"/>
      <point x="500.625" y="203.6" type="curve" smooth="yes"/>
      <point x="500.625" y="296.95"/>
      <point x="443.625" y="351.925"/>
      <point x="352.25" y="414.925" type="curve" smooth="yes"/>
      <point x="293.525" y="455.6"/>
      <point x="238.5" y="522.35"/>
      <point x="240.525" y="575.125" type="curve" smooth="yes"/>
      <point x="242.55" y="644.275"/>
      <point x="299.325" y="670.925"/>
      <point x="370.375" y="670.925" type="curve" smooth="yes"/>
      <point x="415.375" y="670.925"/>
      <point x="473.675" y="656.625"/>
      <point x="500.7" y="628.925" type="curve"/>
      <point x="535.275" y="713.0" type="line"/>
      <point x="507.575" y="733.35"/>
      <point x="467.925" y="746.65"/>
      <point x="417.0" y="751.65" type="curve"/>
      <point x="433.3" y="849.2" type="line"/>
      <point x="339.75" y="849.2" type="line"/>
      <point x="324.125" y="751.35" type="line"/>
      <point x="211.425" y="737.4"/>
      <point x="133.45" y="667.4"/>
      <point x="133.45" y="556.425" type="curve" smooth="yes"/>
      <point x="133.45" y="459.4"/>
      <point x="191.45" y="394.4"/>
      <point x="283.875" y="333.05" type="curve" smooth="yes"/>
      <point x="360.925" y="281.375"/>
      <point x="387.59999999999997" y="239.325"/>
      <point x="387.59999999999997" y="184.275" type="curve" smooth="yes"/>
      <point x="387.59999999999997" y="107.75000000000001"/>
      <point x="307.225" y="74.4"/>
      <point x="240.725" y="74.4" type="curve" smooth="yes"/>
      <point x="190.7" y="74.4"/>
      <point x="112.625" y="98.07500000000002"/>
      <point x="90.325" y="121.72500000000002" type="curve"/>
      <point x="58.449999999999996" y="33.975" type="line"/>
      <point x="78.125" y="17.650000000000002"/>
      <point x="138.725" y="-2.6999999999999984"/>
      <point x="202.05" y="-8.35" type="curve"/>
    </contour>
  </outline>
</glyph>
<glyph name="percent" format="2">
  <advance width="866.975"/>
  <unicode hex="0025"/>
  <note>
percent
</note>
  <outline>
    <contour>
      <point x="174.85000000000002" y="0.0" type="line"/>
      <point x="261.30000000000007" y="0.0" type="line"/>
      <point x="704.45" y="747.0" type="line"/>
      <point x="619.975" y="747.0" type="line"/>
    </contour>
    <contour>
      <point x="204.85000000000002" y="358.15" type="curve" smooth="yes"/>
      <point x="324.1" y="358.15"/>
      <point x="407.1" y="459.75"/>
      <point x="407.1" y="579.325" type="curve" smooth="yes"/>
      <point x="407.1" y="662.825"/>
      <point x="359.875" y="726.9"/>
      <point x="264.95" y="726.9" type="curve" smooth="yes"/>
      <point x="142.925" y="726.9"/>
      <point x="60.675" y="625.275"/>
      <point x="60.675" y="513.375" type="curve" smooth="yes"/>
      <point x="60.675" y="422.45"/>
      <point x="116.25" y="358.15"/>
    </contour>
    <contour>
      <point x="216.9" y="424.975" type="curve" smooth="yes"/>
      <point x="172.55" y="424.975"/>
      <point x="145.525" y="460.65"/>
      <point x="145.525" y="515.675" type="curve" smooth="yes"/>
      <point x="145.525" y="580.375"/>
      <point x="177.425" y="660.725"/>
      <point x="252.9" y="660.725" type="curve" smooth="yes"/>
      <point x="293.575" y="660.725"/>
      <point x="317.925" y="627.725"/>
      <point x="317.925" y="573.7" type="curve" smooth="yes"/>
      <point x="317.925" y="508.0"/>
      <point x="283.6" y="424.975"/>
    </contour>
    <contour>
      <point x="631.7" y="30.675000000000004" type="curve" smooth="yes"/>
      <point x="750.3000000000001" y="30.675000000000004"/>
      <point x="833.625" y="132.275"/>
      <point x="833.625" y="251.525" type="curve" smooth="yes"/>
      <point x="833.625" y="335.02500000000003"/>
      <point x="786.4" y="399.425"/>
      <point x="691.8000000000001" y="399.425" type="curve" smooth="yes"/>
      <point x="569.125" y="399.425"/>
      <point x="487.52500000000003" y="297.475"/>
      <point x="487.52500000000003" y="185.9" type="curve" smooth="yes"/>
      <point x="487.52500000000003" y="94.65"/>
      <point x="542.775" y="30.675000000000004"/>
    </contour>
    <contour>
      <point x="643.75" y="97.50000000000001" type="curve" smooth="yes"/>
      <point x="599.075" y="97.50000000000001"/>
      <point x="572.0500000000001" y="133.175"/>
      <point x="572.0500000000001" y="188.20000000000002" type="curve" smooth="yes"/>
      <point x="572.0500000000001" y="252.9"/>
      <point x="604.2750000000001" y="332.925"/>
      <point x="679.75" y="332.925" type="curve" smooth="yes"/>
      <point x="720.4250000000001" y="332.925"/>
      <point x="744.775" y="300.25"/>
      <point x="744.775" y="246.22500000000002" type="curve" smooth="yes"/>
      <point x="744.775" y="180.85000000000002"/>
      <point x="710.45" y="97.50000000000001"/>
    </contour>
  </outline>
</glyph>
<glyph name="asterisk" format="2">
  <advance width="667.0"/>
  <unicode hex="002A"/>
  <note>
asterisk
</note>
  <outline>
    <contour>
      <point x="281.725" y="310.8" type="line"/>
      <point x="381.625" y="310.47499999999997" type="line"/>
      <point x="380.325" y="456.05" type="line"/>
      <point x="373.3" y="526.4" type="line"/>
      <point x="422.625" y="479.375" type="line"/>
      <point x="531.25" y="393.775" type="line"/>
      <point x="590.175" y="478.35" type="line"/>
      <point x="462.275" y="537.675" type="line"/>
      <point x="399.25" y="561.0" type="line"/>
      <point x="467.275" y="584.65" type="line"/>
      <point x="607.175" y="644.975" type="line"/>
      <point x="567.875" y="729.55" type="line"/>
      <point x="439.95" y="643.625" type="line"/>
      <point x="380.95" y="597.925" type="line"/>
      <point x="400.975" y="667.275" type="line"/>
      <point x="431.6" y="812.525" type="line"/>
      <point x="334.025" y="812.525" type="line"/>
      <point x="333.675" y="667.275" type="line"/>
      <point x="339.375" y="597.925" type="line"/>
      <point x="290.7" y="643.625" type="line"/>
      <point x="181.125" y="729.225" type="line"/>
      <point x="123.475" y="644.975" type="line"/>
      <point x="251.725" y="584.65" type="line"/>
      <point x="314.75" y="562.0" type="line"/>
      <point x="246.725" y="537.675" type="line"/>
      <point x="106.82499999999999" y="478.35" type="line"/>
      <point x="146.42499999999998" y="393.45" type="line"/>
      <point x="274.375" y="479.375" type="line"/>
      <point x="331.05" y="526.4" type="line"/>
      <point x="312.025" y="456.05" type="line"/>
    </contour>
  </outline>
</glyph>
<glyph name="plus" format="2">
  <advance width="666.025"/>
  <unicode hex="002B"/>
  <note>
plus
</note>
  <outline>
    <contour>
      <point x="266.45" y="140.42499999999998" type="line"/>
      <point x="360.925" y="140.42499999999998" type="line"/>
      <point x="375.25" y="261.025" type="line"/>
      <point x="379.25" y="339.075" type="line"/>
      <point x="432.95" y="335.075" type="line"/>
      <point x="559.25" y="335.075" type="line"/>
      <point x="568.875" y="421.2" type="line"/>
      <point x="443.25" y="421.2" type="line"/>
      <point x="388.55" y="416.2" type="line"/>
      <point x="402.225" y="493.925" type="line"/>
      <point x="415.225" y="610.15" type="line"/>
      <point x="320.75" y="610.15" type="line"/>
      <point x="307.425" y="493.925" type="line"/>
      <point x="300.75" y="415.2" type="line"/>
      <point x="235.375" y="421.2" type="line"/>
      <point x="122.75" y="421.2" type="line"/>
      <point x="113.44999999999999" y="335.075" type="line"/>
      <point x="225.075" y="335.075" type="line"/>
      <point x="292.1" y="339.075" type="line"/>
      <point x="279.775" y="261.025" type="line"/>
    </contour>
  </outline>
</glyph>
<glyph name="comma" format="2">
  <advance width="257.0"/>
  <unicode hex="002C"/>
  <note>
comma
</note>
  <outline>
    <contour>
      <point x="30.0" y="-246.3" type="line"/>
      <point x="91.3" y="-225.3"/>
      <point x="139.95" y="-179.65"/>
      <point x="165.275" y="-118.675" type="curve" smooth="yes"/>
      <point x="178.275" y="-87.675"/>
      <point x="184.275" y="-54.35"/>
      <point x="184.275" y="-19.349999999999998" type="curve" smooth="yes"/>
      <point x="184.275" y="41.325"/>
      <point x="157.975" y="106.60000000000001"/>
      <point x="90.625" y="131.6" type="curve"/>
      <point x="34.724999999999994" y="64.725" type="line"/>
      <point x="31.4" y="38.4" type="line"/>
      <point x="58.425" y="29.4"/>
      <point x="77.75" y="-9.975000000000001"/>
      <point x="77.75" y="-53.65" type="curve" smooth="yes"/>
      <point x="77.75" y="-111.375"/>
      <point x="42.724999999999994" y="-164.7"/>
      <point x="-5.625000000000003" y="-189.375" type="curve"/>
      <point x="-7.625000000000003" y="-199.375" type="line"/>
    </contour>
  </outline>
</glyph>
<glyph name="hyphen" format="2">
  <advance width="607.925"/>
  <unicode hex="002D"/>
  <note>
hyphen
</note>
  <outline>
    <contour>
      <point x="106.65" y="314.75" type="line"/>
      <point x="504.6" y="314.75" type="line"/>
      <point x="515.225" y="399.575" type="line"/>
      <point x="116.95" y="399.575" type="line"/>
    </contour>
  </outline>
</glyph>
<glyph name="period" format="2">
  <advance width="257.0"/>
  <unicode hex="002E"/>
  <note>
period
</note>
  <outline>
    <contour>
      <point x="100.05" y="-11.65" type="curve" smooth="yes"/>
      <point x="149.65" y="-11.65"/>
      <point x="180.925" y="20.625"/>
      <point x="180.925" y="71.22500000000001" type="curve" smooth="yes"/>
      <point x="180.925" y="104.85000000000001"/>
      <point x="160.95" y="129.15"/>
      <point x="119.35" y="129.15" type="curve" smooth="yes"/>
      <point x="73.4237" y="129.15"/>
      <point x="38.449999999999996" y="90.2"/>
      <point x="38.449999999999996" y="46.6" type="curve" smooth="yes"/>
      <point x="38.449999999999996" y="12.325"/>
      <point x="64.77499999999999" y="-11.65"/>
    </contour>
  </outline>
</glyph>
<glyph name="slash" format="2">
  <advance width="417.0"/>
  <unicode hex="002F"/>
  <note>
slash
</note>
  <outline>
    <contour>
      <point x="-49.22500000000001" y="-177.0" type="line"/>
      <point x="42.900000000000006" y="-177.0" type="line"/>
      <point x="464.225" y="780.0" type="line"/>
      <point x="371.1" y="780.0" type="line"/>
    </contour>
  </outline>
</glyph>
<glyph name="zero" format="2">
  <advance width="624.0"/>
  <unicode hex="0030"/>
  <outline>
    <contour>
      <point x="266.65" y="-8.0" type="curve" smooth="yes"/>
      <point x="453.275" y="-8.0"/>
      <point x="585.675" y="209.675"/>
      <point x="585.675" y="453.325" type="curve" smooth="yes"/>
      <point x="585.675" y="622.675"/>
      <point x="518.7" y="748.0"/>
      <point x="369.025" y="748.0" type="curve" smooth="yes"/>
      <point x="193.05" y="748.0"/>
      <point x="53.325" y="557.65"/>
      <point x="53.325" y="293.0" type="curve" smooth="yes"/>
      <point x="53.325" y="138.0"/>
      <point x="117.325" y="-8.0"/>
    </contour>
    <contour>
      <point x="282.0" y="77.425" type="curve" smooth="yes"/>
      <point x="203.175" y="77.425"/>
      <point x="167.725" y="177.25"/>
      <point x="167.725" y="306.225" type="curve" smooth="yes"/>
      <point x="167.725" y="441.65"/>
      <point x="218.1" y="665.925"/>
      <point x="359.05" y="663.25" type="curve" smooth="yes"/>
      <point x="437.225" y="661.9"/>
      <point x="467.925" y="581.05"/>
      <point x="467.925" y="439.075" type="curve" smooth="yes"/>
      <point x="467.925" y="266.4"/>
      <point x="402.575" y="77.425"/>
    </contour>
  </outline>
</glyph>
<glyph name="two" format="2">
  <advance width="600.2"/>
  <unicode hex="0032"/>
  <outline>
    <contour>
      <point x="44.225" y="0.0" type="line"/>
      <point x="521.075" y="0.0" type="line"/>
      <point x="520.4" y="92.5" type="line"/>
      <point x="164.85" y="75.125" type="line"/>
      <point x="327.725" y="163.425"/>
      <point x="548.825" y="360.85"/>
      <point x="548.825" y="532.7" type="curve" smooth="yes"/>
      <point x="548.825" y="624.575"/>
      <point x="504.675" y="747.0"/>
      <point x="316.2" y="747.0" type="curve" smooth="yes"/>
      <point x="210.25" y="747.0"/>
      <point x="127.55" y="692.0"/>
      <point x="88.225" y="651.3" type="curve"/>
      <point x="128.125" y="588.125" type="line"/>
      <point x="165.45" y="617.5"/>
      <point x="222.525" y="656.575"/>
      <point x="287.575" y="656.575" type="curve" smooth="yes"/>
      <point x="397.825" y="656.575"/>
      <point x="425.8" y="591.425"/>
      <point x="425.8" y="523.475" type="curve" smooth="yes"/>
      <point x="425.8" y="366.225"/>
      <point x="205.625" y="168.2"/>
      <point x="26.25" y="60.625" type="curve"/>
    </contour>
  </outline>
</glyph>
<glyph name="seven" format="2">
  <advance width="534.35"/>
  <unicode hex="0037"/>
  <outline>
    <contour>
      <point x="103.925" y="0.0" type="line"/>
      <point x="235.22500000000002" y="0.0" type="line"/>
      <point x="549.325" y="724.05" type="line"/>
      <point x="532.025" y="747.0" type="line"/>
      <point x="75.15" y="747.0" type="line"/>
      <point x="69.14999999999998" y="656.9" type="line"/>
      <point x="420.725" y="657.9" type="line"/>
    </contour>
  </outline>
</glyph>
<glyph name="eight" format="2">
  <advance width="615.75"/>
  <unicode hex="0038"/>
  <outline>
    <contour>
      <point x="273.7" y="-8.325" type="curve" smooth="yes"/>
      <point x="417.65" y="-8.325"/>
      <point x="535.925" y="67.675"/>
      <point x="535.925" y="197.675" type="curve" smooth="yes"/>
      <point x="535.925" y="280.65"/>
      <point x="470.325" y="335.275"/>
      <point x="400.3" y="384.6" type="curve"/>
      <point x="483.625" y="412.925"/>
      <point x="564.975" y="492.075"/>
      <point x="564.975" y="594.35" type="curve" smooth="yes"/>
      <point x="564.975" y="692.35"/>
      <point x="480.025" y="753.3"/>
      <point x="369.475" y="753.3" type="curve" smooth="yes"/>
      <point x="238.15" y="753.3"/>
      <point x="137.55" y="684.65"/>
      <point x="137.55" y="555.35" type="curve" smooth="yes"/>
      <point x="137.55" y="481.325"/>
      <point x="175.525" y="426.7"/>
      <point x="226.875" y="383.375" type="curve"/>
      <point x="132.875" y="346.325"/>
      <point x="53.525" y="278.6"/>
      <point x="53.85" y="171.975" type="curve" smooth="yes"/>
      <point x="54.525" y="52.95"/>
      <point x="163.875" y="-8.325"/>
    </contour>
    <contour>
      <point x="290.375" y="66.175" type="curve" smooth="yes"/>
      <point x="218.925" y="66.175"/>
      <point x="169.925" y="115.55"/>
      <point x="169.925" y="185.625" type="curve"/>
      <point x="171.275" y="262.675"/>
      <point x="219.0" y="312.075"/>
      <point x="282.45" y="344.775" type="curve"/>
      <point x="361.55" y="290.4"/>
      <point x="416.55" y="248.4"/>
      <point x="416.55" y="180.325" type="curve" smooth="yes"/>
      <point x="416.55" y="113.575"/>
      <point x="363.8" y="66.175"/>
    </contour>
    <contour>
      <point x="347.7" y="424.55" type="curve"/>
      <point x="290.65" y="466.575"/>
      <point x="248.625" y="508.95"/>
      <point x="248.625" y="570.075" type="curve" smooth="yes"/>
      <point x="248.625" y="633.775"/>
      <point x="294.7" y="682.475"/>
      <point x="360.1" y="682.475" type="curve" smooth="yes"/>
      <point x="411.825" y="682.475"/>
      <point x="456.875" y="650.125"/>
      <point x="456.875" y="585.375" type="curve" smooth="yes"/>
      <point x="456.875" y="510.65"/>
      <point x="409.475" y="454.225"/>
    </contour>
  </outline>
</glyph>
<glyph name="nine" format="2">
  <advance width="615.025"/>
  <unicode hex="0039"/>
  <outline>
    <contour>
      <point x="153.1" y="-41.925" type="line"/>
      <point x="397.675" y="24.425"/>
      <point x="564.6" y="244.65"/>
      <point x="564.6" y="493.7" type="curve" smooth="yes"/>
      <point x="564.6" y="628.975"/>
      <point x="500.3" y="747.675"/>
      <point x="347.725" y="747.675" type="curve" smooth="yes"/>
      <point x="164.55" y="747.675"/>
      <point x="73.475" y="598.75"/>
      <point x="73.475" y="456.075" type="curve" smooth="yes"/>
      <point x="73.475" y="355.8"/>
      <point x="136.1" y="247.75"/>
      <point x="267.825" y="247.75" type="curve" smooth="yes"/>
      <point x="333.975" y="247.75"/>
      <point x="388.675" y="266.8"/>
      <point x="419.65" y="296.2" type="curve"/>
      <point x="381.175" y="191.825"/>
      <point x="275.825" y="76.55"/>
      <point x="128.175" y="24.2" type="curve"/>
    </contour>
    <contour>
      <point x="298.675" y="332.225" type="curve" smooth="yes"/>
      <point x="239.6" y="332.225"/>
      <point x="184.525" y="372.95"/>
      <point x="184.525" y="470.4" type="curve" smooth="yes"/>
      <point x="184.525" y="553.825"/>
      <point x="230.625" y="670.225"/>
      <point x="334.725" y="670.225" type="curve" smooth="yes"/>
      <point x="419.25" y="670.225"/>
      <point x="454.875" y="589.4"/>
      <point x="454.875" y="499.1" type="curve" smooth="yes"/>
      <point x="454.875" y="465.4"/>
      <point x="452.9" y="436.1"/>
      <point x="443.575" y="397.05" type="curve"/>
      <point x="425.55" y="374.675"/>
      <point x="378.525" y="332.225"/>
    </contour>
  </outline>
</glyph>
<glyph name="equal" format="2">
  <advance width="520.625"/>
  <unicode hex="003D"/>
  <note>
equal
</note>
  <outline>
    <contour>
      <point x="80.675" y="410.75" type="line"/>
      <point x="480.625" y="410.75" type="line"/>
      <point x="491.25" y="494.9" type="line"/>
      <point x="90.975" y="494.9" type="line"/>
    </contour>
    <contour>
      <point x="47.65" y="164.05" type="line"/>
      <point x="447.925" y="164.05" type="line"/>
      <point x="458.225" y="247.525" type="line"/>
      <point x="58.275" y="247.525" type="line"/>
    </contour>
  </outline>
</glyph>
<glyph name="greater" format="2">
  <advance width="670.275"/>
  <unicode hex="003E"/>
  <note>
greater
</note>
  <outline>
    <contour>
      <point x="122.325" y="87.325" type="line"/>
      <point x="616.95" y="337.3" type="line"/>
      <point x="624.625" y="400.3" type="line"/>
      <point x="188.325" y="649.95" type="line"/>
      <point x="178.0" y="555.5" type="line"/>
      <point x="501.95" y="373.3" type="line"/>
      <point x="135.3" y="191.425" type="line"/>
    </contour>
  </outline>
</glyph>
<glyph name="question" format="2">
  <advance width="439.77500000000003"/>
  <unicode hex="003F"/>
  <note>
question
</note>
  <outline>
    <contour>
      <point x="125.0" y="257.0" type="curve"/>
      <point x="207.0" y="257.0" type="line"/>
      <point x="204.0" y="282.0"/>
      <point x="202.3" y="301.1"/>
      <point x="203.625" y="323.8" type="curve" smooth="yes"/>
      <point x="206.6" y="373.125"/>
      <point x="248.25" y="402.075"/>
      <point x="304.575" y="433.4" type="curve" smooth="yes"/>
      <point x="409.2" y="491.7"/>
      <point x="468.8" y="570.875"/>
      <point x="468.8" y="673.0" type="curve" smooth="yes"/>
      <point x="468.8" y="808.95"/>
      <point x="371.875" y="868.0"/>
      <point x="227.35" y="868.0" type="curve" smooth="yes"/>
      <point x="181.95" y="868.0"/>
      <point x="137.65" y="856.325"/>
      <point x="123.675" y="844.7" type="curve"/>
      <point x="105.7" y="765.85" type="line"/>
      <point x="143.725" y="778.2"/>
      <point x="170.375" y="781.875"/>
      <point x="210.725" y="781.875" type="curve" smooth="yes"/>
      <point x="287.025" y="781.875"/>
      <point x="362.0" y="742.6"/>
      <point x="362.0" y="660.0" type="curve" smooth="yes"/>
      <point x="362.0" y="598.9"/>
      <point x="332.075" y="541.15"/>
      <point x="240.74999999999997" y="491.875" type="curve" smooth="yes"/>
      <point x="152.5" y="444.45"/>
      <point x="109.025" y="391.725"/>
      <point x="109.025" y="338.975" type="curve" smooth="yes"/>
      <point x="109.025" y="297.15000000000003"/>
      <point x="118.07499999999999" y="274.25"/>
    </contour>
    <contour>
      <point x="150.65" y="-8.0" type="curve" smooth="yes"/>
      <point x="200.25" y="-8.0"/>
      <point x="231.875" y="24.275000000000002"/>
      <point x="231.875" y="74.875" type="curve" smooth="yes"/>
      <point x="231.875" y="108.5"/>
      <point x="212.225" y="132.8"/>
      <point x="170.3" y="132.8" type="curve" smooth="yes"/>
      <point x="123.35" y="132.8"/>
      <point x="89.725" y="93.85000000000001"/>
      <point x="89.725" y="50.25" type="curve" smooth="yes"/>
      <point x="89.725" y="15.975000000000001"/>
      <point x="116.05" y="-8.0"/>
    </contour>
  </outline>
</glyph>
<glyph name="at" format="2">
  <advance width="965.875"/>
  <unicode hex="0040"/>
  <note>
at
</note>
  <outline>
    <contour>
      <point x="441.575" y="-215.0" type="curve" smooth="yes"/>
      <point x="524.575" y="-215.0"/>
      <point x="604.575" y="-193.0"/>
      <point x="649.575" y="-158.0" type="curve"/>
      <point x="631.3" y="-105.15" type="line"/>
      <point x="595.975" y="-122.15"/>
      <point x="509.8" y="-140.5"/>
      <point x="449.9" y="-140.5" type="curve" smooth="yes"/>
      <point x="251.875" y="-140.5"/>
      <point x="138.85" y="-14.425"/>
      <point x="138.85" y="195.625" type="curve" smooth="yes"/>
      <point x="138.85" y="450.025"/>
      <point x="309.225" y="684.8"/>
      <point x="562.275" y="684.8" type="curve" smooth="yes"/>
      <point x="729.65" y="684.8"/>
      <point x="837.675" y="614.425"/>
      <point x="837.675" y="419.325" type="curve" smooth="yes"/>
      <point x="837.675" y="296.3"/>
      <point x="763.55" y="93.25"/>
      <point x="669.175" y="93.25" type="curve" smooth="yes"/>
      <point x="663.825" y="93.25"/>
      <point x="662.15" y="106.275"/>
      <point x="662.15" y="127.65" type="curve" smooth="yes"/>
      <point x="662.15" y="216.025"/>
      <point x="698.825" y="450.175"/>
      <point x="717.525" y="522.625" type="curve"/>
      <point x="634.575" y="508.625" type="line"/>
      <point x="610.25" y="525.3"/>
      <point x="560.25" y="534.625"/>
      <point x="527.25" y="534.625" type="curve" smooth="yes"/>
      <point x="362.6" y="534.625"/>
      <point x="260.975" y="377.625"/>
      <point x="260.975" y="204.975" type="curve" smooth="yes"/>
      <point x="260.975" y="107.975"/>
      <point x="328.525" y="3.0"/>
      <point x="399.25" y="3.0" type="curve" smooth="yes"/>
      <point x="468.25" y="3.0"/>
      <point x="532.25" y="73.0"/>
      <point x="579.25" y="181.0" type="curve"/>
      <point x="575.925" y="149.75"/>
      <point x="573.25" y="122.1"/>
      <point x="573.25" y="105.125" type="curve" smooth="yes"/>
      <point x="573.25" y="46.425"/>
      <point x="578.475" y="5.0"/>
      <point x="619.525" y="5.0" type="curve" smooth="yes"/>
      <point x="799.475" y="5.0"/>
      <point x="920.8" y="228.675"/>
      <point x="920.8" y="435.625" type="curve" smooth="yes"/>
      <point x="920.8" y="632.625"/>
      <point x="789.55" y="754.0"/>
      <point x="582.25" y="754.0" type="curve" smooth="yes"/>
      <point x="269.3" y="754.0"/>
      <point x="57.7" y="512.3"/>
      <point x="57.7" y="183.0" type="curve" smooth="yes"/>
      <point x="57.7" y="-56.3"/>
      <point x="205.625" y="-215.0"/>
    </contour>
    <contour>
      <point x="417.825" y="88.725" type="curve" smooth="yes"/>
      <point x="376.475" y="88.725"/>
      <point x="358.075" y="134.75"/>
      <point x="358.075" y="221.25" type="curve" smooth="yes"/>
      <point x="358.075" y="330.075"/>
      <point x="415.15" y="465.5"/>
      <point x="520.65" y="465.5" type="curve" smooth="yes"/>
      <point x="550.35" y="465.5"/>
      <point x="589.425" y="453.475"/>
      <point x="604.425" y="431.775" type="curve"/>
      <point x="593.425" y="336.65"/>
      <point x="486.6" y="88.725"/>
    </contour>
  </outline>
</glyph>
<glyph name="A" format="2">
  <advance width="618.0"/>
  <unicode hex="0041"/>
  <note>
A
</note>
  <anchor x="272.0" y="0.0" name="bottom"/>
  <anchor x="561.0" y="0.0" name="ogonek"/>
  <anchor x="371.0" y="747.0" name="top"/>
  <outline>
    <contour>
      <point x="-24.0" y="0.0" type="line"/>
      <point x="54.0" y="0.0" type="line"/>
      <point x="152.0" y="210.0" type="line"/>
      <point x="452.0" y="210.0" type="line"/>
      <point x="489.0" y="0.0" type="line"/>
      <point x="563.0" y="0.0" type="line"/>
      <point x="421.0" y="747.0" type="line"/>
      <point x="339.0" y="747.0" type="line"/>
    </contour>
    <contour>
      <point x="179.0" y="267.0" type="line"/>
      <point x="345.0" y="623.0" type="line"/>
      <point x="372.0" y="681.0" type="line"/>
      <point x="379.0" y="625.0" type="line"/>
      <point x="442.0" y="267.0" type="line"/>
    </contour>
  </outline>
</glyph>
<glyph name="B" format="2">
  <advance width="614.1"/>
  <unicode hex="0042"/>
  <note>
B
</note>
  <anchor x="270.55" y="0.0" name="bottom"/>
  <anchor x="369.55" y="747.975" name="top"/>
  <outline>
    <contour>
      <point x="229.175" y="-7.0" type="curve" smooth="yes"/>
      <point x="439.1" y="-7.0"/>
      <point x="566.75" y="69.35"/>
      <point x="564.725" y="238.025" type="curve" smooth="yes"/>
      <point x="563.375" y="321.35"/>
      <point x="505.675" y="378.675"/>
      <point x="421.35" y="392.0" type="curve"/>
      <point x="514.325" y="421.05"/>
      <point x="570.025" y="489.35"/>
      <point x="570.025" y="589.025" type="curve" smooth="yes"/>
      <point x="570.025" y="686.325"/>
      <point x="508.4" y="755.0"/>
      <point x="345.475" y="755.0" type="curve" smooth="yes"/>
      <point x="318.475" y="755.0"/>
      <point x="217.2" y="747.0"/>
      <point x="195.525" y="747.0" type="curve" smooth="yes"/>
      <point x="147.025" y="747.0" type="line"/>
      <point x="50.75" y="0.0" type="line"/>
      <point x="100.95" y="0.0" type="line" smooth="yes"/>
      <point x="127.175" y="0.0"/>
      <point x="205.3" y="-7.0"/>
    </contour>
    <contour>
      <point x="250.5" y="70.45" type="curve" smooth="yes"/>
      <point x="226.8" y="70.45"/>
      <point x="187.375" y="73.8"/>
      <point x="169.725" y="78.475" type="curve"/>
      <point x="204.075" y="345.775" type="line"/>
      <point x="233.775" y="347.775"/>
      <point x="264.85" y="348.775"/>
      <point x="296.275" y="348.775" type="curve" smooth="yes"/>
      <point x="397.325" y="348.775"/>
      <point x="448.725" y="310.025"/>
      <point x="448.725" y="225.3" type="curve" smooth="yes"/>
      <point x="448.725" y="118.925"/>
      <point x="381.35" y="70.45"/>
    </contour>
    <contour>
      <point x="214.725" y="425.575" type="curve"/>
      <point x="246.4" y="674.875" type="line"/>
      <point x="270.0" y="677.875"/>
      <point x="302.8" y="679.55"/>
      <point x="321.175" y="679.225" type="curve" smooth="yes"/>
      <point x="418.675" y="676.625"/>
      <point x="460.025" y="646.8"/>
      <point x="460.025" y="577.725" type="curve" smooth="yes"/>
      <point x="460.025" y="480.0"/>
      <point x="390.575" y="424.575"/>
      <point x="291.55" y="424.575" type="curve" smooth="yes"/>
      <point x="250.4" y="424.575"/>
      <point x="232.775" y="424.575"/>
    </contour>
  </outline>
</glyph>
<glyph name="C" format="2">
  <advance width="561.225"/>
  <unicode hex="0043"/>
  <note>
C
</note>
  <anchor x="302.0" y="0.0" name="bottom"/>
  <anchor x="404.85" y="747.975" name="top"/>
  <outline>
    <contour>
      <point x="299.3" y="-8.0" type="curve" smooth="yes"/>
      <point x="401.22499999999997" y="-8.0"/>
      <point x="477.25" y="19.925000000000004"/>
      <point x="508.25" y="43.275000000000006" type="curve"/>
      <point x="492.625" y="130.775" type="line"/>
      <point x="464.675" y="108.775"/>
      <point x="382.825" y="79.4"/>
      <point x="320.85" y="79.4" type="curve" smooth="yes"/>
      <point x="209.05" y="79.4"/>
      <point x="161.72500000000002" y="186.075"/>
      <point x="161.72500000000002" y="322.075" type="curve" smooth="yes"/>
      <point x="161.72500000000002" y="427.725"/>
      <point x="191.07500000000002" y="540.15"/>
      <point x="262.45" y="610.55" type="curve" smooth="yes"/>
      <point x="298.15000000000003" y="646.25"/>
      <point x="343.85" y="663.6"/>
      <point x="399.575" y="663.6" type="curve" smooth="yes"/>
      <point x="467.925" y="663.6"/>
      <point x="494.125" y="648.0"/>
      <point x="529.175" y="628.35" type="curve"/>
      <point x="565.45" y="719.975" type="line"/>
      <point x="502.35" y="744.95"/>
      <point x="455.825" y="755.0"/>
      <point x="405.175" y="755.0" type="curve" smooth="yes"/>
      <point x="272.275" y="755.0"/>
      <point x="159.0" y="676.375"/>
      <point x="97.025" y="543.4" type="curve" smooth="yes"/>
      <point x="65.375" y="476.4"/>
      <point x="50.05" y="400.4"/>
      <point x="50.05" y="316.05" type="curve" smooth="yes"/>
      <point x="50.05" y="203.05"/>
      <point x="80.05" y="100.7"/>
      <point x="154.025" y="38.675" type="curve" smooth="yes"/>
      <point x="190.675" y="7.675"/>
      <point x="239.325" y="-8.0"/>
    </contour>
  </outline>
</glyph>
<glyph name="E" format="2">
  <advance width="561.2"/>
  <unicode hex="0045"/>
  <note>
E
</note>
  <anchor x="288.0" y="0.0" name="bottom"/>
  <anchor x="469.875" y="10.0" name="ogonek"/>
  <anchor x="351.3" y="747.0" name="top"/>
  <anchor x="82.0" y="747.975" name="topleft"/>
  <outline>
    <contour>
      <point x="50.75" y="0.0" type="line"/>
      <point x="497.9" y="0.0" type="line"/>
      <point x="506.85" y="90.10000000000001" type="line"/>
      <point x="170.05" y="82.75000000000001" type="line"/>
      <point x="203.75" y="342.775" type="line"/>
      <point x="418.8" y="335.425" type="line"/>
      <point x="426.75" y="425.2" type="line"/>
      <point x="214.375" y="422.2" type="line"/>
      <point x="245.07500000000002" y="664.25" type="line"/>
      <point x="527.45" y="660.9" type="line"/>
      <point x="533.0500000000001" y="747.0" type="line"/>
      <point x="147.025" y="747.0" type="line"/>
    </contour>
  </outline>
</glyph>
<glyph name="F" format="2">
  <advance width="517.95"/>
  <unicode hex="0046"/>
  <note>
F
</note>
  <anchor x="221.975" y="0.0" name="bottom"/>
  <anchor x="328.77500000000003" y="747.975" name="top"/>
  <outline>
    <contour>
      <point x="50.75" y="0.0" type="line"/>
      <point x="159.425" y="0.0" type="line"/>
      <point x="203.425" y="338.875" type="line"/>
      <point x="432.52500000000003" y="331.525" type="line"/>
      <point x="440.475" y="423.6" type="line"/>
      <point x="214.05" y="419.6" type="line"/>
      <point x="245.07500000000002" y="664.575" type="line"/>
      <point x="529.275" y="660.9" type="line"/>
      <point x="538.225" y="747.0" type="line"/>
      <point x="147.025" y="747.0" type="line"/>
    </contour>
  </outline>
</glyph>
<glyph name="G" format="2">
  <advance width="661.15"/>
  <unicode hex="0047"/>
  <note>
G
</note>
  <anchor x="293.575" y="0.0" name="bottom"/>
  <anchor x="392.575" y="747.975" name="top"/>
  <outline>
    <contour>
      <point x="302.52500000000003" y="-8.0" type="curve" smooth="yes"/>
      <point x="367.15000000000003" y="-8.0"/>
      <point x="427.95000000000005" y="6.950000000000003"/>
      <point x="493.0" y="26.975" type="curve" smooth="yes"/>
      <point x="530.15" y="37.35"/>
      <point x="547.45" y="42.35"/>
      <point x="566.5" y="44.699999999999996" type="curve"/>
      <point x="608.45" y="365.75" type="line"/>
      <point x="388.425" y="365.75" type="line"/>
      <point x="377.45" y="278.0" type="line"/>
      <point x="491.75" y="278.0" type="line"/>
      <point x="469.75" y="109.525" type="line"/>
      <point x="423.275" y="87.80000000000001"/>
      <point x="365.225" y="76.775"/>
      <point x="320.825" y="76.775" type="curve" smooth="yes"/>
      <point x="208.4" y="76.775"/>
      <point x="161.07500000000002" y="186.375"/>
      <point x="161.07500000000002" y="321.075" type="curve" smooth="yes"/>
      <point x="161.07500000000002" y="428.775"/>
      <point x="195.125" y="542.85"/>
      <point x="271.175" y="614.225" type="curve" smooth="yes"/>
      <point x="308.875" y="649.25"/>
      <point x="355.9" y="666.925"/>
      <point x="413.6" y="666.925" type="curve" smooth="yes"/>
      <point x="485.4" y="666.925"/>
      <point x="556.15" y="643.0"/>
      <point x="584.475" y="622.0" type="curve"/>
      <point x="615.45" y="720.375" type="line"/>
      <point x="534.275" y="746.325"/>
      <point x="491.5" y="755.0"/>
      <point x="415.925" y="755.0" type="curve" smooth="yes"/>
      <point x="278.625" y="755.0"/>
      <point x="160.675" y="675.35"/>
      <point x="96.375" y="539.025" type="curve" smooth="yes"/>
      <point x="64.725" y="470.025"/>
      <point x="49.4" y="392.025"/>
      <point x="50.4" y="304.375" type="curve" smooth="yes"/>
      <point x="52.425" y="196.7"/>
      <point x="85.39999999999999" y="96.675"/>
      <point x="161.0" y="37.0" type="curve" smooth="yes"/>
      <point x="198.3" y="7.0"/>
      <point x="245.25" y="-8.0"/>
    </contour>
  </outline>
</glyph>
<glyph name="H" format="2">
  <advance width="695.15"/>
  <unicode hex="0048"/>
  <note>
H
</note>
  <anchor x="311.25" y="0.0" name="bottom"/>
  <anchor x="409.625" y="747.0" name="top"/>
  <outline>
    <contour>
      <point x="50.099999999999994" y="0.0" type="line"/>
      <point x="158.45000000000002" y="0.0" type="line"/>
      <point x="201.775" y="333.15" type="line"/>
      <point x="507.125" y="333.15" type="line"/>
      <point x="464.125" y="0.0" type="line"/>
      <point x="573.475" y="0.0" type="line"/>
      <point x="669.75" y="747.0" type="line"/>
      <point x="560.075" y="747.0" type="line"/>
      <point x="517.425" y="413.625" type="line"/>
      <point x="211.75" y="413.625" type="line"/>
      <point x="255.4" y="747.0" type="line"/>
      <point x="146.05" y="747.0" type="line"/>
    </contour>
  </outline>
</glyph>
<glyph name="I" format="2">
  <advance width="293.075"/>
  <unicode hex="0049"/>
  <note>
I
</note>
  <anchor x="109.875" y="0.0" name="bottom"/>
  <anchor x="229.10000000000002" y="10.0" name="ogonek"/>
  <anchor x="211.85" y="747.0" name="top"/>
  <anchor x="82.0" y="747.975" name="topleft"/>
  <outline>
    <contour>
      <point x="59.724999999999994" y="0.0" type="line"/>
      <point x="169.07500000000002" y="0.0" type="line"/>
      <point x="265.35" y="747.0" type="line"/>
      <point x="156.0" y="747.0" type="line"/>
    </contour>
  </outline>
</glyph>
<glyph name="J" format="2">
  <advance width="293.425"/>
  <unicode hex="004A"/>
  <note>
J
</note>
  <anchor x="109.875" y="0.0" name="bottom"/>
  <anchor x="223.875" y="747.975" name="top"/>
  <outline>
    <contour>
      <point x="-66.0" y="-157.25" type="line"/>
      <point x="52.275" y="-141.5"/>
      <point x="130.425" y="-87.15"/>
      <point x="168.075" y="37.0" type="curve" smooth="yes"/>
      <point x="175.075" y="59.35"/>
      <point x="189.45" y="137.775"/>
      <point x="206.45" y="273.95" type="curve" smooth="yes"/>
      <point x="264.025" y="747.0" type="line"/>
      <point x="155.35" y="747.0" type="line"/>
      <point x="111.475" y="409.225"/>
      <point x="104.825" y="237.4"/>
      <point x="61.725" y="42.0" type="curve" smooth="yes"/>
      <point x="50.375" y="-13.325"/>
      <point x="-28.325" y="-95.3"/>
      <point x="-83.65" y="-111.975" type="curve"/>
    </contour>
  </outline>
</glyph>
<glyph name="K" format="2">
  <advance width="615.15"/>
  <unicode hex="004B"/>
  <note>
K
</note>
  <anchor x="270.575" y="0.0" name="bottom"/>
  <anchor x="369.575" y="747.975" name="top"/>
  <outline>
    <contour>
      <point x="50.75" y="0.0" type="line"/>
      <point x="159.425" y="0.0" type="line"/>
      <point x="190.1" y="234.125" type="line"/>
      <point x="282.5" y="336.875" type="line"/>
      <point x="374.0" y="163.4" type="line" smooth="yes"/>
      <point x="396.15" y="117.775"/>
      <point x="452.4" y="10.7"/>
      <point x="459.75" y="0.0" type="curve"/>
      <point x="590.725" y="0.0" type="line"/>
      <point x="561.775" y="44.25"/>
      <point x="514.275" y="126.5"/>
      <point x="475.975" y="196.075" type="curve" smooth="yes"/>
      <point x="394.5" y="341.575"/>
      <point x="389.15" y="353.675"/>
      <point x="352.625" y="414.975" type="curve"/>
      <point x="651.975" y="747.0" type="line"/>
      <point x="525.0" y="747.0" type="line"/>
      <point x="208.375" y="378.45" type="line"/>
      <point x="256.375" y="747.0" type="line"/>
      <point x="147.025" y="747.0" type="line"/>
    </contour>
  </outline>
</glyph>
<glyph name="L" format="2">
  <advance width="485.15"/>
  <unicode hex="004C"/>
  <note>
L
</note>
  <anchor x="205.575" y="0.0" name="bottom"/>
  <anchor x="255.575" y="374.325" name="center"/>
  <anchor x="304.575" y="747.975" name="top"/>
  <anchor x="527.15" y="747.975" name="topright"/>
  <outline>
    <contour>
      <point x="50.75" y="0.0" type="line"/>
      <point x="431.575" y="0.0" type="line"/>
      <point x="444.2" y="92.425" type="line"/>
      <point x="171.725" y="89.775" type="line"/>
      <point x="256.375" y="747.0" type="line"/>
      <point x="147.025" y="747.0" type="line"/>
    </contour>
  </outline>
</glyph>
<glyph name="M" format="2">
  <advance width="875.0"/>
  <unicode hex="004D"/>
  <note>
M
</note>
  <anchor x="401.0" y="0.0" name="bottom"/>
  <anchor x="500.0" y="747.0" name="top"/>
  <outline>
    <contour>
      <point x="374.0" y="-9.0" type="line"/>
      <point x="426.0" y="-2.0" type="line"/>
      <point x="653.0" y="522.0" type="line"/>
      <point x="730.0" y="699.0" type="line"/>
      <point x="719.0" y="499.0" type="line"/>
      <point x="695.0" y="0.0" type="line"/>
      <point x="770.0" y="0.0" type="line"/>
      <point x="791.0" y="747.0" type="line"/>
      <point x="685.0" y="747.0" type="line"/>
      <point x="460.0" y="225.0" type="line"/>
      <point x="415.0" y="110.0" type="line"/>
      <point x="400.0" y="226.0" type="line"/>
      <point x="315.0" y="747.0" type="line"/>
      <point x="221.0" y="747.0" type="line"/>
      <point x="35.0" y="0.0" type="line"/>
      <point x="110.0" y="0.0" type="line"/>
      <point x="229.0" y="506.0" type="line"/>
      <point x="266.0" y="699.0" type="line"/>
      <point x="291.0" y="510.0" type="line"/>
    </contour>
  </outline>
</glyph>
<glyph name="N" format="2">
  <advance width="691.8"/>
  <unicode hex="004E"/>
  <note>
N
</note>
  <anchor x="308.9" y="0.0" name="bottom"/>
  <anchor x="407.9" y="747.975" name="top"/>
  <outline>
    <contour>
      <point x="50.75" y="0.0" type="line"/>
      <point x="153.10000000000002" y="0.0" type="line"/>
      <point x="214.125" y="479.025" type="line"/>
      <point x="224.85000000000002" y="622.4" type="line"/>
      <point x="254.425" y="505.825" type="line"/>
      <point x="467.975" y="0.0" type="line"/>
      <point x="570.4250000000001" y="0.0" type="line"/>
      <point x="666.375" y="747.0" type="line"/>
      <point x="562.35" y="747.0" type="line"/>
      <point x="504.3" y="267.20000000000005" type="line"/>
      <point x="495.95" y="144.55" type="line"/>
      <point x="463.65" y="250.12500000000003" type="line"/>
      <point x="256.15000000000003" y="747.0" type="line"/>
      <point x="147.025" y="747.0" type="line"/>
    </contour>
  </outline>
</glyph>
<glyph name="P" format="2">
  <advance width="585.425"/>
  <unicode hex="0050"/>
  <note>
P
</note>
  <anchor x="255.875" y="0.0" name="bottom"/>
  <anchor x="354.875" y="747.975" name="top"/>
  <outline>
    <contour>
      <point x="50.75" y="0.0" type="line"/>
      <point x="159.425" y="0.0" type="line"/>
      <point x="192.75" y="255.75" type="line"/>
      <point x="210.45" y="253.075"/>
      <point x="239.125" y="251.4"/>
      <point x="279.8" y="251.4" type="curve" smooth="yes"/>
      <point x="399.375" y="251.4"/>
      <point x="495.025" y="303.7"/>
      <point x="545.7" y="396.025" type="curve" smooth="yes"/>
      <point x="570.7" y="441.35"/>
      <point x="583.375" y="495.025"/>
      <point x="583.05" y="555.7" type="curve" smooth="yes"/>
      <point x="583.05" y="689.35"/>
      <point x="502.45" y="755.0"/>
      <point x="353.875" y="755.0" type="curve" smooth="yes"/>
      <point x="318.375" y="755.0"/>
      <point x="234.125" y="747.0"/>
      <point x="206.95" y="747.0" type="curve" smooth="yes"/>
      <point x="147.025" y="747.0" type="line"/>
    </contour>
    <contour>
      <point x="279.425" y="336.175" type="curve" smooth="yes"/>
      <point x="254.75" y="336.175"/>
      <point x="220.4" y="339.175"/>
      <point x="204.05" y="342.85" type="curve"/>
      <point x="245.4" y="665.175" type="line"/>
      <point x="271.125" y="671.2"/>
      <point x="310.875" y="675.2"/>
      <point x="335.275" y="675.2" type="curve" smooth="yes"/>
      <point x="430.6" y="675.2"/>
      <point x="475.325" y="634.175"/>
      <point x="473.35" y="551.125" type="curve" smooth="yes"/>
      <point x="470.025" y="409.275"/>
      <point x="409.325" y="336.5"/>
    </contour>
  </outline>
</glyph>
<glyph name="Q" format="2">
  <advance width="674.3"/>
  <unicode hex="0051"/>
  <note>
Q
</note>
  <anchor x="300.65" y="0.0" name="bottom"/>
  <anchor x="350.65" y="374.325" name="center"/>
  <anchor x="407.25" y="10.0" name="ogonek"/>
  <anchor x="402.95" y="747.975" name="top"/>
  <anchor x="82.0" y="747.975" name="topleft"/>
  <anchor x="716.3" y="747.975" name="topright"/>
  <outline>
    <contour>
      <point x="440.4" y="-180.55" type="curve" smooth="yes"/>
      <point x="498.375" y="-180.55"/>
      <point x="573.6" y="-166.6"/>
      <point x="597.25" y="-148.3" type="curve"/>
      <point x="597.25" y="-69.4" type="line"/>
      <point x="570.95" y="-78.4"/>
      <point x="525.975" y="-83.4"/>
      <point x="493.825" y="-83.4" type="curve" smooth="yes"/>
      <point x="417.775" y="-83.4"/>
      <point x="350.675" y="-72.375"/>
      <point x="350.675" y="-8.95" type="curve" smooth="yes"/>
      <point x="350.675" y="-3.375"/>
      <point x="350.675" y="10.625"/>
      <point x="350.675" y="13.275" type="curve"/>
      <point x="278.525" y="12.3" type="line"/>
      <point x="274.875" y="-2.325"/>
      <point x="272.875" y="-29.875"/>
      <point x="272.875" y="-40.15" type="curve" smooth="yes"/>
      <point x="272.875" y="-130.8"/>
      <point x="344.475" y="-180.55"/>
    </contour>
    <component base="O"/>
  </outline>
</glyph>
<glyph name="R" format="2">
  <advance width="625.85"/>
  <unicode hex="0052"/>
  <note>
R
</note>
  <anchor x="275.925" y="0.0" name="bottom"/>
  <anchor x="355.65" y="747.0" name="top"/>
  <outline>
    <contour>
      <point x="50.074999999999996" y="0.0" type="line"/>
      <point x="158.75" y="0.0" type="line"/>
      <point x="199.07500000000002" y="312.5" type="line"/>
      <point x="295.175" y="311.825" type="line" smooth="yes"/>
      <point x="338.6" y="307.8"/>
      <point x="369.925" y="224.825"/>
      <point x="393.0" y="149.0" type="curve" smooth="yes"/>
      <point x="417.4" y="77.9"/>
      <point x="437.425" y="24.674999999999997"/>
      <point x="452.425" y="0.0" type="curve"/>
      <point x="575.75" y="0.0" type="line"/>
      <point x="554.1" y="31.3"/>
      <point x="518.025" y="120.07499999999999"/>
      <point x="485.975" y="200.1" type="curve" smooth="yes"/>
      <point x="470.975" y="246.025"/>
      <point x="441.95000000000005" y="304.4"/>
      <point x="417.65000000000003" y="328.075" type="curve"/>
      <point x="527.975" y="362.425"/>
      <point x="588.7" y="455.075"/>
      <point x="588.7" y="573.05" type="curve" smooth="yes"/>
      <point x="588.7" y="691.65"/>
      <point x="507.725" y="755.0"/>
      <point x="353.52500000000003" y="755.0" type="curve" smooth="yes"/>
      <point x="322.575" y="755.0"/>
      <point x="231.10000000000002" y="747.0"/>
      <point x="204.15" y="747.0" type="curve" smooth="yes"/>
      <point x="146.35" y="747.0" type="line"/>
    </contour>
    <contour>
      <point x="316.77500000000003" y="397.925" type="curve" smooth="yes"/>
      <point x="262.40000000000003" y="397.925"/>
      <point x="227.05" y="397.925"/>
      <point x="210.05" y="398.925" type="curve"/>
      <point x="245.4" y="665.85" type="line"/>
      <point x="264.1" y="669.175"/>
      <point x="314.85" y="673.525"/>
      <point x="341.55" y="673.525" type="curve" smooth="yes"/>
      <point x="427.90000000000003" y="673.525"/>
      <point x="472.95" y="638.8"/>
      <point x="473.625" y="572.825" type="curve" smooth="yes"/>
      <point x="476.325" y="470.325"/>
      <point x="423.25" y="397.925"/>
    </contour>
  </outline>
</glyph>
<glyph name="S" format="2">
  <advance width="510.975"/>
  <unicode hex="0053"/>
  <note>
S
</note>
  <anchor x="218.65" y="0.0" name="bottom"/>
  <anchor x="320.9" y="747.0" name="top"/>
  <outline>
    <contour>
      <point x="192.0" y="-8.0" type="curve" smooth="yes"/>
      <point x="340.225" y="-8.0"/>
      <point x="454.225" y="60.95"/>
      <point x="454.225" y="204.9" type="curve" smooth="yes"/>
      <point x="454.225" y="295.95"/>
      <point x="397.9" y="351.6"/>
      <point x="306.5" y="414.925" type="curve" smooth="yes"/>
      <point x="248.75" y="454.625"/>
      <point x="194.75" y="522.025"/>
      <point x="196.075" y="576.125" type="curve" smooth="yes"/>
      <point x="198.425" y="644.95"/>
      <point x="255.2" y="670.925"/>
      <point x="325.6" y="670.925" type="curve" smooth="yes"/>
      <point x="370.6" y="670.925"/>
      <point x="427.925" y="656.625"/>
      <point x="454.95" y="629.6" type="curve"/>
      <point x="489.525" y="713.0" type="line"/>
      <point x="458.5" y="736.0"/>
      <point x="401.225" y="755.0"/>
      <point x="320.55" y="755.0" type="curve" smooth="yes"/>
      <point x="189.0" y="755.0"/>
      <point x="88.025" y="684.725"/>
      <point x="88.025" y="555.45" type="curve" smooth="yes"/>
      <point x="88.025" y="459.05"/>
      <point x="145.375" y="396.075"/>
      <point x="237.15" y="333.7" type="curve" smooth="yes"/>
      <point x="308.025" y="286.25"/>
      <point x="340.875" y="237.7"/>
      <point x="340.875" y="186.225" type="curve" smooth="yes"/>
      <point x="340.875" y="112.425"/>
      <point x="280.05" y="78.075"/>
      <point x="194.975" y="78.075" type="curve" smooth="yes"/>
      <point x="145.95" y="78.075"/>
      <point x="64.55" y="102.4"/>
      <point x="43.6" y="125.4" type="curve"/>
      <point x="11.4" y="37.325" type="line"/>
      <point x="38.05" y="14.975"/>
      <point x="130.95" y="-8.0"/>
    </contour>
  </outline>
</glyph>
<glyph name="T" format="2">
  <advance width="550.6"/>
  <unicode hex="0054"/>
  <note>
T
</note>
  <anchor x="238.3" y="0.0" name="bottom"/>
  <anchor x="288.3" y="374.325" name="center"/>
  <anchor x="337.3" y="747.975" name="top"/>
  <outline>
    <contour>
      <point x="180.8" y="0.0" type="line"/>
      <point x="290.475" y="0.0" type="line"/>
      <point x="376.125" y="666.575" type="line"/>
      <point x="575.925" y="660.9" type="line"/>
      <point x="587.225" y="747.0" type="line"/>
      <point x="76.275" y="747.0" type="line"/>
      <point x="63.65" y="660.9" type="line"/>
      <point x="266.45" y="666.575" type="line"/>
    </contour>
  </outline>
</glyph>
<glyph name="U" format="2">
  <advance width="672.175"/>
  <unicode hex="0055"/>
  <note>
U
</note>
  <anchor x="299.25" y="0.0" name="bottom"/>
  <anchor x="387.5" y="0.0" name="ogonek"/>
  <anchor x="404.55" y="747.975" name="top"/>
  <anchor x="714.175" y="747.975" name="topright"/>
  <outline>
    <contour>
      <point x="295.625" y="-8.0" type="curve" smooth="yes"/>
      <point x="413.175" y="-8.0"/>
      <point x="494.825" y="31.0"/>
      <point x="545.475" y="122.35" type="curve" smooth="yes"/>
      <point x="570.8" y="168.025"/>
      <point x="588.125" y="228.375"/>
      <point x="598.125" y="303.725" type="curve" smooth="yes"/>
      <point x="655.1" y="747.0" type="line"/>
      <point x="547.75" y="747.0" type="line"/>
      <point x="492.45" y="313.35" type="line" smooth="yes"/>
      <point x="471.075" y="156.325"/>
      <point x="419.225" y="79.775"/>
      <point x="311.575" y="79.775" type="curve" smooth="yes"/>
      <point x="225.825" y="79.775"/>
      <point x="180.725" y="124.9"/>
      <point x="180.4" y="218.7" type="curve" smooth="yes"/>
      <point x="180.4" y="242.275"/>
      <point x="182.4" y="272.25"/>
      <point x="186.4" y="307.975" type="curve" smooth="yes"/>
      <point x="243.05" y="747.0" type="line"/>
      <point x="133.7" y="747.0" type="line"/>
      <point x="75.4" y="290.325" type="line" smooth="yes"/>
      <point x="70.725" y="248.55"/>
      <point x="68.725" y="228.625"/>
      <point x="68.725" y="213.65" type="curve" smooth="yes"/>
      <point x="68.725" y="74.0"/>
      <point x="146.725" y="-8.0"/>
    </contour>
  </outline>
</glyph>
<glyph name="V" format="2">
  <advance width="575.875"/>
  <unicode hex="0056"/>
  <note>
V
</note>
  <anchor x="251.275" y="0.0" name="bottom"/>
  <anchor x="350.275" y="747.975" name="top"/>
  <outline>
    <contour>
      <point x="181.775" y="0.0" type="line"/>
      <point x="300.025" y="0.0" type="line"/>
      <point x="637.1" y="747.0" type="line"/>
      <point x="521.1" y="747.0" type="line"/>
      <point x="298.525" y="218.75" type="line"/>
      <point x="257.175" y="107.5" type="line"/>
      <point x="245.825" y="218.75" type="line"/>
      <point x="169.4" y="747.0" type="line"/>
      <point x="61.05" y="747.0" type="line"/>
    </contour>
  </outline>
</glyph>
<glyph name="W" format="2">
  <advance width="868.275"/>
  <unicode hex="0057"/>
  <note>
W
</note>
  <anchor x="397.3" y="0.0" name="bottom"/>
  <anchor x="496.3" y="747.975" name="top"/>
  <outline>
    <contour>
      <point x="168.825" y="-4.025" type="line"/>
      <point x="281.8" y="-4.025" type="line"/>
      <point x="433.075" y="390.95" type="line"/>
      <point x="460.725" y="474.975" type="line"/>
      <point x="467.05" y="390.95" type="line"/>
      <point x="510.8" y="-4.025" type="line"/>
      <point x="626.7" y="-4.025" type="line"/>
      <point x="931.1" y="747.0" type="line"/>
      <point x="820.1" y="747.0" type="line"/>
      <point x="623.275" y="221.425" type="line"/>
      <point x="588.55" y="115.775" type="line"/>
      <point x="580.575" y="222.1" type="line"/>
      <point x="528.8" y="747.0" type="line"/>
      <point x="423.775" y="747.0" type="line"/>
      <point x="436.075" y="631.25" type="line"/>
      <point x="275.575" y="221.425" type="line"/>
      <point x="244.925" y="115.775" type="line"/>
      <point x="230.9" y="222.1" type="line"/>
      <point x="168.4" y="747.0" type="line"/>
      <point x="59.725" y="747.0" type="line"/>
    </contour>
  </outline>
</glyph>
<glyph name="X" format="2">
  <advance width="571.825"/>
  <unicode hex="0058"/>
  <note>
X
</note>
  <anchor x="249.25" y="0.0" name="bottom"/>
  <anchor x="348.25" y="747.975" name="top"/>
  <outline>
    <contour>
      <point x="-32.25" y="0.0" type="line"/>
      <point x="97.42500000000001" y="0.0" type="line"/>
      <point x="284.575" y="295.84999999999997" type="line"/>
      <point x="401.675" y="0.0" type="line"/>
      <point x="525.35" y="0.0" type="line"/>
      <point x="356.35" y="366.375" type="line"/>
      <point x="619.0" y="747.0" type="line"/>
      <point x="497.0" y="747.0" type="line"/>
      <point x="312.52500000000003" y="463.45" type="line"/>
      <point x="204.75" y="747.0" type="line"/>
      <point x="85.07499999999999" y="747.0" type="line"/>
      <point x="241.075" y="388.3" type="line"/>
    </contour>
  </outline>
</glyph>
<glyph name="Y" format="2">
  <advance width="535.5"/>
  <unicode hex="0059"/>
  <note>
Y
</note>
  <anchor x="231.25" y="0.0" name="bottom"/>
  <anchor x="330.25" y="747.975" name="top"/>
  <anchor x="82.0" y="747.975" name="topleft"/>
  <outline>
    <contour>
      <point x="180.8" y="0.0" type="line"/>
      <point x="285.45" y="0.0" type="line"/>
      <point x="323.1" y="288.0" type="line"/>
      <point x="613.425" y="747.0" type="line"/>
      <point x="495.125" y="747.0" type="line"/>
      <point x="304.2" y="422.325" type="line"/>
      <point x="284.575" y="380.775" type="line"/>
      <point x="269.225" y="422.325" type="line"/>
      <point x="156.675" y="747.0" type="line"/>
      <point x="41.0" y="747.0" type="line"/>
      <point x="218.45" y="288.0" type="line"/>
    </contour>
  </outline>
</glyph>
<glyph name="Z" format="2">
  <advance width="565.0"/>
  <unicode hex="005A"/>
  <note>
Z
</note>
  <anchor x="246.0" y="0.0" name="bottom"/>
  <anchor x="296.0" y="374.325" name="center"/>
  <anchor x="356.3" y="747.975" name="top"/>
  <outline>
    <contour>
      <point x="14.175" y="0.0" type="line"/>
      <point x="490.0" y="0.0" type="line"/>
      <point x="504.625" y="92.75" type="line"/>
      <point x="148.025" y="86.75" type="line"/>
      <point x="205.775" y="152.225" type="line"/>
      <point x="583.85" y="705.0" type="line"/>
      <point x="571.175" y="747.0" type="line"/>
      <point x="126.675" y="747.0" type="line"/>
      <point x="114.05" y="655.9" type="line"/>
      <point x="442.925" y="662.575" type="line"/>
      <point x="380.85" y="591.725" type="line"/>
      <point x="0.5" y="43.0" type="line"/>
    </contour>
  </outline>
</glyph>
<glyph name="bracketleft" format="2">
  <advance width="367.475"/>
  <unicode hex="005B"/>
  <note>
bracketleft
</note>
  <outline>
    <contour>
      <point x="130.3" y="-98.525" type="curve" smooth="yes"/>
      <point x="165.7" y="-98.525"/>
      <point x="211.2" y="-91.525"/>
      <point x="268.825" y="-74.55" type="curve"/>
      <point x="274.8" y="-25.725" type="line"/>
      <point x="142.425" y="-25.725" type="line"/>
      <point x="250.45" y="780.375" type="line"/>
      <point x="383.15" y="780.375" type="line"/>
      <point x="390.125" y="829.525" type="line"/>
      <point x="370.8" y="835.85"/>
      <point x="289.55" y="852.525"/>
      <point x="257.6" y="852.525" type="curve" smooth="yes"/>
      <point x="180.55" y="852.525"/>
      <point x="155.3" y="817.9"/>
      <point x="143.65" y="726.275" type="curve" smooth="yes"/>
      <point x="46.675" y="28.4" type="line" smooth="yes"/>
      <point x="44.675" y="10.75"/>
      <point x="43.0" y="-7.25"/>
      <point x="43.0" y="-25.275" type="curve" smooth="yes"/>
      <point x="43.0" y="-79.6"/>
      <point x="69.975" y="-98.525"/>
    </contour>
  </outline>
</glyph>
<glyph name="underscore" format="2">
  <advance width="652.0"/>
  <unicode hex="005F"/>
  <note>
underscore
</note>
  <outline>
    <contour>
      <point x="-54.0" y="-168.9" type="line"/>
      <point x="619.0" y="-168.9" type="line"/>
      <point x="628.0" y="-91.0" type="line"/>
      <point x="-44.0" y="-91.0" type="line"/>
    </contour>
  </outline>
</glyph>
<glyph name="grave" format="2">
  <advance width="264.65"/>
  <unicode hex="0060"/>
  <note>
grave
</note>
  <anchor x="36.0" y="557.0" name="_top"/>
  <anchor x="67.0" y="792.0" name="top"/>
  <outline>
    <contour>
      <point x="205.075" y="611.775" type="curve"/>
      <point x="249.325" y="648.05" type="line"/>
      <point x="104.75" y="847.95" type="line"/>
      <point x="25.87499999999999" y="775.75" type="line"/>
      <point x="49.874999999999986" y="733.425"/>
      <point x="158.725" y="630.125"/>
    </contour>
  </outline>
</glyph>
<glyph name="a" format="2">
  <advance width="568.75"/>
  <unicode hex="0061"/>
  <note>
a
</note>
  <anchor x="247.875" y="0.0" name="bottom"/>
  <anchor x="469.85" y="10.0" name="ogonek"/>
  <anchor x="349.175" y="557.0" name="top"/>
  <outline>
    <contour>
      <point x="192.3" y="-8.0" type="curve" smooth="yes"/>
      <point x="263.625" y="-8.0"/>
      <point x="323.65" y="38.275000000000006"/>
      <point x="363.35" y="97.22500000000001" type="curve"/>
      <point x="355.675" y="0.0" type="line"/>
      <point x="451.375" y="0.0" type="line"/>
      <point x="528.7" y="564.0" type="line"/>
      <point x="467.175" y="547.025" type="line"/>
      <point x="433.525" y="556.675"/>
      <point x="388.52500000000003" y="564.0"/>
      <point x="355.225" y="564.0" type="curve" smooth="yes"/>
      <point x="163.625" y="564.0"/>
      <point x="39.025" y="399.3"/>
      <point x="39.025" y="202.675" type="curve" smooth="yes"/>
      <point x="39.025" y="71.975"/>
      <point x="89.7" y="-8.0"/>
    </contour>
    <contour>
      <point x="216.45000000000002" y="73.15" type="curve" smooth="yes"/>
      <point x="163.70000000000002" y="73.15"/>
      <point x="150.675" y="144.25"/>
      <point x="150.675" y="214.35" type="curve" smooth="yes"/>
      <point x="150.675" y="298.35"/>
      <point x="178.025" y="389.725"/>
      <point x="235.425" y="447.1" type="curve" smooth="yes"/>
      <point x="264.125" y="475.45"/>
      <point x="299.5" y="489.8"/>
      <point x="340.875" y="489.8" type="curve" smooth="yes"/>
      <point x="365.25" y="489.8"/>
      <point x="388.3" y="486.45"/>
      <point x="410.375" y="478.75" type="curve"/>
      <point x="371.3" y="203.925" type="line"/>
      <point x="333.575" y="135.35000000000002"/>
      <point x="279.575" y="73.15"/>
    </contour>
  </outline>
</glyph>
<glyph name="b" format="2">
  <advance width="578.075"/>
  <unicode hex="0062"/>
  <note>
b
</note>
  <anchor x="252.20000000000002" y="0.0" name="bottom"/>
  <anchor x="386.75" y="557.0" name="top"/>
  <outline>
    <contour>
      <point x="213.47500000000002" y="-8.0" type="curve" smooth="yes"/>
      <point x="353.125" y="-8.0"/>
      <point x="452.075" y="74.375"/>
      <point x="499.05" y="186.375" type="curve" smooth="yes"/>
      <point x="522.7" y="241.375"/>
      <point x="534.025" y="297.7"/>
      <point x="534.025" y="354.0" type="curve" smooth="yes"/>
      <point x="534.025" y="483.7"/>
      <point x="483.35" y="564.0"/>
      <point x="380.75" y="564.0" type="curve" smooth="yes"/>
      <point x="309.1" y="564.0"/>
      <point x="246.425" y="518.075"/>
      <point x="204.70000000000002" y="459.825" type="curve"/>
      <point x="221.07500000000002" y="546.675" type="line"/>
      <point x="250.35000000000002" y="799.675" type="line"/>
      <point x="147.0" y="799.675" type="line"/>
      <point x="40.35" y="-6.6999999999999975" type="line"/>
      <point x="100.875" y="9.975000000000001" type="line"/>
      <point x="134.525" y="0.3250000000000006"/>
      <point x="179.5" y="-8.0"/>
    </contour>
    <contour>
      <point x="228.15" y="67.525" type="curve" smooth="yes"/>
      <point x="202.775" y="67.525"/>
      <point x="179.72500000000002" y="70.875"/>
      <point x="159.0" y="77.575" type="curve"/>
      <point x="195.425" y="351.825" type="line"/>
      <point x="229.25" y="409.575"/>
      <point x="296.525" y="482.84999999999997"/>
      <point x="356.6" y="482.84999999999997" type="curve" smooth="yes"/>
      <point x="406.425" y="482.84999999999997"/>
      <point x="422.05" y="421.275"/>
      <point x="422.05" y="342.325" type="curve" smooth="yes"/>
      <point x="422.05" y="258.65"/>
      <point x="392.675" y="166.6"/>
      <point x="334.95" y="110.22500000000001" type="curve" smooth="yes"/>
      <point x="305.25" y="81.875"/>
      <point x="269.875" y="67.525"/>
    </contour>
  </outline>
</glyph>
<glyph name="d" format="2">
  <advance width="576.1"/>
  <unicode hex="0064"/>
  <note>
d
</note>
  <anchor x="251.55" y="0.0" name="bottom"/>
  <anchor x="288.55" y="279.0" name="center"/>
  <anchor x="265.0" y="557.0" name="top"/>
  <anchor x="593.1" y="557.0" name="topright"/>
  <outline>
    <contour>
      <point x="191.3" y="-8.0" type="curve" smooth="yes"/>
      <point x="263.6" y="-8.0"/>
      <point x="326.625" y="39.575"/>
      <point x="367.675" y="100.525" type="curve"/>
      <point x="359.675" y="0.0" type="line"/>
      <point x="456.375" y="0.0" type="line"/>
      <point x="563.4" y="799.675" type="line"/>
      <point x="456.7" y="799.675" type="line"/>
      <point x="423.7" y="557.975" type="line"/>
      <point x="399.325" y="562.325"/>
      <point x="377.95" y="564.0"/>
      <point x="358.575" y="564.0" type="curve" smooth="yes"/>
      <point x="218.925" y="564.0"/>
      <point x="120.975" y="482.3"/>
      <point x="74.0" y="371.3" type="curve" smooth="yes"/>
      <point x="50.35" y="315.3"/>
      <point x="38.35" y="258.975"/>
      <point x="38.35" y="202.675" type="curve" smooth="yes"/>
      <point x="38.35" y="71.975"/>
      <point x="88.7" y="-8.0"/>
    </contour>
    <contour>
      <point x="215.45" y="73.475" type="curve" smooth="yes"/>
      <point x="165.625" y="73.475"/>
      <point x="150.0" y="137.425"/>
      <point x="150.0" y="214.35" type="curve" smooth="yes"/>
      <point x="150.0" y="297.35"/>
      <point x="179.375" y="389.725"/>
      <point x="237.775" y="447.1" type="curve" smooth="yes"/>
      <point x="266.8" y="475.45"/>
      <point x="302.175" y="489.8"/>
      <point x="344.225" y="489.8" type="curve" smooth="yes"/>
      <point x="368.95" y="489.8"/>
      <point x="392.0" y="486.125"/>
      <point x="413.05" y="478.1" type="curve"/>
      <point x="375.65" y="206.575" type="line"/>
      <point x="340.825" y="146.475"/>
      <point x="274.875" y="73.475"/>
    </contour>
  </outline>
</glyph>
<glyph name="e" format="2">
  <advance width="511.175"/>
  <unicode hex="0065"/>
  <note>
e
</note>
  <anchor x="245.675" y="0.0" name="bottom"/>
  <anchor x="323.5" y="10.0" name="ogonek"/>
  <anchor x="332.925" y="557.0" name="top"/>
  <outline>
    <contour>
      <point x="236.275" y="-8.0" type="curve" smooth="yes"/>
      <point x="306.525" y="-8.0"/>
      <point x="413.1" y="50.625"/>
      <point x="443.425" y="93.6" type="curve"/>
      <point x="413.825" y="152.15" type="line"/>
      <point x="362.725" y="102.75"/>
      <point x="304.125" y="74.15"/>
      <point x="252.475" y="74.15" type="curve" smooth="yes"/>
      <point x="183.625" y="74.15"/>
      <point x="155.975" y="122.725"/>
      <point x="154.675" y="188.475" type="curve" smooth="yes"/>
      <point x="154.675" y="193.8"/>
      <point x="154.675" y="198.775"/>
      <point x="154.675" y="204.425" type="curve"/>
      <point x="311.15" y="219.9"/>
      <point x="476.45" y="298.65"/>
      <point x="476.45" y="441.025" type="curve" smooth="yes"/>
      <point x="476.45" y="504.525"/>
      <point x="427.825" y="564.0"/>
      <point x="336.6" y="564.0" type="curve" smooth="yes"/>
      <point x="223.625" y="564.0"/>
      <point x="131.675" y="498.0"/>
      <point x="81.025" y="390.675" type="curve" smooth="yes"/>
      <point x="55.375" y="336.675"/>
      <point x="41.7" y="276.675"/>
      <point x="41.025" y="211.35" type="curve" smooth="yes"/>
      <point x="40.35" y="132.35"/>
      <point x="67.0" y="63.35"/>
      <point x="125.975" y="22.675" type="curve" smooth="yes"/>
      <point x="155.3" y="2.0"/>
      <point x="191.95" y="-8.0"/>
    </contour>
    <contour>
      <point x="156.7" y="275.0" type="curve"/>
      <point x="162.725" y="335.725"/>
      <point x="190.45" y="409.075"/>
      <point x="235.875" y="454.425" type="curve" smooth="yes"/>
      <point x="258.25" y="477.1"/>
      <point x="283.625" y="488.1"/>
      <point x="312.675" y="488.1" type="curve" smooth="yes"/>
      <point x="349.4" y="488.1"/>
      <point x="369.425" y="472.075"/>
      <point x="369.425" y="431.725" type="curve" smooth="yes"/>
      <point x="369.425" y="348.0"/>
      <point x="247.825" y="278.0"/>
    </contour>
  </outline>
</glyph>
<glyph name="f" format="2">
  <advance width="344.525"/>
  <unicode hex="0066"/>
  <note>
f
</note>
  <anchor x="135.6" y="0.0" name="bottom"/>
  <anchor x="265.6" y="747.975" name="top"/>
  <outline>
    <contour>
      <point x="69.075" y="0.0" type="line"/>
      <point x="176.425" y="0.0" type="line"/>
      <point x="240.775" y="475.45" type="line"/>
      <point x="345.85" y="475.45" type="line"/>
      <point x="353.15" y="557.0" type="line"/>
      <point x="252.1" y="557.0" type="line"/>
      <point x="262.425" y="630.65" type="line" smooth="yes"/>
      <point x="271.4" y="695.325"/>
      <point x="303.8" y="740.15"/>
      <point x="352.875" y="740.15" type="curve" smooth="yes"/>
      <point x="382.575" y="740.825"/>
      <point x="400.2" y="733.85"/>
      <point x="412.55" y="722.85" type="curve"/>
      <point x="438.525" y="807.35" type="line"/>
      <point x="417.85" y="816.025"/>
      <point x="392.875" y="820.025"/>
      <point x="363.25" y="820.025" type="curve" smooth="yes"/>
      <point x="286.325" y="820.025"/>
      <point x="228.725" y="785.05"/>
      <point x="191.75" y="724.425" type="curve" smooth="yes"/>
      <point x="172.075" y="691.075"/>
      <point x="158.4" y="650.7"/>
      <point x="151.725" y="603.65" type="curve" smooth="yes"/>
      <point x="144.4" y="557.0" type="line"/>
      <point x="82.025" y="557.0" type="line"/>
      <point x="67.05" y="475.45" type="line"/>
      <point x="133.425" y="475.45" type="line"/>
    </contour>
  </outline>
</glyph>
<glyph name="g" format="2">
  <advance width="573.775"/>
  <unicode hex="0067"/>
  <note>
g
</note>
  <anchor x="214.225" y="-273.0" name="bottom"/>
  <anchor x="357.9" y="557.0" name="top"/>
  <outline>
    <contour>
      <point x="190.325" y="-247.3" type="curve" smooth="yes"/>
      <point x="267.52500000000003" y="-247.3"/>
      <point x="344.45" y="-223.65"/>
      <point x="399.075" y="-162.025" type="curve" smooth="yes"/>
      <point x="426.05" y="-131.05"/>
      <point x="443.375" y="-90.75"/>
      <point x="450.70000000000005" y="-40.12499999999999" type="curve" smooth="yes"/>
      <point x="533.0500000000001" y="564.0" type="line"/>
      <point x="471.2" y="547.025" type="line"/>
      <point x="436.2" y="556.675"/>
      <point x="392.55" y="564.0"/>
      <point x="358.575" y="564.0" type="curve" smooth="yes"/>
      <point x="218.925" y="564.0"/>
      <point x="120.975" y="482.3"/>
      <point x="74.0" y="371.3" type="curve" smooth="yes"/>
      <point x="50.35" y="315.3"/>
      <point x="38.35" y="258.975"/>
      <point x="38.35" y="202.675" type="curve" smooth="yes"/>
      <point x="38.35" y="71.975"/>
      <point x="88.7" y="-8.0"/>
      <point x="191.3" y="-8.0" type="curve" smooth="yes"/>
      <point x="262.625" y="-8.0"/>
      <point x="324.325" y="38.95"/>
      <point x="366.025" y="97.55000000000001" type="curve"/>
      <point x="341.05" y="-47.0" type="line" smooth="yes"/>
      <point x="325.375" y="-128.4"/>
      <point x="289.0" y="-170.1"/>
      <point x="211.6" y="-170.1" type="curve" smooth="yes"/>
      <point x="164.275" y="-170.1"/>
      <point x="113.025" y="-156.5"/>
      <point x="83.325" y="-141.17499999999998" type="curve"/>
      <point x="59.325" y="-229.325" type="line"/>
      <point x="79.325" y="-237.65"/>
      <point x="147.0" y="-247.3"/>
    </contour>
    <contour>
      <point x="215.45000000000002" y="73.47500000000001" type="curve" smooth="yes"/>
      <point x="165.62500000000003" y="73.47500000000001"/>
      <point x="150.0" y="137.42499999999998"/>
      <point x="150.0" y="214.35" type="curve" smooth="yes"/>
      <point x="150.0" y="297.35"/>
      <point x="179.375" y="389.725"/>
      <point x="237.775" y="447.1" type="curve" smooth="yes"/>
      <point x="266.8" y="475.45"/>
      <point x="302.175" y="489.8"/>
      <point x="344.225" y="489.8" type="curve" smooth="yes"/>
      <point x="369.275" y="489.8"/>
      <point x="392.0" y="486.45"/>
      <point x="412.725" y="479.425" type="curve"/>
      <point x="373.975" y="203.25000000000003" type="line"/>
      <point x="334.925" y="135.35000000000002"/>
      <point x="273.85" y="73.47500000000001"/>
    </contour>
  </outline>
</glyph>
<glyph name="k" format="2">
  <advance width="522.95"/>
  <unicode hex="006B"/>
  <note>
k
</note>
  <anchor x="224.47500000000002" y="0.0" name="bottom"/>
  <anchor x="354.475" y="983.0" name="top"/>
  <outline>
    <contour>
      <point x="42.35" y="0.0" type="line"/>
      <point x="149.375" y="0.0" type="line"/>
      <point x="252.35000000000002" y="799.675" type="line"/>
      <point x="145.0" y="799.675" type="line"/>
    </contour>
    <contour>
      <point x="372.6" y="1.6749999999999994" type="line"/>
      <point x="497.225" y="1.6749999999999994" type="line"/>
      <point x="323.15000000000003" y="294.95" type="line"/>
      <point x="415.20000000000005" y="342.675"/>
      <point x="516.625" y="456.225"/>
      <point x="525.65" y="557.0" type="curve"/>
      <point x="421.325" y="557.0" type="line"/>
      <point x="388.575" y="461.875"/>
      <point x="300.85" y="361.725"/>
      <point x="207.375" y="309.675" type="curve"/>
    </contour>
  </outline>
</glyph>
<glyph name="l" format="2">
  <advance width="291.5"/>
  <unicode hex="006C"/>
  <note>
l
</note>
  <anchor x="114.9" y="0.0" name="bottom"/>
  <anchor x="174.25" y="492.0" name="center"/>
  <anchor x="215.575" y="778.0" name="top"/>
  <anchor x="336.75" y="711.0" name="topright"/>
  <outline>
    <contour>
      <point x="57.75" y="1.675" type="line"/>
      <point x="165.75" y="1.675" type="line"/>
      <point x="274.425" y="799.675" type="line"/>
      <point x="166.425" y="799.675" type="line"/>
    </contour>
  </outline>
</glyph>
<glyph name="m" format="2">
  <advance width="879.6"/>
  <unicode hex="006D"/>
  <note>
m
</note>
  <anchor x="402.8" y="0.0" name="bottom"/>
  <anchor x="476.8" y="557.0" name="top"/>
  <outline>
    <contour>
      <point x="40.35" y="1.6749999999999994" type="line"/>
      <point x="148.35000000000002" y="1.6749999999999994" type="line"/>
      <point x="196.35000000000002" y="352.025" type="line"/>
      <point x="232.00000000000003" y="404.6"/>
      <point x="312.225" y="469.175"/>
      <point x="357.275" y="469.175" type="curve" smooth="yes"/>
      <point x="392.325" y="469.175"/>
      <point x="407.0" y="456.5"/>
      <point x="407.0" y="412.775" type="curve" smooth="yes"/>
      <point x="407.0" y="395.325"/>
      <point x="401.0" y="344.0"/>
      <point x="393.325" y="283.7" type="curve" smooth="yes"/>
      <point x="378.65" y="173.475"/>
      <point x="357.65" y="31.37499999999998"/>
      <point x="353.3" y="1.6749999999999994" type="curve"/>
      <point x="461.3" y="1.6749999999999994" type="line"/>
      <point x="477.625" y="109.55000000000001"/>
      <point x="487.95000000000005" y="176.15000000000003"/>
      <point x="501.225" y="273.425" type="curve" smooth="yes"/>
      <point x="507.6" y="315.70000000000005"/>
      <point x="511.975" y="349.925"/>
      <point x="514.325" y="375.425" type="curve"/>
      <point x="559.4" y="429.8"/>
      <point x="618.5" y="469.175"/>
      <point x="658.2" y="469.175" type="curve" smooth="yes"/>
      <point x="693.925" y="469.175"/>
      <point x="707.925" y="457.175"/>
      <point x="707.925" y="412.775" type="curve" smooth="yes"/>
      <point x="707.925" y="388.65"/>
      <point x="702.875" y="347.375"/>
      <point x="693.8000000000001" y="282.52500000000003" type="curve" smooth="yes"/>
      <point x="673.85" y="142.15"/>
      <point x="663.45" y="77.27500000000003"/>
      <point x="653.55" y="1.6749999999999994" type="curve"/>
      <point x="761.9" y="1.6749999999999994" type="line"/>
      <point x="778.875" y="111.82500000000002"/>
      <point x="789.2" y="180.05"/>
      <point x="798.575" y="250.675" type="curve" smooth="yes"/>
      <point x="811.575" y="341.675"/>
      <point x="818.575" y="398.35"/>
      <point x="818.575" y="422.025" type="curve" smooth="yes"/>
      <point x="818.575" y="523.0"/>
      <point x="782.625" y="564.0"/>
      <point x="706.0" y="564.0" type="curve" smooth="yes"/>
      <point x="639.7" y="564.0"/>
      <point x="569.35" y="523.0"/>
      <point x="515.65" y="460.7" type="curve"/>
      <point x="507.32500000000005" y="533.675"/>
      <point x="470.02500000000003" y="564.0"/>
      <point x="405.075" y="564.0" type="curve" smooth="yes"/>
      <point x="335.425" y="564.0"/>
      <point x="262.725" y="519.65"/>
      <point x="209.675" y="453.3" type="curve"/>
      <point x="219.025" y="557.0" type="line"/>
      <point x="115.675" y="557.0" type="line"/>
    </contour>
  </outline>
</glyph>
<glyph name="n" format="2">
  <advance width="593.075"/>
  <unicode hex="006E"/>
  <note>
n
</note>
  <anchor x="259.875" y="0.0" name="bottom"/>
  <anchor x="333.875" y="557.0" name="top"/>
  <outline>
    <contour>
      <point x="39.675" y="0.0" type="line"/>
      <point x="147.675" y="0.0" type="line"/>
      <point x="195.35000000000002" y="348.35" type="line"/>
      <point x="234.05" y="400.325"/>
      <point x="320.975" y="469.175"/>
      <point x="371.35" y="469.175" type="curve" smooth="yes"/>
      <point x="407.075" y="469.175"/>
      <point x="420.725" y="457.175"/>
      <point x="420.725" y="412.775" type="curve" smooth="yes"/>
      <point x="420.725" y="385.075"/>
      <point x="414.725" y="333.4"/>
      <point x="402.375" y="250.675" type="curve" smooth="yes"/>
      <point x="382.2" y="115.22500000000007"/>
      <point x="370.0" y="29.82500000000001"/>
      <point x="366.025" y="0.0" type="curve"/>
      <point x="474.7" y="0.0" type="line"/>
      <point x="498.05" y="146.0"/>
      <point x="507.05" y="208.975"/>
      <point x="512.0500000000001" y="250.675" type="curve" smooth="yes"/>
      <point x="525.0500000000001" y="341.675"/>
      <point x="532.0500000000001" y="398.35"/>
      <point x="532.0500000000001" y="422.025" type="curve" smooth="yes"/>
      <point x="532.0500000000001" y="523.0"/>
      <point x="494.425" y="564.0"/>
      <point x="418.825" y="564.0" type="curve" smooth="yes"/>
      <point x="343.15000000000003" y="564.0"/>
      <point x="266.075" y="517.3"/>
      <point x="208.675" y="448.95" type="curve"/>
      <point x="218.70000000000002" y="557.0" type="line"/>
      <point x="115.675" y="557.0" type="line"/>
    </contour>
  </outline>
</glyph>
<glyph name="o" format="2">
  <advance width="557.575"/>
  <unicode hex="006F"/>
  <note>
o
</note>
  <anchor x="241.95" y="0.0" name="bottom"/>
  <anchor x="278.95" y="279.0" name="center"/>
  <anchor x="332.77500000000003" y="10.0" name="ogonek"/>
  <anchor x="325.95" y="557.0" name="top"/>
  <anchor x="574.575" y="557.0" name="topright"/>
  <outline>
    <contour>
      <point x="234.0" y="-8.0" type="curve" smooth="yes"/>
      <point x="343.55" y="-8.0"/>
      <point x="431.85" y="61.35"/>
      <point x="479.175" y="166.025" type="curve" smooth="yes"/>
      <point x="502.175" y="217.7"/>
      <point x="514.175" y="273.025"/>
      <point x="514.175" y="332.35" type="curve" smooth="yes"/>
      <point x="514.175" y="478.725"/>
      <point x="451.875" y="564.0"/>
      <point x="326.25" y="564.0" type="curve" smooth="yes"/>
      <point x="216.7" y="564.0"/>
      <point x="125.725" y="494.975"/>
      <point x="78.05" y="391.3" type="curve" smooth="yes"/>
      <point x="53.375" y="338.625"/>
      <point x="41.375" y="283.3"/>
      <point x="41.375" y="224.975" type="curve" smooth="yes"/>
      <point x="41.375" y="80.875"/>
      <point x="106.1" y="-8.0"/>
    </contour>
    <contour>
      <point x="250.3" y="69.525" type="curve" smooth="yes"/>
      <point x="184.47500000000002" y="69.525"/>
      <point x="153.07500000000002" y="123.625"/>
      <point x="153.07500000000002" y="223.725" type="curve" smooth="yes"/>
      <point x="153.07500000000002" y="339.8"/>
      <point x="203.175" y="487.8"/>
      <point x="309.3" y="487.8" type="curve" smooth="yes"/>
      <point x="374.45" y="487.8"/>
      <point x="401.825" y="435.725"/>
      <point x="401.825" y="332.3" type="curve" smooth="yes"/>
      <point x="401.825" y="213.20000000000002"/>
      <point x="354.375" y="69.525"/>
    </contour>
  </outline>
</glyph>
<glyph name="p" format="2">
  <advance width="580.1"/>
  <unicode hex="0070"/>
  <note>
p
</note>
  <anchor x="253.55" y="0.0" name="bottom"/>
  <anchor x="327.55" y="557.0" name="top"/>
  <outline>
    <contour>
      <point x="6.675" y="-248.7" type="line"/>
      <point x="114.7" y="-248.7" type="line"/>
      <point x="147.7" y="-0.9749999999999996" type="line"/>
      <point x="172.075" y="-5.325"/>
      <point x="193.775" y="-8.0"/>
      <point x="212.475" y="-8.0" type="curve" smooth="yes"/>
      <point x="352.125" y="-8.0"/>
      <point x="450.75" y="74.7"/>
      <point x="498.05" y="186.7" type="curve" smooth="yes"/>
      <point x="521.7" y="242.025"/>
      <point x="533.025" y="298.35"/>
      <point x="533.025" y="354.325" type="curve" smooth="yes"/>
      <point x="533.025" y="484.35"/>
      <point x="482.35" y="564.0"/>
      <point x="379.75" y="564.0" type="curve" smooth="yes"/>
      <point x="307.75" y="564.0"/>
      <point x="246.05" y="519.05"/>
      <point x="205.0" y="461.425" type="curve"/>
      <point x="211.7" y="557.0" type="line"/>
      <point x="114.675" y="557.0" type="line"/>
    </contour>
    <contour>
      <point x="226.825" y="67.525" type="curve" smooth="yes"/>
      <point x="201.775" y="67.525"/>
      <point x="179.4" y="70.875"/>
      <point x="158.675" y="77.575" type="curve"/>
      <point x="195.4" y="354.1" type="line"/>
      <point x="229.225" y="411.525"/>
      <point x="296.5" y="482.85"/>
      <point x="355.6" y="482.85" type="curve" smooth="yes"/>
      <point x="405.425" y="482.85"/>
      <point x="421.05" y="421.6"/>
      <point x="421.05" y="342.65" type="curve" smooth="yes"/>
      <point x="421.05" y="258.975"/>
      <point x="391.35" y="166.6"/>
      <point x="333.95" y="110.225" type="curve" smooth="yes"/>
      <point x="304.25" y="81.875"/>
      <point x="268.875" y="67.525"/>
    </contour>
  </outline>
</glyph>
<glyph name="q" format="2">
  <advance width="575.4250000000001"/>
  <unicode hex="0071"/>
  <note>
q
</note>
  <anchor x="250.875" y="0.0" name="bottom"/>
  <anchor x="324.875" y="557.0" name="top"/>
  <outline>
    <contour>
      <point x="316.025" y="-246.025" type="line"/>
      <point x="423.375" y="-246.025" type="line"/>
      <point x="531.375" y="566.675" type="line"/>
      <point x="466.15000000000003" y="548.7" type="line"/>
      <point x="433.15000000000003" y="557.675"/>
      <point x="391.2" y="564.0"/>
      <point x="358.575" y="564.0" type="curve" smooth="yes"/>
      <point x="165.975" y="564.0"/>
      <point x="38.35" y="399.3"/>
      <point x="38.35" y="202.675" type="curve" smooth="yes"/>
      <point x="38.35" y="71.975"/>
      <point x="88.7" y="-8.0"/>
      <point x="191.3" y="-8.0" type="curve" smooth="yes"/>
      <point x="263.6" y="-8.0"/>
      <point x="324.975" y="39.6"/>
      <point x="366.675" y="98.525" type="curve"/>
      <point x="349.025" y="1.6750000000000043" type="line"/>
    </contour>
    <contour>
      <point x="215.45000000000002" y="73.47500000000001" type="curve" smooth="yes"/>
      <point x="165.62500000000003" y="73.47500000000001"/>
      <point x="150.0" y="137.42499999999998"/>
      <point x="150.0" y="214.35" type="curve" smooth="yes"/>
      <point x="150.0" y="343.075"/>
      <point x="218.8" y="489.8"/>
      <point x="344.225" y="489.8" type="curve" smooth="yes"/>
      <point x="367.6" y="489.8"/>
      <point x="390.325" y="486.45"/>
      <point x="411.05" y="479.75" type="curve"/>
      <point x="373.65" y="202.27500000000003" type="line"/>
      <point x="332.925" y="134.37500000000003"/>
      <point x="273.52500000000003" y="73.47500000000001"/>
    </contour>
  </outline>
</glyph>
<glyph name="r" format="2">
  <advance width="393.425"/>
  <unicode hex="0072"/>
  <note>
r
</note>
  <anchor x="94.47500000000001" y="0.0" name="bottom"/>
  <anchor x="273.875" y="557.0" name="top"/>
  <outline>
    <contour>
      <point x="39.675" y="0.0" type="line"/>
      <point x="147.675" y="0.0" type="line"/>
      <point x="193.00000000000003" y="331.275" type="line"/>
      <point x="223.60000000000002" y="391.625"/>
      <point x="275.625" y="451.95"/>
      <point x="335.825" y="451.95" type="curve" smooth="yes"/>
      <point x="358.175" y="451.95"/>
      <point x="374.8" y="449.625"/>
      <point x="383.15000000000003" y="444.65" type="curve"/>
      <point x="406.77500000000003" y="558.0" type="line"/>
      <point x="402.45" y="562.0"/>
      <point x="392.125" y="564.0"/>
      <point x="376.125" y="564.0" type="curve" smooth="yes"/>
      <point x="297.02500000000003" y="564.0"/>
      <point x="236.675" y="502.6"/>
      <point x="209.675" y="455.725" type="curve"/>
      <point x="219.35000000000002" y="557.0" type="line"/>
      <point x="115.675" y="557.0" type="line"/>
    </contour>
  </outline>
</glyph>
<glyph name="s" format="2">
  <advance width="426.0"/>
  <unicode hex="0073"/>
  <note>
s
</note>
  <anchor x="172.0" y="0.0" name="bottom"/>
  <anchor x="270.0" y="557.0" name="top"/>
  <outline>
    <contour>
      <point x="166.0" y="-8.0" type="curve" smooth="yes"/>
      <point x="269.0" y="-8.0"/>
      <point x="356.0" y="39.0"/>
      <point x="356.0" y="141.0" type="curve" smooth="yes"/>
      <point x="356.0" y="202.0"/>
      <point x="327.0" y="240.0"/>
      <point x="239.0" y="307.0" type="curve" smooth="yes"/>
      <point x="174.0" y="359.0"/>
      <point x="154.0" y="380.0"/>
      <point x="154.0" y="426.0" type="curve" smooth="yes"/>
      <point x="154.0" y="477.0"/>
      <point x="198.0" y="510.0"/>
      <point x="269.0" y="510.0" type="curve" smooth="yes"/>
      <point x="311.0" y="510.0"/>
      <point x="368.0" y="492.0"/>
      <point x="378.0" y="475.0" type="curve"/>
      <point x="393.0" y="543.0" type="line"/>
      <point x="373.0" y="554.0"/>
      <point x="322.0" y="564.0"/>
      <point x="269.0" y="564.0" type="curve" smooth="yes"/>
      <point x="172.0" y="564.0"/>
      <point x="84.0" y="515.0"/>
      <point x="84.0" y="417.0" type="curve" smooth="yes"/>
      <point x="84.0" y="341.0"/>
      <point x="131.0" y="300.0"/>
      <point x="190.0" y="254.0" type="curve" smooth="yes"/>
      <point x="244.0" y="215.0"/>
      <point x="284.0" y="181.0"/>
      <point x="284.0" y="133.0" type="curve" smooth="yes"/>
      <point x="284.0" y="76.0"/>
      <point x="237.0" y="47.0"/>
      <point x="169.0" y="47.0" type="curve" smooth="yes"/>
      <point x="113.0" y="47.0"/>
      <point x="63.0" y="67.0"/>
      <point x="36.0" y="87.0" type="curve"/>
      <point x="22.0" y="23.0" type="line"/>
      <point x="41.0" y="7.0"/>
      <point x="105.0" y="-8.0"/>
    </contour>
  </outline>
</glyph>
<glyph name="t" format="2">
  <advance width="361.0"/>
  <unicode hex="0074"/>
  <note>
t
</note>
  <anchor x="144.0" y="0.0" name="bottom"/>
  <anchor x="181.0" y="279.0" name="center"/>
  <anchor x="205.0" y="658.0" name="top"/>
  <anchor x="378.0" y="557.0" name="topright"/>
  <outline>
    <contour>
      <point x="167.0" y="-8.0" type="curve" smooth="yes"/>
      <point x="214.0" y="-8.0"/>
      <point x="289.0" y="32.0"/>
      <point x="312.0" y="59.0" type="curve"/>
      <point x="302.0" y="100.0" type="line"/>
      <point x="277.0" y="79.0"/>
      <point x="223.0" y="50.0"/>
      <point x="195.0" y="50.0" type="curve" smooth="yes"/>
      <point x="166.0" y="50.0"/>
      <point x="156.0" y="74.0"/>
      <point x="156.0" y="107.0" type="curve" smooth="yes"/>
      <point x="156.0" y="119.0"/>
      <point x="161.0" y="153.0"/>
      <point x="207.0" y="499.0" type="curve"/>
      <point x="348.0" y="499.0" type="line"/>
      <point x="357.0" y="557.0" type="line"/>
      <point x="215.0" y="557.0" type="line"/>
      <point x="232.0" y="693.0" type="line"/>
      <point x="171.0" y="693.0" type="line"/>
      <point x="144.0" y="557.0" type="line"/>
      <point x="82.0" y="556.0" type="line"/>
      <point x="66.0" y="499.0" type="line"/>
      <point x="132.0" y="499.0" type="line"/>
      <point x="87.0" y="142.0" type="line" smooth="yes"/>
      <point x="83.0" y="110.0"/>
      <point x="81.0" y="88.0"/>
      <point x="81.0" y="76.0" type="curve" smooth="yes"/>
      <point x="81.0" y="21.0"/>
      <point x="111.0" y="-8.0"/>
    </contour>
  </outline>
</glyph>
<glyph name="u" format="2">
  <advance width="582.425"/>
  <unicode hex="0075"/>
  <note>
u
</note>
  <anchor x="254.55" y="0.0" name="bottom"/>
  <anchor x="485.5" y="10.0" name="ogonek"/>
  <anchor x="321.475" y="557.0" name="top"/>
  <anchor x="599.425" y="557.0" name="topright"/>
  <outline>
    <contour>
      <point x="180.925" y="-10.0" type="curve" smooth="yes"/>
      <point x="255.275" y="-10.0"/>
      <point x="324.65" y="36.675"/>
      <point x="375.7" y="104.05" type="curve"/>
      <point x="366.0" y="0.0" type="line"/>
      <point x="465.725" y="0.0" type="line"/>
      <point x="540.05" y="557.0" type="line"/>
      <point x="432.05" y="557.0" type="line"/>
      <point x="384.725" y="202.65" type="line"/>
      <point x="339.65" y="134.225"/>
      <point x="272.5" y="80.5"/>
      <point x="222.75" y="80.5" type="curve" smooth="yes"/>
      <point x="180.3" y="80.5"/>
      <point x="161.95" y="95.825"/>
      <point x="161.95" y="141.9" type="curve" smooth="yes"/>
      <point x="161.95" y="164.225"/>
      <point x="165.275" y="200.2"/>
      <point x="171.6" y="250.15" type="curve" smooth="yes"/>
      <point x="179.675" y="313.025"/>
      <point x="209.0" y="525.525"/>
      <point x="213.975" y="557.0" type="curve"/>
      <point x="105.625" y="557.0" type="line"/>
      <point x="91.875" y="462.425"/>
      <point x="74.275" y="337.95"/>
      <point x="62.6" y="250.8" type="curve" smooth="yes"/>
      <point x="55.6" y="193.575"/>
      <point x="51.625" y="151.05"/>
      <point x="51.625" y="130.375" type="curve" smooth="yes"/>
      <point x="51.625" y="31.675"/>
      <point x="94.225" y="-10.0"/>
    </contour>
  </outline>
</glyph>
<glyph name="v" format="2">
  <advance width="502.4"/>
  <unicode hex="0076"/>
  <note>
v
</note>
  <anchor x="214.2" y="0.0" name="bottom"/>
  <anchor x="288.2" y="557.0" name="top"/>
  <outline>
    <contour>
      <point x="130.375" y="-8.325" type="line"/>
      <point x="223.825" y="-2.325" type="line"/>
      <point x="387.25" y="167.475"/>
      <point x="481.35" y="312.075"/>
      <point x="494.1" y="489.05" type="curve" smooth="yes"/>
      <point x="494.775" y="509.175"/>
      <point x="494.45" y="545.6"/>
      <point x="493.125" y="557.0" type="curve"/>
      <point x="391.75" y="557.0" type="line"/>
      <point x="391.75" y="524.0"/>
      <point x="382.4" y="450.4"/>
      <point x="373.725" y="414.075" type="curve" smooth="yes"/>
      <point x="351.35" y="315.375"/>
      <point x="311.225" y="228.45"/>
      <point x="248.05" y="140.675" type="curve" smooth="yes"/>
      <point x="204.425" y="83.4" type="line"/>
      <point x="198.425" y="184.425" type="line"/>
      <point x="166.075" y="557.0" type="line"/>
      <point x="49.35" y="557.0" type="line"/>
      <point x="102.7" y="174.675" type="line"/>
    </contour>
  </outline>
</glyph>
<glyph name="w" format="2">
  <advance width="819.8"/>
  <unicode hex="0077"/>
  <note>
w
</note>
  <anchor x="372.9" y="0.0" name="bottom"/>
  <anchor x="446.9" y="557.0" name="top"/>
  <outline>
    <contour>
      <point x="134.4" y="-5.675" type="line"/>
      <point x="227.525" y="-2.3250000000000006" type="line"/>
      <point x="323.1" y="106.50000000000001"/>
      <point x="368.3" y="182.975"/>
      <point x="406.0" y="268.84999999999997" type="curve"/>
      <point x="418.75" y="174.675" type="line"/>
      <point x="447.425" y="-5.675" type="line"/>
      <point x="539.25" y="-2.3250000000000006" type="line"/>
      <point x="714.2" y="197.59999999999997"/>
      <point x="792.425" y="335.1"/>
      <point x="800.775" y="496.75" type="curve" smooth="yes"/>
      <point x="801.45" y="512.65"/>
      <point x="802.125" y="537.825"/>
      <point x="801.475" y="557.0" type="curve"/>
      <point x="697.05" y="557.0" type="line"/>
      <point x="697.375" y="525.675"/>
      <point x="696.075" y="469.2"/>
      <point x="687.4" y="422.175" type="curve" smooth="yes"/>
      <point x="668.7" y="320.1"/>
      <point x="638.075" y="258.5"/>
      <point x="579.625" y="164.65" type="curve" smooth="yes"/>
      <point x="521.475" y="84.10000000000001" type="line"/>
      <point x="513.45" y="184.425" type="line"/>
      <point x="482.1" y="557.0" type="line"/>
      <point x="367.025" y="557.0" type="line"/>
      <point x="383.35" y="439.875" type="line"/>
      <point x="363.65" y="342.7"/>
      <point x="325.275" y="259.4"/>
      <point x="267.575" y="167.0" type="curve" smooth="yes"/>
      <point x="208.425" y="84.10000000000001" type="line"/>
      <point x="203.10000000000002" y="184.425" type="line"/>
      <point x="169.07500000000002" y="557.0" type="line"/>
      <point x="51.699999999999996" y="557.0" type="line"/>
      <point x="106.05" y="174.675" type="line"/>
    </contour>
  </outline>
</glyph>
<glyph name="x" format="2">
  <advance width="473.125"/>
  <unicode hex="0078"/>
  <note>
x
</note>
  <anchor x="199.9" y="0.0" name="bottom"/>
  <anchor x="273.9" y="557.0" name="top"/>
  <outline>
    <contour>
      <point x="-30.225000000000005" y="1.6749999999999994" type="line"/>
      <point x="84.45000000000002" y="1.6749999999999994" type="line"/>
      <point x="216.25" y="203.875" type="line"/>
      <point x="296.625" y="1.6749999999999994" type="line"/>
      <point x="422.925" y="1.6749999999999994" type="line"/>
      <point x="285.02500000000003" y="276.025" type="line"/>
      <point x="491.02500000000003" y="557.0" type="line"/>
      <point x="375.65" y="557.0" type="line"/>
      <point x="248.82500000000002" y="363.475" type="line"/>
      <point x="180.125" y="557.0" type="line"/>
      <point x="52.14999999999999" y="557.0" type="line"/>
      <point x="180.05" y="289.975" type="line"/>
    </contour>
  </outline>
</glyph>
<glyph name="y" format="2">
  <advance width="520.15"/>
  <unicode hex="0079"/>
  <note>
y
</note>
  <anchor x="380.65000000000003" y="0.0" name="bottom"/>
  <anchor x="277.575" y="557.0" name="top"/>
  <outline>
    <contour>
      <point x="-8.449999999999976" y="-246.3" type="curve" smooth="yes"/>
      <point x="74.25000000000003" y="-246.3"/>
      <point x="137.3" y="-210.25"/>
      <point x="180.0" y="-167.57500000000002" type="curve" smooth="yes"/>
      <point x="254.025" y="-92.575"/>
      <point x="333.27500000000003" y="23.250000000000004"/>
      <point x="382.25" y="120.12500000000001" type="curve" smooth="yes"/>
      <point x="451.35" y="253.55"/>
      <point x="489.425" y="377.3"/>
      <point x="496.125" y="490.375" type="curve" smooth="yes"/>
      <point x="496.8" y="511.925"/>
      <point x="497.475" y="541.575"/>
      <point x="496.475" y="557.0" type="curve"/>
      <point x="392.4" y="557.0" type="line"/>
      <point x="391.725" y="540.475"/>
      <point x="390.4" y="507.1"/>
      <point x="389.4" y="488.725" type="curve"/>
      <point x="375.7" y="347.95"/>
      <point x="341.875" y="235.62500000000003"/>
      <point x="281.1" y="132.925" type="curve" smooth="yes"/>
      <point x="267.02500000000003" y="103.90000000000002"/>
      <point x="250.37500000000003" y="71.65000000000002"/>
      <point x="230.125" y="34.17500000000001" type="curve"/>
      <point x="211.45000000000002" y="182.8" type="line"/>
      <point x="171.10000000000002" y="557.0" type="line"/>
      <point x="54.375" y="557.0" type="line"/>
      <point x="108.025" y="174.675" type="line"/>
      <point x="139.05" y="-8.325000000000003" type="line"/>
      <point x="205.55" y="-8.325000000000003" type="line"/>
      <point x="147.125" y="-93.77499999999999"/>
      <point x="95.62500000000003" y="-160.5"/>
      <point x="5.27500000000002" y="-160.5" type="curve" smooth="yes"/>
      <point x="-21.04999999999998" y="-160.5"/>
      <point x="-42.999999999999986" y="-150.85"/>
      <point x="-57.274999999999984" y="-143.225" type="curve"/>
      <point x="-86.87499999999999" y="-228.725" type="line"/>
      <point x="-65.27499999999999" y="-237.675"/>
      <point x="-30.649999999999984" y="-246.3"/>
    </contour>
  </outline>
</glyph>
<glyph name="braceleft" format="2">
  <advance width="388.0"/>
  <unicode hex="007B"/>
  <note>
braceleft
</note>
  <outline>
    <contour>
      <point x="183.0" y="-83.0" type="curve" smooth="yes"/>
      <point x="232.0" y="-83.0"/>
      <point x="264.0" y="-77.0"/>
      <point x="317.0" y="-65.0" type="curve"/>
      <point x="321.0" y="-32.0" type="line"/>
      <point x="187.0" y="-32.0" type="line"/>
      <point x="229.0" y="302.0" type="line" smooth="yes"/>
      <point x="236.0" y="354.0"/>
      <point x="176.0" y="367.0"/>
      <point x="123.0" y="391.0" type="curve"/>
      <point x="162.0" y="402.0"/>
      <point x="247.0" y="427.0"/>
      <point x="253.0" y="473.0" type="curve" smooth="yes"/>
      <point x="293.0" y="780.0" type="line"/>
      <point x="433.0" y="780.0" type="line"/>
      <point x="438.0" y="812.0" type="line"/>
      <point x="420.0" y="818.0"/>
      <point x="333.0" y="830.0"/>
      <point x="304.0" y="830.0" type="curve" smooth="yes"/>
      <point x="243.0" y="830.0"/>
      <point x="230.0" y="807.0"/>
      <point x="220.0" y="737.0" type="curve" smooth="yes"/>
      <point x="185.0" y="485.0" type="line" smooth="yes"/>
      <point x="180.0" y="451.0"/>
      <point x="115.0" y="432.0"/>
      <point x="49.0" y="415.0" type="curve"/>
      <point x="42.0" y="367.0" type="line"/>
      <point x="87.0" y="355.0"/>
      <point x="164.0" y="328.0"/>
      <point x="160.0" y="295.0" type="curve" smooth="yes"/>
      <point x="120.0" y="-28.0" type="line" smooth="yes"/>
      <point x="115.0" y="-70.0"/>
      <point x="138.0" y="-83.0"/>
    </contour>
  </outline>
</glyph>
<glyph name="braceright" format="2">
  <advance width="398.725"/>
  <unicode hex="007D"/>
  <note>
braceleft
</note>
  <outline>
    <contour>
      <point x="240.45000000000002" y="853.175" type="curve" smooth="yes"/>
      <point x="190.175" y="853.175"/>
      <point x="155.3" y="844.875"/>
      <point x="99.3" y="827.9" type="curve"/>
      <point x="92.325" y="778.725" type="line"/>
      <point x="226.65" y="778.725" type="line"/>
      <point x="182.625" y="458.6" type="line" smooth="yes"/>
      <point x="177.95" y="422.2"/>
      <point x="209.14999999999998" y="396.275"/>
      <point x="271.52500000000003" y="368.925" type="curve"/>
      <point x="213.22500000000002" y="346.225"/>
      <point x="168.325" y="332.0"/>
      <point x="160.65" y="274.575" type="curve" smooth="yes"/>
      <point x="120.675" y="-26.375" type="line"/>
      <point x="-18.675" y="-26.375" type="line"/>
      <point x="-26.650000000000002" y="-75.85000000000001" type="line"/>
      <point x="-7.349999999999999" y="-81.17500000000001"/>
      <point x="72.0" y="-99.5"/>
      <point x="107.65" y="-99.5" type="curve" smooth="yes"/>
      <point x="164.95000000000002" y="-99.5"/>
      <point x="208.47500000000002" y="-74.325"/>
      <point x="221.82500000000002" y="24.14999999999999" type="curve" smooth="yes"/>
      <point x="255.125" y="272.025" type="line" smooth="yes"/>
      <point x="259.125" y="301.325"/>
      <point x="321.1" y="321.375"/>
      <point x="374.725" y="335.025" type="curve"/>
      <point x="384.70000000000005" y="401.2" type="line"/>
      <point x="341.05" y="413.2"/>
      <point x="277.75" y="437.225"/>
      <point x="282.075" y="467.2" type="curve" smooth="yes"/>
      <point x="324.725" y="780.25" type="line" smooth="yes"/>
      <point x="332.05" y="833.575"/>
      <point x="302.075" y="853.175"/>
    </contour>
  </outline>
</glyph>
<glyph name="asciitilde" format="2">
  <advance width="555.0"/>
  <unicode hex="007E"/>
  <note>
asciitilde
</note>
  <outline>
    <contour>
      <point x="369.55" y="348.1" type="curve" smooth="yes"/>
      <point x="437.225" y="348.1"/>
      <point x="508.175" y="395.05"/>
      <point x="523.175" y="451.725" type="curve"/>
      <point x="483.3" y="492.925" type="line"/>
      <point x="458.3" y="455.25"/>
      <point x="425.625" y="436.575"/>
      <point x="386.6" y="436.575" type="curve" smooth="yes"/>
      <point x="363.275" y="436.575"/>
      <point x="346.275" y="448.575"/>
      <point x="314.625" y="473.575" type="curve" smooth="yes"/>
      <point x="276.65" y="504.575"/>
      <point x="251.675" y="520.575"/>
      <point x="214.725" y="520.575" type="curve" smooth="yes"/>
      <point x="148.05" y="520.575"/>
      <point x="78.8" y="469.575"/>
      <point x="59.77499999999999" y="416.925" type="curve"/>
      <point x="100.625" y="375.725" type="line"/>
      <point x="125.975" y="412.775"/>
      <point x="158.325" y="432.75"/>
      <point x="197.35" y="432.75" type="curve" smooth="yes"/>
      <point x="221.65" y="432.75"/>
      <point x="239.3" y="419.75"/>
      <point x="270.3" y="394.75" type="curve" smooth="yes"/>
      <point x="304.675" y="365.375"/>
      <point x="331.6" y="348.1"/>
    </contour>
  </outline>
</glyph>
<glyph name="cent" format="2">
  <advance width="517.625"/>
  <unicode hex="00A2"/>
  <note>
cent
</note>
  <outline>
    <contour>
      <point x="170.79999999999998" y="-109.875" type="line"/>
      <point x="251.625" y="-109.875" type="line"/>
      <point x="270.6" y="-6.675" type="line"/>
      <point x="341.875" y="-0.6999999999999984"/>
      <point x="399.875" y="42.300000000000004"/>
      <point x="429.9" y="82.625" type="curve"/>
      <point x="396.275" y="139.5" type="line"/>
      <point x="351.5" y="95.07500000000002"/>
      <point x="311.225" y="73.45000000000002"/>
      <point x="270.225" y="73.45000000000002" type="curve" smooth="yes"/>
      <point x="204.15" y="73.45000000000002"/>
      <point x="173.425" y="116.47500000000001"/>
      <point x="173.425" y="225.25" type="curve" smooth="yes"/>
      <point x="173.425" y="344.7"/>
      <point x="241.25" y="482.59999999999997"/>
      <point x="340.7" y="482.59999999999997" type="curve" smooth="yes"/>
      <point x="376.075" y="482.59999999999997"/>
      <point x="409.0" y="469.7"/>
      <point x="432.675" y="449.7" type="curve"/>
      <point x="460.275" y="545.675" type="line"/>
      <point x="438.575" y="556.025"/>
      <point x="406.25" y="562.025"/>
      <point x="371.9" y="563.675" type="curve"/>
      <point x="397.875" y="668.525" type="line"/>
      <point x="317.725" y="668.525" type="line"/>
      <point x="290.075" y="557.675" type="line"/>
      <point x="149.1" y="525.375"/>
      <point x="63.425" y="365.6"/>
      <point x="63.425" y="212.65" type="curve" smooth="yes"/>
      <point x="63.425" y="100.22500000000001"/>
      <point x="107.44999999999999" y="23.950000000000003"/>
      <point x="191.1" y="-0.3499999999999992" type="curve"/>
    </contour>
  </outline>
</glyph>
<glyph name="currency" format="2">
  <advance width="752.0"/>
  <unicode hex="00A4"/>
  <note>
currency
</note>
  <outline>
    <contour>
      <point x="169.0" y="61.05" type="line"/>
      <point x="265.3" y="157.025" type="line"/>
      <point x="298.95" y="134.675"/>
      <point x="339.65" y="123.0"/>
      <point x="382.0" y="123.0" type="curve" smooth="yes"/>
      <point x="426.35" y="123.0"/>
      <point x="466.025" y="135.675"/>
      <point x="502.025" y="160.025" type="curve"/>
      <point x="598.0" y="63.725" type="line"/>
      <point x="656.275" y="121.0" type="line"/>
      <point x="559.975" y="217.3" type="line"/>
      <point x="583.65" y="252.3"/>
      <point x="597.0" y="293.325"/>
      <point x="597.0" y="337.0" type="curve" smooth="yes"/>
      <point x="597.0" y="379.35"/>
      <point x="585.325" y="418.7"/>
      <point x="562.65" y="453.375" type="curve"/>
      <point x="657.275" y="548.0" type="line"/>
      <point x="600.0" y="605.95" type="line"/>
      <point x="505.7" y="511.975" type="line"/>
      <point x="469.375" y="536.975"/>
      <point x="426.675" y="551.0"/>
      <point x="382.0" y="551.0" type="curve" smooth="yes"/>
      <point x="338.325" y="551.0"/>
      <point x="298.975" y="538.675"/>
      <point x="263.3" y="515.65" type="curve"/>
      <point x="167.0" y="612.275" type="line"/>
      <point x="109.725" y="554.0" type="line"/>
      <point x="205.025" y="458.7" type="line"/>
      <point x="181.35" y="423.7"/>
      <point x="167.0" y="381.675"/>
      <point x="167.0" y="337.0" type="curve" smooth="yes"/>
      <point x="167.0" y="292.325"/>
      <point x="181.35" y="248.975"/>
      <point x="206.025" y="213.3" type="curve"/>
      <point x="110.725" y="119.0" type="line"/>
    </contour>
    <contour>
      <point x="382.0" y="195.15" type="curve" smooth="yes"/>
      <point x="308.25" y="195.15"/>
      <point x="245.825" y="258.2"/>
      <point x="245.825" y="337.0" type="curve" smooth="yes"/>
      <point x="245.825" y="412.075"/>
      <point x="304.2" y="478.85"/>
      <point x="382.0" y="478.85" type="curve" smooth="yes"/>
      <point x="455.4" y="478.85"/>
      <point x="517.175" y="416.45"/>
      <point x="517.175" y="337.0" type="curve" smooth="yes"/>
      <point x="517.175" y="260.9"/>
      <point x="456.425" y="195.15"/>
    </contour>
  </outline>
</glyph>
<glyph name="yen" format="2">
  <advance width="723.025"/>
  <unicode hex="00A5"/>
  <note>
yen
</note>
  <outline>
    <contour>
      <point x="281.59999999999997" y="0.0" type="line"/>
      <point x="382.875" y="0.0" type="line"/>
      <point x="404.2" y="179.775" type="line"/>
      <point x="608.2" y="179.775" type="line"/>
      <point x="616.2" y="247.0" type="line"/>
      <point x="412.85" y="247.0" type="line"/>
      <point x="425.525" y="353.1" type="line"/>
      <point x="630.875" y="353.1" type="line"/>
      <point x="638.875" y="421.0" type="line"/>
      <point x="469.1" y="421.0" type="line"/>
      <point x="709.175" y="747.0" type="line"/>
      <point x="596.3" y="747.0" type="line"/>
      <point x="424.45" y="479.025" type="line"/>
      <point x="393.075" y="421.675" type="line"/>
      <point x="374.375" y="475.675" type="line"/>
      <point x="257.2" y="747.0" type="line"/>
      <point x="150.2" y="747.0" type="line"/>
      <point x="300.325" y="421.0" type="line"/>
      <point x="133.6" y="421.0" type="line"/>
      <point x="124.92499999999998" y="353.1" type="line"/>
      <point x="323.59999999999997" y="353.1" type="line"/>
      <point x="311.25" y="247.0" type="line"/>
      <point x="111.24999999999999" y="247.0" type="line"/>
      <point x="102.24999999999999" y="179.775" type="line"/>
      <point x="302.59999999999997" y="179.775" type="line"/>
    </contour>
  </outline>
</glyph>
<glyph name="section" format="2">
  <advance width="670.15"/>
  <unicode hex="00A7"/>
  <outline>
    <contour>
      <point x="155.225" y="648.7" type="curve" smooth="yes"/>
      <point x="125.575" y="438.8"/>
      <point x="476.325" y="462.725"/>
      <point x="452.975" y="302.625" type="curve" smooth="yes"/>
      <point x="447.65" y="261.625"/>
      <point x="409.075" y="198.0"/>
      <point x="386.075" y="172.0" type="curve"/>
      <point x="435.625" y="143.625" type="line"/>
      <point x="500.825" y="187.275"/>
      <point x="553.725" y="250.275"/>
      <point x="564.05" y="322.9" type="curve" smooth="yes"/>
      <point x="593.05" y="528.2"/>
      <point x="251.8" y="529.175"/>
      <point x="269.5" y="656.8" type="curve" smooth="yes"/>
      <point x="276.85" y="707.875"/>
      <point x="334.025" y="726.9"/>
      <point x="396.125" y="727.575" type="curve" smooth="yes"/>
      <point x="482.175" y="727.575"/>
      <point x="527.875" y="705.9"/>
      <point x="547.9" y="690.575" type="curve"/>
      <point x="580.85" y="781.0" type="line"/>
      <point x="554.525" y="798.0"/>
      <point x="498.525" y="817.0"/>
      <point x="406.85" y="817.0" type="curve" smooth="yes"/>
      <point x="306.2" y="817.0"/>
      <point x="173.225" y="777.75"/>
    </contour>
    <contour>
      <point x="518.5" y="74.625" type="curve" smooth="yes"/>
      <point x="547.8" y="281.675"/>
      <point x="194.75" y="242.5"/>
      <point x="216.1" y="394.275" type="curve" smooth="yes"/>
      <point x="222.1" y="435.275"/>
      <point x="259.35" y="492.0"/>
      <point x="283.025" y="518.0" type="curve"/>
      <point x="230.15" y="547.0" type="line"/>
      <point x="166.625" y="506.0"/>
      <point x="115.05" y="444.0"/>
      <point x="105.05" y="375.0" type="curve" smooth="yes"/>
      <point x="76.725" y="172.75"/>
      <point x="421.6" y="184.1"/>
      <point x="405.225" y="68.85" type="curve" smooth="yes"/>
      <point x="397.55" y="14.45"/>
      <point x="334.35" y="-4.574999999999999"/>
      <point x="266.225" y="-4.574999999999999" type="curve" smooth="yes"/>
      <point x="178.85" y="-5.574999999999999"/>
      <point x="116.775" y="22.425"/>
      <point x="93.425" y="41.425" type="curve"/>
      <point x="59.8" y="-49.0" type="line"/>
      <point x="87.125" y="-70.0"/>
      <point x="164.175" y="-94.0"/>
      <point x="255.5" y="-94.0" type="curve" smooth="yes"/>
      <point x="362.5" y="-94.0"/>
      <point x="500.825" y="-52.75"/>
    </contour>
  </outline>
</glyph>
<glyph name="dieresis" format="2">
  <advance width="395.0"/>
  <unicode hex="00A8"/>
  <note>
dieresis
</note>
  <outline>
    <contour>
      <point x="88.0" y="688.0" type="curve" smooth="yes"/>
      <point x="120.0" y="688.0"/>
      <point x="146.0" y="715.0"/>
      <point x="146.0" y="750.0" type="curve" smooth="yes"/>
      <point x="146.0" y="775.0"/>
      <point x="128.0" y="792.0"/>
      <point x="101.0" y="792.0" type="curve" smooth="yes"/>
      <point x="72.0" y="792.0"/>
      <point x="46.0" y="764.0"/>
      <point x="46.0" y="732.0" type="curve" smooth="yes"/>
      <point x="46.0" y="707.0"/>
      <point x="65.0" y="688.0"/>
    </contour>
    <contour>
      <point x="294.0" y="688.0" type="curve" smooth="yes"/>
      <point x="325.0" y="688.0"/>
      <point x="351.0" y="715.0"/>
      <point x="351.0" y="750.0" type="curve" smooth="yes"/>
      <point x="351.0" y="775.0"/>
      <point x="334.0" y="792.0"/>
      <point x="307.0" y="792.0" type="curve" smooth="yes"/>
      <point x="276.0" y="792.0"/>
      <point x="252.0" y="765.0"/>
      <point x="252.0" y="732.0" type="curve" smooth="yes"/>
      <point x="252.0" y="707.0"/>
      <point x="270.0" y="688.0"/>
    </contour>
  </outline>
</glyph>
<glyph name="copyright" format="2">
  <advance width="1034.15"/>
  <unicode hex="00A9"/>
  <outline>
    <contour>
      <point x="92.075" y="470.0" type="curve" smooth="yes"/>
      <point x="92.075" y="232.0"/>
      <point x="279.075" y="40.0"/>
      <point x="517.075" y="40.0" type="curve" smooth="yes"/>
      <point x="754.075" y="40.0"/>
      <point x="942.075" y="232.0"/>
      <point x="942.075" y="470.0" type="curve" smooth="yes"/>
      <point x="942.075" y="708.0"/>
      <point x="754.075" y="898.0"/>
      <point x="517.075" y="898.0" type="curve" smooth="yes"/>
      <point x="279.075" y="898.0"/>
      <point x="92.075" y="708.0"/>
    </contour>
    <contour>
      <point x="161.075" y="470.0" type="curve" smooth="yes"/>
      <point x="161.075" y="672.0"/>
      <point x="312.075" y="837.0"/>
      <point x="517.075" y="837.0" type="curve" smooth="yes"/>
      <point x="721.075" y="837.0"/>
      <point x="872.075" y="672.0"/>
      <point x="872.075" y="470.0" type="curve" smooth="yes"/>
      <point x="872.075" y="268.0"/>
      <point x="721.075" y="103.0"/>
      <point x="517.075" y="103.0" type="curve" smooth="yes"/>
      <point x="312.075" y="103.0"/>
      <point x="161.075" y="268.0"/>
    </contour>
    <contour>
      <point x="300.4" y="466.025" type="curve" smooth="yes"/>
      <point x="300.4" y="343.075"/>
      <point x="381.7" y="233.35"/>
      <point x="516.05" y="233.35" type="curve" smooth="yes"/>
      <point x="581.05" y="233.35"/>
      <point x="641.675" y="254.3"/>
      <point x="673.35" y="280.975" type="curve"/>
      <point x="651.025" y="346.5" type="line"/>
      <point x="626.675" y="333.5"/>
      <point x="584.3" y="316.85"/>
      <point x="533.6" y="316.85" type="curve" smooth="yes"/>
      <point x="456.25" y="316.85"/>
      <point x="401.575" y="369.625"/>
      <point x="401.575" y="477.575" type="curve" smooth="yes"/>
      <point x="401.9" y="562.975"/>
      <point x="450.875" y="624.825"/>
      <point x="535.025" y="624.825" type="curve" smooth="yes"/>
      <point x="581.1" y="624.825"/>
      <point x="618.025" y="611.825"/>
      <point x="643.075" y="595.475" type="curve"/>
      <point x="661.025" y="682.3" type="line"/>
      <point x="643.05" y="691.95"/>
      <point x="602.8" y="708.0"/>
      <point x="542.4" y="708.0" type="curve" smooth="yes"/>
      <point x="385.075" y="708.0"/>
      <point x="300.075" y="603.675"/>
    </contour>
  </outline>
</glyph>
<glyph name="logicalnot" format="2">
  <advance width="669.0"/>
  <unicode hex="00AC"/>
  <note>
logicalnot
</note>
  <outline>
    <contour>
      <point x="456.825" y="157.0" type="line"/>
      <point x="550.0" y="157.0" type="line"/>
      <point x="580.0" y="417.0" type="line"/>
      <point x="111.0" y="417.0" type="line"/>
      <point x="102.35" y="336.15" type="line"/>
      <point x="478.175" y="336.15" type="line"/>
    </contour>
  </outline>
</glyph>
<glyph name="degree" format="2">
  <advance width="443.55"/>
  <unicode hex="00B0"/>
  <note>
degree
</note>
  <outline>
    <contour>
      <point x="233.8" y="463.075" type="curve" smooth="yes"/>
      <point x="298.1" y="463.075"/>
      <point x="351.75" y="493.4"/>
      <point x="381.40000000000003" y="543.375" type="curve" smooth="yes"/>
      <point x="396.40000000000003" y="568.7"/>
      <point x="403.725" y="596.35"/>
      <point x="403.725" y="627.0" type="curve" smooth="yes"/>
      <point x="403.725" y="683.975"/>
      <point x="373.40000000000003" y="734.95"/>
      <point x="324.75" y="763.275" type="curve" smooth="yes"/>
      <point x="300.425" y="776.925"/>
      <point x="272.77500000000003" y="783.925"/>
      <point x="243.125" y="783.925" type="curve" smooth="yes"/>
      <point x="179.47500000000002" y="783.925"/>
      <point x="126.17500000000001" y="753.275"/>
      <point x="97.2" y="704.3" type="curve" smooth="yes"/>
      <point x="82.2" y="678.975"/>
      <point x="74.875" y="651.325"/>
      <point x="74.875" y="621.0" type="curve" smooth="yes"/>
      <point x="74.875" y="563.7"/>
      <point x="104.2" y="512.4"/>
      <point x="153.175" y="484.4" type="curve" smooth="yes"/>
      <point x="176.82500000000002" y="470.075"/>
      <point x="204.15" y="463.075"/>
    </contour>
    <contour>
      <point x="237.125" y="527.275" type="curve" smooth="yes"/>
      <point x="187.10000000000002" y="527.275"/>
      <point x="148.75" y="569.975"/>
      <point x="148.75" y="622.0" type="curve" smooth="yes"/>
      <point x="148.75" y="677.375"/>
      <point x="187.425" y="719.725"/>
      <point x="240.8" y="719.725" type="curve" smooth="yes"/>
      <point x="291.15000000000003" y="719.725"/>
      <point x="329.85" y="677.025"/>
      <point x="329.85" y="625.675" type="curve" smooth="yes"/>
      <point x="329.85" y="570.975"/>
      <point x="291.5" y="527.275"/>
    </contour>
  </outline>
</glyph>
<glyph name="plusminus" format="2">
  <advance width="666.35"/>
  <unicode hex="00B1"/>
  <note>
plusminus
</note>
  <outline>
    <contour>
      <point x="266.45" y="140.425" type="line"/>
      <point x="360.925" y="140.425" type="line"/>
      <point x="374.575" y="261.025" type="line"/>
      <point x="379.25" y="339.075" type="line"/>
      <point x="432.95" y="335.075" type="line"/>
      <point x="559.25" y="335.075" type="line"/>
      <point x="568.875" y="421.2" type="line"/>
      <point x="443.25" y="421.2" type="line"/>
      <point x="388.55" y="416.2" type="line"/>
      <point x="402.225" y="493.925" type="line"/>
      <point x="415.225" y="610.15" type="line"/>
      <point x="320.75" y="610.15" type="line"/>
      <point x="307.425" y="493.925" type="line"/>
      <point x="300.75" y="415.2" type="line"/>
      <point x="234.7" y="421.2" type="line"/>
      <point x="122.75" y="421.2" type="line"/>
      <point x="113.45" y="335.075" type="line"/>
      <point x="225.075" y="335.075" type="line"/>
      <point x="292.1" y="339.075" type="line"/>
      <point x="279.775" y="261.025" type="line"/>
    </contour>
    <contour>
      <point x="83.35" y="12.4" type="line"/>
      <point x="510.275" y="12.4" type="line"/>
      <point x="518.95" y="90.275" type="line"/>
      <point x="91.35" y="90.275" type="line"/>
    </contour>
  </outline>
</glyph>
<glyph name="acute" format="2">
  <advance width="273.325"/>
  <unicode hex="00B4"/>
  <note>
acute
</note>
  <outline>
    <contour>
      <point x="71.725" y="611.775" type="line"/>
      <point x="118.7" y="628.775"/>
      <point x="235.975" y="732.4"/>
      <point x="258.975" y="775.75" type="curve"/>
      <point x="180.42499999999998" y="847.95" type="line"/>
      <point x="28.47499999999999" y="648.05" type="line"/>
    </contour>
  </outline>
</glyph>
<glyph name="micro" format="2">
  <advance width="666.0"/>
  <unicode hex="00B5"/>
  <note>
uni00B5
</note>
  <outline>
    <contour>
      <point x="53.474999999999994" y="-182.0" type="line"/>
      <point x="155.5" y="-182.0" type="line"/>
      <point x="187.175" y="27.325000000000003" type="line"/>
      <point x="198.5" y="6.0249999999999995"/>
      <point x="239.15" y="-9.0"/>
      <point x="265.125" y="-9.674999999999999" type="curve" smooth="yes"/>
      <point x="338.275" y="-9.674999999999999"/>
      <point x="369.575" y="15.7"/>
      <point x="413.325" y="60.0" type="curve"/>
      <point x="417.975" y="13.325000000000001"/>
      <point x="447.325" y="-9.0"/>
      <point x="491.575" y="-9.0" type="curve" smooth="yes"/>
      <point x="550.825" y="-9.0"/>
      <point x="598.525" y="32.699999999999996"/>
      <point x="619.775" y="59.975" type="curve"/>
      <point x="588.475" y="114.25" type="line"/>
      <point x="566.1" y="89.9"/>
      <point x="548.125" y="78.92500000000001"/>
      <point x="531.125" y="78.92500000000001" type="curve" smooth="yes"/>
      <point x="522.125" y="78.92500000000001"/>
      <point x="514.125" y="90.25"/>
      <point x="514.125" y="109.25" type="curve"/>
      <point x="514.125" y="133.3"/>
      <point x="529.0" y="229.70000000000005"/>
      <point x="570.475" y="557.0" type="curve"/>
      <point x="463.8" y="557.0" type="line"/>
      <point x="412.1" y="168.5" type="line"/>
      <point x="384.625" y="125.47500000000001"/>
      <point x="340.425" y="82.82500000000002"/>
      <point x="287.575" y="82.82500000000002" type="curve" smooth="yes"/>
      <point x="245.175" y="82.82500000000002"/>
      <point x="215.47500000000002" y="103.5"/>
      <point x="215.47500000000002" y="157.85000000000002" type="curve" smooth="yes"/>
      <point x="227.625" y="253.47499999999997"/>
      <point x="252.925" y="442.79999999999995"/>
      <point x="255.85000000000002" y="479.175" type="curve"/>
      <point x="259.1" y="530.5"/>
      <point x="230.125" y="563.325"/>
      <point x="185.0" y="563.325" type="curve" smooth="yes"/>
      <point x="126.35" y="563.325"/>
      <point x="71.1" y="527.35"/>
      <point x="54.14999999999999" y="502.0" type="curve"/>
      <point x="84.17499999999998" y="442.1" type="line"/>
      <point x="99.85" y="457.775"/>
      <point x="113.52499999999999" y="467.45"/>
      <point x="129.52499999999998" y="467.45" type="curve" smooth="yes"/>
      <point x="143.52499999999998" y="467.45"/>
      <point x="143.17499999999998" y="436.4"/>
      <point x="140.17499999999998" y="411.775" type="curve"/>
    </contour>
  </outline>
</glyph>
<glyph name="paragraph" format="2">
  <advance width="619.95"/>
  <unicode hex="00B6"/>
  <note>
paragraph
</note>
  <outline>
    <contour>
      <point x="181.325" y="0.0" type="line"/>
      <point x="281.825" y="0.0" type="line"/>
      <point x="367.825" y="682.85" type="line"/>
      <point x="462.825" y="682.85" type="line"/>
      <point x="377.825" y="0.0" type="line"/>
      <point x="477.3" y="0.0" type="line"/>
      <point x="564.65" y="684.175" type="line"/>
      <point x="645.975" y="700.85" type="line"/>
      <point x="652.95" y="758.0" type="line"/>
      <point x="518.8" y="758.0" type="line" smooth="yes"/>
      <point x="482.125" y="758.0"/>
      <point x="393.85" y="767.0"/>
      <point x="335.175" y="767.0" type="curve" smooth="yes"/>
      <point x="143.95" y="767.0"/>
      <point x="57.675" y="684.075"/>
      <point x="57.675" y="547.75" type="curve" smooth="yes"/>
      <point x="57.675" y="440.4"/>
      <point x="122.675" y="373.2"/>
      <point x="231.325" y="370.2" type="curve"/>
    </contour>
  </outline>
</glyph>
<glyph name="cedilla" format="2">
  <unicode hex="00B8"/>
  <note>
cedilla
</note>
  <outline>
    <contour>
      <point x="76.275" y="-227.65" type="curve" smooth="yes"/>
      <point x="159.85" y="-227.65"/>
      <point x="213.9" y="-184.0"/>
      <point x="213.9" y="-86.85" type="curve" smooth="yes"/>
      <point x="213.9" y="-43.85"/>
      <point x="203.6" y="-5.0"/>
      <point x="190.6" y="15.0" type="curve"/>
      <point x="161.675" y="17.0" type="line"/>
      <point x="128.375" y="15.0" type="line"/>
      <point x="130.375" y="1.6500000000000004"/>
      <point x="130.7" y="-19.85"/>
      <point x="130.025" y="-58.65" type="curve" smooth="yes"/>
      <point x="128.675" y="-122.075"/>
      <point x="93.725" y="-142.1"/>
      <point x="59.075" y="-142.1" type="curve" smooth="yes"/>
      <point x="30.1" y="-142.1"/>
      <point x="18.45" y="-139.775"/>
      <point x="9.45" y="-134.775" type="curve"/>
      <point x="-3.5250000000000004" y="-213.0" type="line"/>
      <point x="7.475" y="-220.675"/>
      <point x="48.95" y="-227.65"/>
    </contour>
  </outline>
</glyph>
<glyph name="ordmasculine" format="2">
  <advance width="404.70000000000005"/>
  <unicode hex="00BA"/>
  <note>
ordmasculine
</note>
  <outline>
    <contour>
      <point x="212.925" y="356.7" type="curve" smooth="yes"/>
      <point x="339.125" y="356.7"/>
      <point x="432.375" y="457.4"/>
      <point x="432.375" y="594.625" type="curve" smooth="yes"/>
      <point x="432.375" y="696.575"/>
      <point x="370.45" y="776.0"/>
      <point x="267.15000000000003" y="776.0" type="curve" smooth="yes"/>
      <point x="145.6" y="776.0"/>
      <point x="48.0" y="670.3"/>
      <point x="48.0" y="537.075" type="curve" smooth="yes"/>
      <point x="48.0" y="435.75"/>
      <point x="117.625" y="356.7"/>
    </contour>
    <contour>
      <point x="216.875" y="420.95" type="curve" smooth="yes"/>
      <point x="171.47500000000002" y="420.95"/>
      <point x="146.45000000000002" y="478.675"/>
      <point x="146.45000000000002" y="547.675" type="curve" smooth="yes"/>
      <point x="146.45000000000002" y="632.0"/>
      <point x="194.82500000000002" y="714.75"/>
      <point x="261.85" y="714.75" type="curve" smooth="yes"/>
      <point x="309.55" y="714.75"/>
      <point x="333.6" y="665.975"/>
      <point x="333.6" y="587.9" type="curve" smooth="yes"/>
      <point x="333.6" y="498.9"/>
      <point x="303.575" y="420.95"/>
    </contour>
  </outline>
</glyph>
<glyph name="guillemetright" format="2">
  <advance width="926.425"/>
  <unicode hex="00BB"/>
  <note>
guillemotright
</note>
  <outline>
    <contour>
      <point x="243.625" y="71.725" type="line"/>
      <point x="585.525" y="265.4" type="line"/>
      <point x="597.5" y="346.0" type="line"/>
      <point x="305.65" y="531.625" type="line"/>
      <point x="267.725" y="472.75" type="line"/>
      <point x="465.825" y="304.975" type="line"/>
      <point x="223.325" y="134.875" type="line"/>
    </contour>
    <contour>
      <point x="348.725" y="71.725" type="line"/>
      <point x="690.95" y="265.4" type="line"/>
      <point x="702.6" y="346.0" type="line"/>
      <point x="410.75" y="531.625" type="line"/>
      <point x="373.15" y="472.75" type="line"/>
      <point x="571.6" y="304.975" type="line"/>
      <point x="329.1" y="134.875" type="line"/>
    </contour>
  </outline>
</glyph>
<glyph name="questiondown" format="2">
  <advance width="439.77500000000003"/>
  <unicode hex="00BF"/>
  <note>
questiondown
</note>
  <outline>
    <contour>
      <point x="327.125" y="402.65" type="curve"/>
      <point x="245.125" y="402.65" type="line"/>
      <point x="248.125" y="377.65"/>
      <point x="249.82500000000002" y="358.55"/>
      <point x="248.5" y="335.85" type="curve" smooth="yes"/>
      <point x="245.525" y="286.52500000000003"/>
      <point x="203.875" y="257.575"/>
      <point x="147.55" y="226.25" type="curve" smooth="yes"/>
      <point x="42.925000000000004" y="167.95"/>
      <point x="-16.674999999999997" y="88.775"/>
      <point x="-16.674999999999997" y="-13.349999999999998" type="curve" smooth="yes"/>
      <point x="-16.674999999999997" y="-149.3"/>
      <point x="80.25" y="-208.35"/>
      <point x="224.775" y="-208.35" type="curve" smooth="yes"/>
      <point x="270.175" y="-208.35"/>
      <point x="314.475" y="-196.675"/>
      <point x="328.45" y="-185.05" type="curve"/>
      <point x="346.425" y="-106.19999999999999" type="line"/>
      <point x="308.40000000000003" y="-118.54999999999998"/>
      <point x="281.75" y="-122.225"/>
      <point x="241.4" y="-122.225" type="curve" smooth="yes"/>
      <point x="165.10000000000002" y="-122.225"/>
      <point x="90.12500000000001" y="-82.94999999999999"/>
      <point x="90.12500000000001" y="-0.34999999999999787" type="curve" smooth="yes"/>
      <point x="90.12500000000001" y="60.750000000000014"/>
      <point x="120.05000000000004" y="118.50000000000001"/>
      <point x="211.37500000000003" y="167.775" type="curve" smooth="yes"/>
      <point x="299.625" y="215.20000000000002"/>
      <point x="343.1" y="267.925"/>
      <point x="343.1" y="320.675" type="curve" smooth="yes"/>
      <point x="343.1" y="362.5"/>
      <point x="334.05" y="385.4"/>
    </contour>
    <contour>
      <point x="303.5" y="667.65" type="curve" smooth="yes"/>
      <point x="253.9" y="667.65"/>
      <point x="222.275" y="635.375"/>
      <point x="222.275" y="584.775" type="curve" smooth="yes"/>
      <point x="222.275" y="551.15"/>
      <point x="241.925" y="526.85"/>
      <point x="283.85" y="526.85" type="curve" smooth="yes"/>
      <point x="330.8" y="526.85"/>
      <point x="364.425" y="565.8"/>
      <point x="364.425" y="609.4" type="curve" smooth="yes"/>
      <point x="364.425" y="643.675"/>
      <point x="338.1" y="667.65"/>
    </contour>
  </outline>
</glyph>
<glyph name="AE" format="2">
  <advance width="870.0"/>
  <unicode hex="00C6"/>
  <note>
AE
</note>
  <anchor x="398.0" y="0.0" name="bottom"/>
  <anchor x="497.0" y="747.0" name="top"/>
  <outline>
    <contour>
      <point x="-52.0" y="0.0" type="line"/>
      <point x="27.0" y="0.0" type="line"/>
      <point x="150.0" y="224.0" type="line"/>
      <point x="403.0" y="224.0" type="line"/>
      <point x="375.0" y="0.0" type="line"/>
      <point x="810.0" y="0.0" type="line"/>
      <point x="815.0" y="62.0" type="line"/>
      <point x="455.0" y="56.0" type="line"/>
      <point x="493.0" y="355.0" type="line"/>
      <point x="727.0" y="350.0" type="line"/>
      <point x="731.0" y="412.0" type="line"/>
      <point x="500.0" y="409.0" type="line"/>
      <point x="536.0" y="692.0" type="line"/>
      <point x="835.0" y="688.0" type="line"/>
      <point x="838.0" y="747.0" type="line"/>
      <point x="201.0" y="747.0" type="line"/>
      <point x="196.0" y="709.0" type="line"/>
      <point x="341.0" y="701.0" type="line"/>
    </contour>
    <contour>
      <point x="181.0" y="281.0" type="line"/>
      <point x="408.0" y="696.0" type="line"/>
      <point x="462.0" y="693.0" type="line"/>
      <point x="411.0" y="281.0" type="line"/>
    </contour>
  </outline>
</glyph>
<glyph name="multiply" format="2">
  <advance width="671.275"/>
  <unicode hex="00D7"/>
  <note>
multiply
</note>
  <outline>
    <contour>
      <point x="267.97500000000014" y="148.475" type="line"/>
      <point x="416.7750000000001" y="288.275" type="line"/>
      <point x="459.84999999999997" y="225.8250000000001" type="line"/>
      <point x="564.475" y="318.97500000000014" type="line"/>
      <point x="443.4750000000001" y="452.97500000000014" type="line"/>
      <point x="510.2249999999999" y="503.74999999999994" type="line"/>
      <point x="431.97499999999985" y="600.8" type="line"/>
      <point x="282.82499999999993" y="461.00000000000006" type="line"/>
      <point x="239.10000000000002" y="523.7749999999999" type="line"/>
      <point x="134.79999999999998" y="430.6249999999999" type="line"/>
      <point x="255.79999999999993" y="297.2999999999999" type="line"/>
      <point x="188.4000000000001" y="245.52500000000003" type="line"/>
    </contour>
  </outline>
</glyph>
<glyph name="Oslash" format="2">
  <advance width="674.3"/>
  <unicode hex="00D8"/>
  <note>
Oslash
</note>
  <anchor x="399.0" y="747.0" name="top"/>
  <outline>
    <contour>
      <point x="77.82500000000002" y="-64.0" type="line"/>
      <point x="148.57500000000002" y="42.77499999999999" type="line"/>
      <point x="188.25" y="9.024999999999999"/>
      <point x="236.6" y="-7.675"/>
      <point x="293.625" y="-7.675" type="curve" smooth="yes"/>
      <point x="430.25" y="-7.675"/>
      <point x="540.225" y="77.3"/>
      <point x="598.55" y="214.6" type="curve" smooth="yes"/>
      <point x="627.55" y="283.25"/>
      <point x="641.875" y="358.9"/>
      <point x="641.875" y="442.225" type="curve" smooth="yes"/>
      <point x="641.875" y="538.9"/>
      <point x="617.25" y="623.925"/>
      <point x="567.95" y="680.6" type="curve"/>
      <point x="640.025" y="792.0" type="line"/>
      <point x="597.025" y="815.0" type="line"/>
      <point x="531.3" y="714.625" type="line"/>
      <point x="493.975" y="741.65"/>
      <point x="449.65" y="755.0"/>
      <point x="397.65" y="755.0" type="curve" smooth="yes"/>
      <point x="265.4" y="755.0"/>
      <point x="154.42499999999998" y="670.7"/>
      <point x="94.425" y="534.075" type="curve" smooth="yes"/>
      <point x="64.425" y="465.425"/>
      <point x="49.425" y="389.1"/>
      <point x="49.425" y="305.775" type="curve" smooth="yes"/>
      <point x="49.425" y="216.14999999999998"/>
      <point x="71.375" y="135.5"/>
      <point x="114.275" y="79.14999999999999" type="curve"/>
      <point x="34.50000000000001" y="-41.0" type="line"/>
    </contour>
    <contour>
      <point x="309.3" y="75.42500000000001" type="curve" smooth="yes"/>
      <point x="264.55" y="75.42500000000001"/>
      <point x="230.82500000000002" y="90.80000000000001"/>
      <point x="208.125" y="121.9" type="curve"/>
      <point x="503.45" y="591.2" type="line"/>
      <point x="520.5" y="551.45"/>
      <point x="529.2" y="496.675"/>
      <point x="529.2" y="426.85" type="curve" smooth="yes"/>
      <point x="529.2" y="303.425"/>
      <point x="489.825" y="188.75"/>
      <point x="423.75" y="124.42500000000001" type="curve" smooth="yes"/>
      <point x="390.05" y="91.42500000000001"/>
      <point x="352.35" y="75.42500000000001"/>
    </contour>
    <contour>
      <point x="181.8" y="172.575" type="line"/>
      <point x="168.775" y="210.975"/>
      <point x="162.425" y="260.725"/>
      <point x="162.425" y="320.47499999999997" type="curve" smooth="yes"/>
      <point x="162.425" y="438.875"/>
      <point x="202.15" y="554.575"/>
      <point x="268.55" y="620.225" type="curve" smooth="yes"/>
      <point x="302.25" y="653.225"/>
      <point x="339.625" y="669.55"/>
      <point x="382.0" y="669.55" type="curve" smooth="yes"/>
      <point x="420.375" y="669.55"/>
      <point x="451.075" y="658.2"/>
      <point x="473.775" y="636.175" type="curve"/>
    </contour>
  </outline>
</glyph>
<glyph name="Thorn" format="2">
  <advance width="598.475"/>
  <unicode hex="00DE"/>
  <note>
Thorn
</note>
  <outline>
    <contour>
      <point x="51.074999999999996" y="0.0" type="line"/>
      <point x="160.4" y="0.0" type="line"/>
      <point x="177.72500000000002" y="136.025" type="line"/>
      <point x="200.62500000000003" y="133.025"/>
      <point x="229.65000000000003" y="131.025"/>
      <point x="264.45" y="131.025" type="curve" smooth="yes"/>
      <point x="384.05" y="131.025"/>
      <point x="479.675" y="183.325"/>
      <point x="530.35" y="275.325" type="curve" smooth="yes"/>
      <point x="555.35" y="320.325"/>
      <point x="568.025" y="373.675"/>
      <point x="567.7" y="434.025" type="curve" smooth="yes"/>
      <point x="567.7" y="566.7"/>
      <point x="487.1" y="632.35"/>
      <point x="338.52500000000003" y="632.35" type="curve" smooth="yes"/>
      <point x="318.925" y="632.35"/>
      <point x="261.57500000000005" y="628.65"/>
      <point x="240.70000000000002" y="626.325" type="curve"/>
      <point x="256.70000000000005" y="747.0" type="line"/>
      <point x="147.025" y="747.0" type="line"/>
    </contour>
    <contour>
      <point x="264.075" y="215.8" type="curve" smooth="yes"/>
      <point x="239.4" y="215.47500000000002"/>
      <point x="205.375" y="218.47500000000002"/>
      <point x="189.025" y="222.47500000000002" type="curve"/>
      <point x="230.4" y="543.175" type="line"/>
      <point x="256.125" y="548.875"/>
      <point x="296.225" y="552.55"/>
      <point x="319.925" y="552.55" type="curve" smooth="yes"/>
      <point x="414.925" y="552.55"/>
      <point x="459.975" y="511.525"/>
      <point x="458.0" y="429.45" type="curve" smooth="yes"/>
      <point x="455.0" y="289.55"/>
      <point x="394.625" y="215.8"/>
    </contour>
  </outline>
</glyph>
<glyph name="germandbls" format="2">
  <advance width="588.025"/>
  <unicode hex="00DF"/>
  <note>
germandbls
</note>
  <outline>
    <contour>
      <point x="342.725" y="-8.0" type="curve" smooth="yes"/>
      <point x="456.025" y="-8.0"/>
      <point x="543.65" y="47.05"/>
      <point x="543.65" y="153.625" type="curve" smooth="yes"/>
      <point x="543.65" y="216.675"/>
      <point x="516.25" y="264.725"/>
      <point x="469.825" y="326.175" type="curve" smooth="yes"/>
      <point x="445.475" y="359.175"/>
      <point x="428.25" y="382.7"/>
      <point x="428.25" y="400.65" type="curve" smooth="yes"/>
      <point x="428.25" y="427.65"/>
      <point x="442.6" y="445.325"/>
      <point x="474.275" y="477.025" type="curve" smooth="yes"/>
      <point x="516.25" y="518.35"/>
      <point x="549.95" y="560.401"/>
      <point x="549.95" y="632.025" type="curve" smooth="yes"/>
      <point x="549.95" y="724.675"/>
      <point x="485.025" y="775.675"/>
      <point x="387.475" y="775.675" type="curve" smooth="yes"/>
      <point x="200.575" y="775.675"/>
      <point x="120.65" y="659.25"/>
      <point x="94.675" y="454.675" type="curve" smooth="yes"/>
      <point x="37.025" y="1.675" type="line"/>
      <point x="143.375" y="1.675" type="line"/>
      <point x="197.7" y="424.675" type="line" smooth="yes"/>
      <point x="215.05" y="566.475"/>
      <point x="249.7" y="700.5"/>
      <point x="360.8" y="700.5" type="curve" smooth="yes"/>
      <point x="411.85" y="700.5"/>
      <point x="441.2" y="669.15"/>
      <point x="441.2" y="626.75" type="curve" smooth="yes"/>
      <point x="441.2" y="576.4"/>
      <point x="418.875" y="538.375"/>
      <point x="375.875" y="494.675" type="curve" smooth="yes"/>
      <point x="340.225" y="456.7"/>
      <point x="322.925" y="430.7"/>
      <point x="322.925" y="387.7" type="curve" smooth="yes"/>
      <point x="322.925" y="350.65"/>
      <point x="353.05" y="305.95"/>
      <point x="387.3" y="257.0" type="curve" smooth="yes"/>
      <point x="411.575" y="221.725"/>
      <point x="431.6" y="183.25"/>
      <point x="431.6" y="150.575" type="curve" smooth="yes"/>
      <point x="431.6" y="92.15"/>
      <point x="399.9" y="73.15"/>
      <point x="329.15" y="73.15" type="curve" smooth="yes"/>
      <point x="291.45" y="73.15"/>
      <point x="250.125" y="93.825"/>
      <point x="231.1" y="112.175" type="curve"/>
      <point x="218.425" y="15.0" type="line"/>
      <point x="241.425" y="3.675"/>
      <point x="297.825" y="-8.0"/>
    </contour>
  </outline>
</glyph>
<glyph name="ae" format="2">
  <advance width="808.0500000000001"/>
  <unicode hex="00E6"/>
  <note>
ae
</note>
  <anchor x="367.52500000000003" y="0.0" name="bottom"/>
  <anchor x="441.52500000000003" y="557.0" name="top"/>
  <outline>
    <contour>
      <point x="182.95" y="-8.0" type="curve" smooth="yes"/>
      <point x="254.6" y="-8.0"/>
      <point x="309.25" y="50.275000000000006"/>
      <point x="348.25" y="128.25" type="curve"/>
      <point x="372.25" y="46.625"/>
      <point x="434.225" y="-8.0"/>
      <point x="532.825" y="-8.0" type="curve" smooth="yes"/>
      <point x="603.075" y="-8.0"/>
      <point x="709.975" y="50.95"/>
      <point x="740.3000000000001" y="93.60000000000001" type="curve"/>
      <point x="710.375" y="152.15" type="line"/>
      <point x="659.9250000000001" y="102.75000000000001"/>
      <point x="600.6750000000001" y="74.15"/>
      <point x="549.025" y="74.15" type="curve" smooth="yes"/>
      <point x="480.57500000000005" y="74.15"/>
      <point x="444.82500000000005" y="125.0"/>
      <point x="452.225" y="204.42499999999998" type="curve"/>
      <point x="608.7" y="219.9"/>
      <point x="775.025" y="298.65"/>
      <point x="775.025" y="441.025" type="curve" smooth="yes"/>
      <point x="775.025" y="504.52500000000003"/>
      <point x="728.75" y="564.0"/>
      <point x="633.15" y="564.0" type="curve" smooth="yes"/>
      <point x="583.5" y="564.0"/>
      <point x="538.175" y="552.0"/>
      <point x="497.175" y="527.65" type="curve"/>
      <point x="445.375" y="558.725"/>
      <point x="409.45" y="564.0"/>
      <point x="359.125" y="564.0" type="curve" smooth="yes"/>
      <point x="165.9" y="564.0"/>
      <point x="39.025" y="400.275"/>
      <point x="39.025" y="202.675" type="curve" smooth="yes"/>
      <point x="39.025" y="64.92500000000001"/>
      <point x="89.60000000000001" y="-8.0"/>
    </contour>
    <contour>
      <point x="211.45000000000002" y="74.775" type="curve" smooth="yes"/>
      <point x="160.025" y="74.775"/>
      <point x="150.675" y="140.95"/>
      <point x="150.675" y="214.35" type="curve" smooth="yes"/>
      <point x="150.675" y="344.725"/>
      <point x="216.4" y="489.8"/>
      <point x="344.45" y="489.8" type="curve" smooth="yes"/>
      <point x="371.825" y="489.8"/>
      <point x="399.55" y="482.775"/>
      <point x="426.95" y="468.05" type="curve"/>
      <point x="371.225" y="404.325"/>
      <point x="341.225" y="317.25"/>
      <point x="337.9" y="210.10000000000002" type="curve"/>
      <point x="296.8" y="124.97500000000002"/>
      <point x="253.47500000000002" y="74.775"/>
    </contour>
    <contour>
      <point x="453.57500000000005" y="275.0" type="curve"/>
      <point x="459.6" y="335.725"/>
      <point x="487.32500000000005" y="409.075"/>
      <point x="532.75" y="454.425" type="curve" smooth="yes"/>
      <point x="555.125" y="477.1"/>
      <point x="580.5" y="488.1"/>
      <point x="609.55" y="488.1" type="curve" smooth="yes"/>
      <point x="646.275" y="488.1"/>
      <point x="667.325" y="472.075"/>
      <point x="667.325" y="431.725" type="curve" smooth="yes"/>
      <point x="667.325" y="348.0"/>
      <point x="550.225" y="281.25"/>
    </contour>
  </outline>
</glyph>
<glyph name="eth" format="2">
  <advance width="579.275"/>
  <unicode hex="00F0"/>
  <note>
eth
</note>
  <outline>
    <contour>
      <point x="243.625" y="-8.0" type="curve" smooth="yes"/>
      <point x="366.575" y="-8.0"/>
      <point x="457.225" y="73.7"/>
      <point x="502.225" y="203.75" type="curve" smooth="yes"/>
      <point x="524.55" y="268.1"/>
      <point x="535.55" y="340.125"/>
      <point x="535.55" y="418.8" type="curve" smooth="yes"/>
      <point x="535.55" y="563.1"/>
      <point x="489.925" y="683.625"/>
      <point x="376.6" y="782.0" type="curve"/>
      <point x="367.225" y="735.375" type="line"/>
      <point x="461.9" y="841.375" type="line"/>
      <point x="412.275" y="887.325" type="line"/>
      <point x="323.0" y="784.725" type="line"/>
      <point x="365.6" y="792.0" type="line"/>
      <point x="316.625" y="828.975"/>
      <point x="239.175" y="859.95"/>
      <point x="194.925" y="872.6" type="curve"/>
      <point x="172.3" y="809.725" type="line"/>
      <point x="211.9" y="799.75"/>
      <point x="274.1" y="772.425"/>
      <point x="316.35" y="730.45" type="curve"/>
      <point x="313.6" y="770.325" type="line"/>
      <point x="215.25" y="668.95" type="line"/>
      <point x="268.875" y="624.0" type="line"/>
      <point x="361.25" y="728.4" type="line"/>
      <point x="322.025" y="725.475" type="line"/>
      <point x="392.85" y="665.075"/>
      <point x="420.825" y="606.3"/>
      <point x="433.2" y="514.525" type="curve"/>
      <point x="411.175" y="547.625"/>
      <point x="363.75" y="564.325"/>
      <point x="314.05" y="564.325" type="curve" smooth="yes"/>
      <point x="146.775" y="564.325"/>
      <point x="41.375" y="400.25"/>
      <point x="41.375" y="212.0" type="curve" smooth="yes"/>
      <point x="41.375" y="92.025"/>
      <point x="118.675" y="-8.0"/>
    </contour>
    <contour>
      <point x="257.625" y="64.55" type="curve" smooth="yes"/>
      <point x="193.825" y="64.55"/>
      <point x="157.375" y="127.875"/>
      <point x="157.375" y="210.375" type="curve" smooth="yes"/>
      <point x="157.375" y="302.075"/>
      <point x="180.425" y="394.75"/>
      <point x="227.175" y="450.75" type="curve" smooth="yes"/>
      <point x="250.55" y="478.075"/>
      <point x="278.6" y="492.075"/>
      <point x="313.0" y="492.075" type="curve" smooth="yes"/>
      <point x="379.825" y="492.075"/>
      <point x="427.225" y="431.9"/>
      <point x="427.225" y="387.475" type="curve"/>
      <point x="427.225" y="269.5"/>
      <point x="363.825" y="64.55"/>
    </contour>
  </outline>
</glyph>
<glyph name="divide" format="2">
  <advance width="657.875"/>
  <unicode hex="00F7"/>
  <note>
divide
</note>
  <outline>
    <contour>
      <point x="116.7" y="336.75" type="line"/>
      <point x="548.175" y="336.75" type="line"/>
      <point x="558.15" y="421.875" type="line"/>
      <point x="126.325" y="422.2" type="line"/>
    </contour>
    <contour>
      <point x="303.6" y="114.54999999999998" type="curve" smooth="yes"/>
      <point x="349.52500000000003" y="114.54999999999998"/>
      <point x="391.525" y="150.85"/>
      <point x="391.525" y="199.45" type="curve" smooth="yes"/>
      <point x="391.525" y="232.4"/>
      <point x="370.875" y="254.7"/>
      <point x="329.275" y="254.7" type="curve" smooth="yes"/>
      <point x="285.025" y="254.7"/>
      <point x="241.0" y="215.4"/>
      <point x="241.0" y="171.475" type="curve" smooth="yes"/>
      <point x="241.0" y="137.17499999999998"/>
      <point x="266.975" y="114.54999999999998"/>
    </contour>
    <contour>
      <point x="351.575" y="503.275" type="curve" smooth="yes"/>
      <point x="398.15000000000003" y="503.275"/>
      <point x="439.825" y="539.575"/>
      <point x="439.825" y="588.5" type="curve" smooth="yes"/>
      <point x="439.825" y="621.125"/>
      <point x="419.175" y="643.75"/>
      <point x="377.575" y="643.75" type="curve" smooth="yes"/>
      <point x="333.325" y="643.75"/>
      <point x="289.3" y="605.125"/>
      <point x="289.3" y="560.525" type="curve" smooth="yes"/>
      <point x="289.3" y="525.575"/>
      <point x="316.625" y="503.275"/>
    </contour>
  </outline>
</glyph>
<glyph name="oslash" format="2">
  <advance width="557.575"/>
  <unicode hex="00F8"/>
  <note>
oslash
</note>
  <anchor x="315.95" y="557.0" name="top"/>
  <outline>
    <contour>
      <point x="68.12500000000001" y="-64.0" type="line"/>
      <point x="127.875" y="21.749999999999996" type="line"/>
      <point x="156.225" y="2.6999999999999984"/>
      <point x="191.6" y="-7.0"/>
      <point x="234.0" y="-7.0" type="curve" smooth="yes"/>
      <point x="343.55" y="-7.0"/>
      <point x="431.85" y="62.35"/>
      <point x="479.85" y="167.025" type="curve" smooth="yes"/>
      <point x="502.85" y="218.7"/>
      <point x="514.85" y="274.025"/>
      <point x="514.85" y="333.35" type="curve" smooth="yes"/>
      <point x="514.85" y="416.0"/>
      <point x="494.55" y="478.625"/>
      <point x="454.95" y="517.95" type="curve"/>
      <point x="519.375" y="612.0" type="line"/>
      <point x="475.7" y="636.0" type="line"/>
      <point x="414.975" y="546.975" type="line"/>
      <point x="389.3" y="559.325"/>
      <point x="359.95" y="565.0"/>
      <point x="326.25" y="565.0" type="curve" smooth="yes"/>
      <point x="217.375" y="565.0"/>
      <point x="126.39999999999999" y="495.975"/>
      <point x="78.725" y="392.3" type="curve" smooth="yes"/>
      <point x="54.05" y="339.625"/>
      <point x="42.05" y="284.3"/>
      <point x="42.05" y="225.975" type="curve" smooth="yes"/>
      <point x="42.05" y="153.725"/>
      <point x="58.0" y="95.8"/>
      <point x="90.575" y="55.474999999999994" type="curve"/>
      <point x="25.12500000000001" y="-41.0" type="line"/>
    </contour>
    <contour>
      <point x="250.3" y="70.525" type="curve" smooth="yes"/>
      <point x="222.55" y="70.525"/>
      <point x="200.82500000000002" y="79.55000000000001"/>
      <point x="185.125" y="98.60000000000001" type="curve"/>
      <point x="389.425" y="429.525" type="line"/>
      <point x="398.475" y="406.475"/>
      <point x="402.5" y="374.4"/>
      <point x="402.5" y="333.3" type="curve" smooth="yes"/>
      <point x="402.5" y="248.95"/>
      <point x="379.8" y="161.9"/>
      <point x="334.4" y="109.875" type="curve" smooth="yes"/>
      <point x="310.7" y="83.525"/>
      <point x="283.0" y="70.525"/>
    </contour>
    <contour>
      <point x="160.775" y="151.9" type="line"/>
      <point x="155.75" y="172.3"/>
      <point x="153.07500000000002" y="196.025"/>
      <point x="153.07500000000002" y="223.1" type="curve" smooth="yes"/>
      <point x="152.75" y="306.125"/>
      <point x="177.8" y="395.8"/>
      <point x="224.525" y="448.8" type="curve" smooth="yes"/>
      <point x="248.225" y="475.8"/>
      <point x="275.925" y="488.8"/>
      <point x="309.3" y="488.8" type="curve" smooth="yes"/>
      <point x="329.0" y="488.8"/>
      <point x="345.7" y="483.8"/>
      <point x="359.4" y="474.125" type="curve"/>
    </contour>
  </outline>
</glyph>
<glyph name="thorn" format="2">
  <advance width="578.075"/>
  <unicode hex="00FE"/>
  <note>
thorn
</note>
  <outline>
    <contour>
      <point x="5.675" y="-250.05" type="line"/>
      <point x="111.67500000000001" y="-250.05" type="line"/>
      <point x="137.375" y="-66.65" type="line"/>
      <point x="146.4" y="-0.6500000000000004" type="line"/>
      <point x="171.75" y="-5.325"/>
      <point x="193.775" y="-8.0"/>
      <point x="213.47500000000002" y="-8.0" type="curve" smooth="yes"/>
      <point x="353.125" y="-8.0"/>
      <point x="452.075" y="74.375"/>
      <point x="499.05" y="186.375" type="curve" smooth="yes"/>
      <point x="522.7" y="241.375"/>
      <point x="534.025" y="297.7"/>
      <point x="534.025" y="354.0" type="curve" smooth="yes"/>
      <point x="534.025" y="483.7"/>
      <point x="483.35" y="564.0"/>
      <point x="380.75" y="564.0" type="curve" smooth="yes"/>
      <point x="309.1" y="564.0"/>
      <point x="246.425" y="518.075"/>
      <point x="204.70000000000002" y="459.825" type="curve"/>
      <point x="221.07500000000002" y="546.675" type="line"/>
      <point x="250.35000000000002" y="799.675" type="line"/>
      <point x="147.0" y="799.675" type="line"/>
      <point x="40.35" y="-6.6999999999999975" type="line"/>
    </contour>
    <contour>
      <point x="228.15" y="67.525" type="curve" smooth="yes"/>
      <point x="202.775" y="67.525"/>
      <point x="179.72500000000002" y="70.875"/>
      <point x="159.0" y="77.575" type="curve"/>
      <point x="195.425" y="351.825" type="line"/>
      <point x="229.25" y="409.575"/>
      <point x="296.525" y="482.84999999999997"/>
      <point x="356.6" y="482.84999999999997" type="curve" smooth="yes"/>
      <point x="406.425" y="482.84999999999997"/>
      <point x="422.05" y="421.275"/>
      <point x="422.05" y="342.325" type="curve" smooth="yes"/>
      <point x="422.05" y="258.65"/>
      <point x="392.675" y="166.6"/>
      <point x="334.95" y="110.22500000000001" type="curve" smooth="yes"/>
      <point x="305.25" y="81.875"/>
      <point x="269.875" y="67.525"/>
    </contour>
  </outline>
</glyph>
<glyph name="dcaron" format="2">
  <advance width="711.65"/>
  <unicode hex="010F"/>
  <note>
dcaron
</note>
  <anchor x="251.55" y="0.0" name="bottom"/>
  <anchor x="288.55" y="279.0" name="center"/>
  <anchor x="265.0" y="557.0" name="top"/>
  <anchor x="593.1" y="557.0" name="topright"/>
  <outline>
    <contour>
      <point x="665.9" y="492.925" type="line"/>
      <point x="702.2" y="543.95"/>
      <point x="726.1750000000001" y="631.575"/>
      <point x="726.1750000000001" y="699.175" type="curve" smooth="yes"/>
      <point x="726.1750000000001" y="750.875"/>
      <point x="722.2" y="784.875"/>
      <point x="711.2" y="807.925" type="curve"/>
      <point x="620.3000000000001" y="785.6" type="line"/>
      <point x="615.325" y="768.95" type="line"/>
      <point x="624.325" y="754.6"/>
      <point x="630.0" y="714.625"/>
      <point x="630.0" y="674.975" type="curve" smooth="yes"/>
      <point x="630.0" y="628.025"/>
      <point x="622.35" y="575.425"/>
      <point x="610.0" y="523.95" type="curve"/>
      <point x="613.0" y="511.625" type="line"/>
    </contour>
    <component base="d"/>
  </outline>
</glyph>
<glyph name="Hbar" format="2">
  <advance width="696.125"/>
  <unicode hex="0126"/>
  <note>
Hbar
</note>
  <outline>
    <contour>
      <point x="51.725" y="0.0" type="line"/>
      <point x="160.4" y="0.0" type="line"/>
      <point x="196.425" y="276.975" type="line"/>
      <point x="502.1" y="276.975" type="line"/>
      <point x="465.75" y="0.0" type="line"/>
      <point x="575.425" y="0.0" type="line"/>
      <point x="637.075" y="480.825" type="line"/>
      <point x="741.775" y="480.825" type="line"/>
      <point x="749.75" y="562.3" type="line"/>
      <point x="648.05" y="562.3" type="line"/>
      <point x="671.7" y="747.0" type="line"/>
      <point x="562.025" y="747.0" type="line"/>
      <point x="538.7" y="562.3" type="line"/>
      <point x="233.025" y="562.3" type="line"/>
      <point x="257.35" y="747.0" type="line"/>
      <point x="148.0" y="747.0" type="line"/>
      <point x="124.675" y="562.3" type="line"/>
      <point x="28.75" y="562.3" type="line"/>
      <point x="21.1" y="480.825" type="line"/>
      <point x="113.375" y="480.825" type="line"/>
    </contour>
    <contour>
      <point x="206.725" y="358.1" type="line"/>
      <point x="222.725" y="480.825" type="line"/>
      <point x="528.075" y="480.825" type="line"/>
      <point x="512.4" y="358.1" type="line"/>
    </contour>
  </outline>
</glyph>
<glyph name="idotless" format="2">
  <advance width="291.5"/>
  <unicode hex="0131"/>
  <note>
dotlessi
</note>
  <anchor x="109.25" y="0.0" name="bottom"/>
  <anchor x="187.85" y="10.0" name="ogonek"/>
  <anchor x="183.25" y="557.0" name="top"/>
  <outline>
    <contour>
      <point x="57.425" y="0.0" type="line"/>
      <point x="165.425" y="0.0" type="line"/>
      <point x="240.75" y="557.0" type="line"/>
      <point x="132.75" y="557.0" type="line"/>
    </contour>
  </outline>
</glyph>
<glyph name="kgreenlandic" format="2">
  <advance width="522.625"/>
  <unicode hex="0138"/>
  <note>
kgreenlandic
</note>
  <outline>
    <contour>
      <point x="374.225" y="0.0" type="line"/>
      <point x="496.90000000000003" y="0.0" type="line"/>
      <point x="323.15000000000003" y="293.625" type="line"/>
      <point x="416.52500000000003" y="340.95"/>
      <point x="518.325" y="455.35"/>
      <point x="528.0" y="563.025" type="curve"/>
      <point x="423.675" y="563.025" type="line"/>
      <point x="388.25" y="457.625"/>
      <point x="307.125" y="363.725"/>
      <point x="208.375" y="308.0" type="curve"/>
    </contour>
    <contour>
      <point x="40.35" y="0.0" type="line"/>
      <point x="148.35000000000002" y="0.0" type="line"/>
      <point x="224.35000000000002" y="563.025" type="line"/>
      <point x="116.35" y="563.025" type="line"/>
    </contour>
  </outline>
</glyph>
<glyph name="lcaron" format="2">
  <advance width="387.55"/>
  <unicode hex="013E"/>
  <note>
lcaron
</note>
  <anchor x="114.9" y="0.0" name="bottom"/>
  <anchor x="174.25" y="492.0" name="center"/>
  <anchor x="215.575" y="778.0" name="top"/>
  <anchor x="336.75" y="711.0" name="topright"/>
  <outline>
    <contour>
      <point x="394.075" y="490.325" type="line"/>
      <point x="430.375" y="541.35"/>
      <point x="454.35" y="628.975"/>
      <point x="454.35" y="696.575" type="curve"/>
      <point x="454.35" y="748.275"/>
      <point x="450.375" y="782.275"/>
      <point x="439.375" y="805.325" type="curve"/>
      <point x="348.475" y="783.0" type="line"/>
      <point x="343.5" y="766.35" type="line"/>
      <point x="352.5" y="752.0"/>
      <point x="358.175" y="712.025"/>
      <point x="358.175" y="672.375" type="curve" smooth="yes"/>
      <point x="358.175" y="625.425"/>
      <point x="350.525" y="572.825"/>
      <point x="338.175" y="521.35" type="curve"/>
      <point x="341.175" y="509.025" type="line"/>
    </contour>
    <component base="l"/>
  </outline>
</glyph>
<glyph name="Lslash" format="2">
  <advance width="485.8"/>
  <unicode hex="0141"/>
  <note>
Lslash
</note>
  <outline>
    <contour>
      <point x="51.724999999999994" y="0.0" type="line"/>
      <point x="432.55" y="0.0" type="line"/>
      <point x="445.175" y="92.42500000000001" type="line"/>
      <point x="172.70000000000002" y="89.775" type="line"/>
      <point x="202.375" y="319.975" type="line"/>
      <point x="408.975" y="404.35" type="line"/>
      <point x="390.35" y="471.55" type="line"/>
      <point x="212.35000000000002" y="397.15000000000003" type="line"/>
      <point x="257.35" y="747.325" type="line"/>
      <point x="148.0" y="747.325" type="line"/>
      <point x="96.35" y="349.575" type="line"/>
      <point x="-23.374999999999996" y="299.175" type="line"/>
      <point x="-3.7499999999999947" y="236.65" type="line"/>
      <point x="86.375" y="273.725" type="line"/>
    </contour>
  </outline>
</glyph>
<glyph name="lslash" format="2">
  <advance width="291.5"/>
  <unicode hex="0142"/>
  <note>
lslash
</note>
  <outline>
    <contour>
      <point x="57.75" y="1.675" type="line"/>
      <point x="165.75" y="1.675" type="line"/>
      <point x="227.1" y="450.8" type="line"/>
      <point x="313.425" y="484.45" type="line"/>
      <point x="313.425" y="561.0" type="line"/>
      <point x="238.425" y="530.0" type="line"/>
      <point x="274.425" y="799.675" type="line"/>
      <point x="166.425" y="799.675" type="line"/>
      <point x="123.1" y="483.15" type="line"/>
      <point x="35.525" y="447.175" type="line"/>
      <point x="35.525" y="375.3" type="line"/>
      <point x="113.125" y="406.275" type="line"/>
    </contour>
  </outline>
</glyph>
<glyph name="Eng" format="2">
  <advance width="739.675"/>
  <unicode hex="014A"/>
  <note>
Eng
</note>
  <outline>
    <contour>
      <point x="341.675" y="-161.8" type="line"/>
      <point x="454.45" y="-145.45000000000002"/>
      <point x="533.975" y="-92.625"/>
      <point x="569.725" y="0.0" type="curve" smooth="yes"/>
      <point x="667.35" y="747.0" type="line"/>
      <point x="563.325" y="747.0" type="line"/>
      <point x="505.275" y="267.20000000000005" type="line"/>
      <point x="496.6" y="144.55" type="line"/>
      <point x="464.625" y="250.12500000000003" type="line"/>
      <point x="256.8" y="747.0" type="line"/>
      <point x="148.0" y="747.0" type="line"/>
      <point x="51.724999999999994" y="0.0" type="line"/>
      <point x="154.07500000000002" y="0.0" type="line"/>
      <point x="215.10000000000002" y="479.025" type="line"/>
      <point x="225.82500000000002" y="622.4" type="line"/>
      <point x="255.4" y="505.825" type="line"/>
      <point x="463.3" y="13.3" type="line"/>
      <point x="441.9" y="-44.300000000000004"/>
      <point x="392.875" y="-91.975"/>
      <point x="322.725" y="-115.55000000000001" type="curve"/>
    </contour>
  </outline>
</glyph>
<glyph name="eng" format="2">
  <advance width="593.075"/>
  <unicode hex="014B"/>
  <note>
eng
</note>
  <outline>
    <contour>
      <point x="248.5" y="-253.65" type="curve" smooth="yes"/>
      <point x="374.55" y="-253.65"/>
      <point x="450.05" y="-166.675"/>
      <point x="475.375" y="0.0" type="curve" smooth="yes"/>
      <point x="496.075" y="134.6"/>
      <point x="511.375" y="237.35"/>
      <point x="520.35" y="303.45" type="curve" smooth="yes"/>
      <point x="528.375" y="359.575"/>
      <point x="532.0500000000001" y="400.3"/>
      <point x="532.0500000000001" y="422.025" type="curve" smooth="yes"/>
      <point x="532.0500000000001" y="523.0"/>
      <point x="494.425" y="564.0"/>
      <point x="418.825" y="564.0" type="curve" smooth="yes"/>
      <point x="343.8" y="564.0"/>
      <point x="266.075" y="516.625"/>
      <point x="208.675" y="447.95" type="curve"/>
      <point x="218.70000000000002" y="557.0" type="line"/>
      <point x="115.675" y="557.0" type="line"/>
      <point x="40.35" y="0.0" type="line"/>
      <point x="148.35000000000002" y="0.0" type="line"/>
      <point x="195.35000000000002" y="346.675" type="line"/>
      <point x="233.375" y="398.325"/>
      <point x="321.975" y="469.175"/>
      <point x="371.35" y="469.175" type="curve" smooth="yes"/>
      <point x="407.4" y="469.175"/>
      <point x="420.725" y="456.84999999999997"/>
      <point x="420.725" y="411.8" type="curve" smooth="yes"/>
      <point x="419.75" y="341.4"/>
      <point x="395.675" y="181.77500000000003"/>
      <point x="370.725" y="26.799999999999994" type="curve" smooth="yes"/>
      <point x="349.675" y="-105.425"/>
      <point x="314.925" y="-198.725"/>
      <point x="227.6" y="-198.725" type="curve" smooth="yes"/>
      <point x="219.6" y="-198.725"/>
      <point x="201.275" y="-196.4"/>
      <point x="193.275" y="-192.725" type="curve"/>
      <point x="175.95" y="-235.65" type="line"/>
      <point x="186.95" y="-247.65"/>
      <point x="215.875" y="-253.65"/>
    </contour>
  </outline>
</glyph>
<glyph name="OE" format="2">
  <advance width="1036.45"/>
  <unicode hex="0152"/>
  <note>
OE
</note>
  <outline>
    <contour>
      <point x="293.625" y="-8.0" type="curve" smooth="yes"/>
      <point x="395.325" y="-8.0"/>
      <point x="480.675" y="39.05"/>
      <point x="541.0" y="122.475" type="curve"/>
      <point x="525.325" y="0.0" type="line"/>
      <point x="972.475" y="0.0" type="line"/>
      <point x="981.1" y="90.10000000000001" type="line"/>
      <point x="644.625" y="82.75000000000001" type="line"/>
      <point x="679.0" y="342.775" type="line"/>
      <point x="893.375" y="335.425" type="line"/>
      <point x="901.0" y="425.2" type="line"/>
      <point x="688.625" y="422.2" type="line"/>
      <point x="720.0" y="664.25" type="line"/>
      <point x="1001.7" y="660.9" type="line"/>
      <point x="1007.975" y="747.0" type="line"/>
      <point x="621.275" y="747.0" type="line"/>
      <point x="603.925" y="611.825" type="line"/>
      <point x="567.3" y="700.925"/>
      <point x="498.325" y="755.0"/>
      <point x="397.65" y="755.0" type="curve" smooth="yes"/>
      <point x="265.4" y="755.0"/>
      <point x="154.42499999999998" y="670.7"/>
      <point x="94.425" y="534.075" type="curve" smooth="yes"/>
      <point x="64.425" y="465.425"/>
      <point x="49.425" y="389.1"/>
      <point x="49.425" y="305.45" type="curve" smooth="yes"/>
      <point x="49.425" y="188.4"/>
      <point x="85.725" y="89.7"/>
      <point x="159.35" y="34.35" type="curve" smooth="yes"/>
      <point x="196.0" y="6.0"/>
      <point x="240.65" y="-8.0"/>
    </contour>
    <contour>
      <point x="309.3" y="75.10000000000001" type="curve" smooth="yes"/>
      <point x="211.175" y="75.10000000000001"/>
      <point x="165.125" y="148.225"/>
      <point x="162.425" y="313.4" type="curve" smooth="yes"/>
      <point x="159.72500000000002" y="478.875"/>
      <point x="241.175" y="669.55"/>
      <point x="382.0" y="669.55" type="curve" smooth="yes"/>
      <point x="485.0" y="669.55"/>
      <point x="527.175" y="591.3"/>
      <point x="529.2" y="433.6" type="curve" smooth="yes"/>
      <point x="530.55" y="265.1"/>
      <point x="452.45" y="75.10000000000001"/>
    </contour>
  </outline>
</glyph>
<glyph name="tcaron" format="2">
  <advance width="369.8"/>
  <unicode hex="0165"/>
  <note>
tcaron
</note>
  <anchor x="147.9" y="0.0" name="bottom"/>
  <anchor x="184.9" y="279.0" name="center"/>
  <anchor x="218.47500000000002" y="655.275" name="top"/>
  <anchor x="386.8" y="557.0" name="topright"/>
  <outline>
    <contour>
      <point x="382.975" y="608.325" type="line"/>
      <point x="419.27500000000003" y="659.35"/>
      <point x="443.25" y="746.975"/>
      <point x="443.25" y="814.575" type="curve"/>
      <point x="443.25" y="866.275"/>
      <point x="439.27500000000003" y="900.275"/>
      <point x="428.27500000000003" y="923.325" type="curve"/>
      <point x="337.375" y="901.0" type="line"/>
      <point x="332.40000000000003" y="884.35" type="line"/>
      <point x="341.40000000000003" y="870.0"/>
      <point x="347.075" y="830.025"/>
      <point x="347.075" y="790.375" type="curve" smooth="yes"/>
      <point x="347.075" y="743.425"/>
      <point x="339.425" y="690.825"/>
      <point x="327.075" y="639.35" type="curve"/>
      <point x="330.075" y="627.025" type="line"/>
    </contour>
    <component base="t"/>
  </outline>
</glyph>
<glyph name="Tbar" format="2">
  <advance width="551.575"/>
  <unicode hex="0166"/>
  <note>
Tbar
</note>
  <outline>
    <contour>
      <point x="181.775" y="0.0" type="line"/>
      <point x="291.45" y="0.0" type="line"/>
      <point x="335.77500000000003" y="346.175" type="line"/>
      <point x="466.825" y="346.175" type="line"/>
      <point x="475.8" y="418.6" type="line"/>
      <point x="345.075" y="418.6" type="line"/>
      <point x="377.1" y="666.575" type="line"/>
      <point x="576.575" y="660.9" type="line"/>
      <point x="588.2" y="747.0" type="line"/>
      <point x="77.25" y="747.0" type="line"/>
      <point x="64.625" y="660.9" type="line"/>
      <point x="267.425" y="666.575" type="line"/>
      <point x="236.075" y="418.6" type="line"/>
      <point x="107.0" y="418.6" type="line"/>
      <point x="98.025" y="346.175" type="line"/>
      <point x="225.775" y="346.175" type="line"/>
    </contour>
  </outline>
</glyph>
<glyph name="tbar" format="2">
  <advance width="369.8"/>
  <unicode hex="0167"/>
  <note>
tbar
</note>
  <anchor x="147.9" y="0.0" name="bottom"/>
  <anchor x="184.9" y="279.0" name="center"/>
  <anchor x="218.47500000000002" y="655.275" name="top"/>
  <anchor x="386.8" y="557.0" name="topright"/>
  <outline>
    <contour>
      <point x="340.55" y="364.45" type="line"/>
      <point x="45.325" y="364.45" type="line"/>
      <point x="34.300000000000004" y="289.25" type="line"/>
      <point x="329.52500000000003" y="289.25" type="line"/>
    </contour>
    <component base="t"/>
  </outline>
</glyph>
<glyph name="florin" format="2">
  <advance width="517.0"/>
  <unicode hex="0192"/>
  <note>
florin
</note>
  <outline>
    <contour>
      <point x="108.475" y="-174.0" type="line"/>
      <point x="217.175" y="-174.0" type="line"/>
      <point x="301.85" y="476.125" type="line"/>
      <point x="431.025" y="476.125" type="line"/>
      <point x="438.675" y="557.0" type="line"/>
      <point x="312.5" y="557.0" type="line"/>
      <point x="323.15" y="629.975" type="line" smooth="yes"/>
      <point x="334.825" y="711.8"/>
      <point x="362.525" y="737.8"/>
      <point x="421.275" y="737.8" type="curve" smooth="yes"/>
      <point x="458.35" y="737.8"/>
      <point x="474.35" y="729.825"/>
      <point x="490.7" y="721.5" type="curve"/>
      <point x="499.925" y="809.7" type="line"/>
      <point x="484.275" y="814.0"/>
      <point x="450.525" y="818.35"/>
      <point x="422.3" y="818.35" type="curve" smooth="yes"/>
      <point x="313.75" y="818.35"/>
      <point x="234.075" y="742.75"/>
      <point x="212.45" y="601.975" type="curve" smooth="yes"/>
      <point x="205.475" y="557.0" type="line"/>
      <point x="100.675" y="532.625" type="line"/>
      <point x="93.025" y="476.125" type="line"/>
      <point x="194.825" y="476.125" type="line"/>
    </contour>
  </outline>
</glyph>
<glyph name="Ohorn" format="2">
  <advance width="674.3"/>
  <unicode hex="01A0"/>
  <anchor x="379.0" y="747.0" name="top"/>
  <anchor x="300.65" y="0.0" name="bottom"/>
  <anchor x="350.65" y="374.325" name="center"/>
  <anchor x="407.25" y="10.0" name="ogonek"/>
  <anchor x="82.0" y="747.975" name="topleft"/>
  <anchor x="716.3" y="747.975" name="topright"/>
  <outline>
    <contour>
      <point x="468.85" y="660.2" type="line"/>
      <point x="612.5" y="660.2"/>
      <point x="708.375" y="727.95"/>
      <point x="708.375" y="851.4" type="curve" smooth="yes"/>
      <point x="708.375" y="858.4"/>
      <point x="707.375" y="865.4"/>
      <point x="706.375" y="873.4" type="curve"/>
      <point x="621.175" y="873.4" type="line"/>
      <point x="622.175" y="869.4"/>
      <point x="620.175" y="863.4"/>
      <point x="620.175" y="856.4" type="curve" smooth="yes"/>
      <point x="620.175" y="792.0"/>
      <point x="598.4" y="733.05"/>
      <point x="478.85" y="733.05" type="curve"/>
    </contour>
    <component base="O"/>
  </outline>
</glyph>
<glyph name="Ezh" format="2">
  <advance width="513.65"/>
  <unicode hex="01B7"/>
  <anchor x="332.04999999999995" y="747.0" name="top"/>
  <outline>
    <contour>
      <point x="119.4" y="-7.0" type="curve" smooth="yes"/>
      <point x="342.325" y="-7.0"/>
      <point x="466.65" y="94.0"/>
      <point x="466.65" y="245.0" type="curve" smooth="yes"/>
      <point x="466.65" y="322.0"/>
      <point x="423.0" y="408.95"/>
      <point x="290.325" y="424.0" type="curve"/>
      <point x="513.7" y="642.925" type="line"/>
      <point x="530.325" y="748.0" type="line"/>
      <point x="97.325" y="747.0" type="line"/>
      <point x="86.375" y="660.9" type="line"/>
      <point x="416.67499999999995" y="667.575" type="line"/>
      <point x="329.325" y="579.45" type="line"/>
      <point x="176.075" y="424.45" type="line"/>
      <point x="166.075" y="338.0" type="line"/>
      <point x="216.54999999999998" y="366.4" type="line"/>
      <point x="290.97499999999997" y="369.075"/>
      <point x="365.625" y="330.7"/>
      <point x="365.625" y="241.275" type="curve" smooth="yes"/>
      <point x="365.625" y="139.72500000000002"/>
      <point x="260.075" y="75.82500000000002"/>
      <point x="121.14999999999999" y="75.82500000000002" type="curve" smooth="yes"/>
      <point x="94.07499999999999" y="75.82500000000002"/>
      <point x="58.625" y="78.5"/>
      <point x="30.625000000000004" y="81.5" type="curve"/>
      <point x="21.325000000000003" y="-1.0" type="line"/>
      <point x="56.325" y="-4.0"/>
      <point x="86.325" y="-7.0"/>
    </contour>
  </outline>
</glyph>
<glyph name="jdotless" format="2">
  <advance width="289.825"/>
  <unicode hex="0237"/>
  <note>
uni0237
</note>
  <anchor x="72.25" y="-273.0" name="bottom"/>
  <anchor x="182.25" y="557.0" name="top"/>
  <outline>
    <contour>
      <point x="-46.675" y="-251.975" type="curve" smooth="yes"/>
      <point x="73.22500000000001" y="-251.975"/>
      <point x="145.75" y="-138.95"/>
      <point x="164.75" y="1.6749999999999996" type="curve" smooth="yes"/>
      <point x="240.07500000000002" y="557.0" type="line"/>
      <point x="131.75" y="557.0" type="line"/>
      <point x="60.75" y="33.675" type="line" smooth="yes"/>
      <point x="45.099999999999994" y="-79.65"/>
      <point x="24.724999999999998" y="-180.45"/>
      <point x="-62.625" y="-180.45" type="curve" smooth="yes"/>
      <point x="-69.625" y="-180.45"/>
      <point x="-82.65" y="-177.775"/>
      <point x="-87.65" y="-174.1" type="curve"/>
      <point x="-115.575" y="-233.625" type="line"/>
      <point x="-98.55000000000001" y="-245.975"/>
      <point x="-74.275" y="-251.975"/>
    </contour>
  </outline>
</glyph>
<glyph name="ezh" format="2">
  <advance width="452.625"/>
  <unicode hex="0292"/>
  <anchor x="179.65" y="0.0" name="bottom"/>
  <anchor x="216.65" y="279.0" name="center"/>
  <anchor x="260.6" y="557.0" name="top"/>
  <outline>
    <contour>
      <point x="95.0" y="-147.0" type="curve" smooth="yes"/>
      <point x="287.3" y="-147.0"/>
      <point x="407.825" y="-54.925000000000004"/>
      <point x="410.5" y="96.0" type="curve" smooth="yes"/>
      <point x="412.175" y="170.05"/>
      <point x="349.2" y="247.75"/>
      <point x="244.20000000000002" y="247.75" type="curve"/>
      <point x="455.2" y="524.9" type="line"/>
      <point x="435.2" y="557.0" type="line"/>
      <point x="71.77499999999999" y="557.0" type="line"/>
      <point x="58.449999999999996" y="471.55" type="line"/>
      <point x="316.625" y="471.55" type="line"/>
      <point x="259.25" y="419.2" type="line"/>
      <point x="114.375" y="230.975" type="line"/>
      <point x="156.0" y="180.0" type="line"/>
      <point x="239.0" y="180.0"/>
      <point x="288.5" y="153.575"/>
      <point x="287.525" y="90.0" type="curve"/>
      <point x="287.525" y="-8.774999999999995"/>
      <point x="211.85000000000002" y="-66.57499999999999"/>
      <point x="88.0" y="-66.57499999999999" type="curve" smooth="yes"/>
      <point x="55.0" y="-66.57499999999999"/>
      <point x="34.300000000000004" y="-63.89999999999999"/>
      <point x="6.300000000000002" y="-58.89999999999999" type="curve"/>
      <point x="-5.0" y="-143.0" type="line"/>
      <point x="28.0" y="-144.0"/>
      <point x="60.0" y="-147.0"/>
    </contour>
  </outline>
</glyph>
<glyph name="commaturnedmod" format="2">
  <unicode hex="02BB"/>
  <anchor x="38.0" y="557.0" name="_top"/>
  <anchor x="66.0" y="780.0" name="top"/>
  <outline>
    <contour>
      <point x="66.95" y="895.975" type="line"/>
      <point x="6.150000000000011" y="858.4250000000001"/>
      <point x="-12.600000000000003" y="807.4250000000001"/>
      <point x="-12.600000000000003" y="754.025" type="curve" smooth="yes"/>
      <point x="-12.600000000000003" y="708.1"/>
      <point x="10.925000000000004" y="670.725"/>
      <point x="48.275000000000006" y="644.625" type="curve"/>
      <point x="112.95" y="686.95" type="line"/>
      <point x="116.95" y="720.625" type="line"/>
      <point x="96.275" y="724.3"/>
      <point x="79.60000000000001" y="754.025"/>
      <point x="79.60000000000001" y="785.675" type="curve" smooth="yes"/>
      <point x="79.60000000000001" y="810.275"/>
      <point x="84.92500000000001" y="832.95"/>
      <point x="109.60000000000001" y="851.65" type="curve"/>
      <point x="111.60000000000001" y="865.325" type="line"/>
    </contour>
  </outline>
</glyph>
<glyph name="apostrophemod" format="2">
  <unicode hex="02BC"/>
  <anchor x="38.0" y="557.0" name="_top"/>
  <anchor x="66.0" y="780.0" name="top"/>
  <outline>
    <contour>
      <point x="37.4" y="644.625" type="line"/>
      <point x="98.2" y="682.175"/>
      <point x="116.95" y="733.175"/>
      <point x="116.95" y="786.575" type="curve" smooth="yes"/>
      <point x="116.95" y="832.5"/>
      <point x="93.425" y="869.875"/>
      <point x="56.075" y="895.975" type="curve"/>
      <point x="-8.6" y="853.65" type="line"/>
      <point x="-12.6" y="819.975" type="line"/>
      <point x="8.075" y="816.3"/>
      <point x="24.75" y="786.575"/>
      <point x="24.75" y="754.925" type="curve" smooth="yes"/>
      <point x="24.75" y="730.325"/>
      <point x="19.425" y="707.65"/>
      <point x="-5.25" y="688.95" type="curve"/>
      <point x="-7.25" y="675.275" type="line"/>
    </contour>
  </outline>
</glyph>
<glyph name="ringhalfright" format="2">
  <unicode hex="02BE"/>
  <anchor x="38.0" y="557.0" name="_top"/>
  <anchor x="66.0" y="780.0" name="top"/>
  <outline>
    <contour>
      <point x="0.0" y="646.05" type="line"/>
      <point x="98.95" y="646.05"/>
      <point x="161.25" y="699.075"/>
      <point x="160.25" y="785.0" type="curve" smooth="yes"/>
      <point x="159.25" y="879.95"/>
      <point x="78.3" y="917.275"/>
      <point x="0.0" y="917.275" type="curve"/>
      <point x="0.0" y="853.025" type="line"/>
      <point x="47.074999999999996" y="853.025"/>
      <point x="80.025" y="832.3"/>
      <point x="80.025" y="785.0" type="curve" smooth="yes"/>
      <point x="80.025" y="732.525"/>
      <point x="55.449999999999996" y="712.275"/>
      <point x="0.0" y="711.95" type="curve"/>
    </contour>
  </outline>
</glyph>
<glyph name="ringhalfleft" format="2">
  <unicode hex="02BF"/>
  <anchor x="38.0" y="557.0" name="_top"/>
  <anchor x="66.0" y="780.0" name="top"/>
  <outline>
    <contour>
      <point x="0.0" y="646.05" type="curve"/>
      <point x="0.0" y="711.95" type="line"/>
      <point x="-55.449999999999996" y="712.275"/>
      <point x="-80.025" y="732.525"/>
      <point x="-80.025" y="785.0" type="curve" smooth="yes"/>
      <point x="-80.025" y="832.3"/>
      <point x="-47.074999999999996" y="853.025"/>
      <point x="0.0" y="853.025" type="curve"/>
      <point x="0.0" y="917.275" type="line"/>
      <point x="-78.3" y="917.275"/>
      <point x="-159.25" y="879.95"/>
      <point x="-160.25" y="785.0" type="curve" smooth="yes"/>
      <point x="-161.25" y="699.075"/>
      <point x="-98.95" y="646.05"/>
    </contour>
  </outline>
</glyph>
<glyph name="circumflex" format="2">
  <advance width="388.65"/>
  <unicode hex="02C6"/>
  <note>
circumflex
</note>
  <outline>
    <contour>
      <point x="78.4" y="601.1" type="line"/>
      <point x="229.45" y="726.3" type="line"/>
      <point x="330.175" y="604.45" type="line"/>
      <point x="380.725" y="638.125" type="line"/>
      <point x="286.1" y="820.45" type="line"/>
      <point x="199.1" y="820.45" type="line"/>
      <point x="35.85" y="638.125" type="line"/>
    </contour>
  </outline>
</glyph>
<glyph name="caron" format="2">
  <advance width="388.65"/>
  <unicode hex="02C7"/>
  <note>
caron
</note>
  <outline>
    <contour>
      <point x="149.55" y="620.175" type="line"/>
      <point x="235.875" y="620.175" type="line"/>
      <point x="393.425" y="776.375" type="line"/>
      <point x="348.225" y="817.075" type="line"/>
      <point x="199.15" y="702.3" type="line"/>
      <point x="79.075" y="817.075" type="line"/>
      <point x="33.15" y="775.375" type="line"/>
    </contour>
  </outline>
</glyph>
<glyph name="secondtonechinese" format="2">
  <unicode hex="02CA"/>
  <anchor x="38.0" y="557.0" name="_top"/>
  <anchor x="66.0" y="780.0" name="top"/>
  <outline>
    <contour>
      <point x="-3.1499999999999915" y="625.175" type="line"/>
      <point x="33.15000000000001" y="640.15"/>
      <point x="161.8" y="753.275"/>
      <point x="187.425" y="802.725" type="curve"/>
      <point x="101.325" y="874.9" type="line"/>
      <point x="53.675" y="802.675"/>
      <point x="-8.325" y="734.725"/>
      <point x="-64.0" y="676.65" type="curve"/>
    </contour>
  </outline>
</glyph>
<glyph name="breve" format="2">
  <advance width="350.65"/>
  <unicode hex="02D8"/>
  <note>
breve
</note>
  <outline>
    <contour>
      <point x="170.975" y="635.0" type="curve" smooth="yes"/>
      <point x="266.225" y="635.0"/>
      <point x="338.25" y="716.025"/>
      <point x="338.25" y="808.275" type="curve"/>
      <point x="270.025" y="808.275" type="line"/>
      <point x="256.7" y="753.175"/>
      <point x="234.975" y="712.525"/>
      <point x="174.95" y="712.525" type="curve" smooth="yes"/>
      <point x="120.375" y="712.525"/>
      <point x="99.625" y="744.175"/>
      <point x="94.22500000000001" y="808.275" type="curve"/>
      <point x="24.0" y="808.275" type="line"/>
      <point x="7.049999999999997" y="716.325"/>
      <point x="71.425" y="635.0"/>
    </contour>
  </outline>
</glyph>
<glyph name="dotaccent" format="2">
  <advance width="189.325"/>
  <unicode hex="02D9"/>
  <note>
dotaccent
</note>
  <outline>
    <contour>
      <point x="84.675" y="665.4" type="curve" smooth="yes"/>
      <point x="128.225" y="665.4"/>
      <point x="164.875" y="701.725"/>
      <point x="164.875" y="743.625" type="curve" smooth="yes"/>
      <point x="164.875" y="776.575"/>
      <point x="137.6" y="801.525"/>
      <point x="100.65" y="801.525" type="curve" smooth="yes"/>
      <point x="60.075" y="801.525"/>
      <point x="24.45" y="765.225"/>
      <point x="24.45" y="724.975" type="curve" smooth="yes"/>
      <point x="24.45" y="692.025"/>
      <point x="53.075" y="665.4"/>
    </contour>
  </outline>
</glyph>
<glyph name="ring" format="2">
  <advance width="353.325"/>
  <unicode hex="02DA"/>
  <note>
ring
</note>
  <outline>
    <contour>
      <point x="184.7" y="612.0" type="curve" smooth="yes"/>
      <point x="244.35" y="612.0"/>
      <point x="298.65" y="631.65"/>
      <point x="329.625" y="672.625" type="curve" smooth="yes"/>
      <point x="344.95" y="692.275"/>
      <point x="352.275" y="716.925"/>
      <point x="352.275" y="746.575" type="curve" smooth="yes"/>
      <point x="352.275" y="826.25"/>
      <point x="299.3" y="873.3"/>
      <point x="215.0" y="873.3" type="curve" smooth="yes"/>
      <point x="159.0" y="873.3"/>
      <point x="101.7" y="853.275"/>
      <point x="67.725" y="812.3" type="curve" smooth="yes"/>
      <point x="50.4" y="791.65"/>
      <point x="42.074999999999996" y="766.675"/>
      <point x="42.074999999999996" y="736.7" type="curve" smooth="yes"/>
      <point x="42.074999999999996" y="657.675"/>
      <point x="94.725" y="612.0"/>
    </contour>
    <contour>
      <point x="188.0" y="666.925" type="curve" smooth="yes"/>
      <point x="148.3" y="666.925"/>
      <point x="114.3" y="697.275"/>
      <point x="114.3" y="736.3" type="curve" smooth="yes"/>
      <point x="114.3" y="794.675"/>
      <point x="155.65" y="818.025"/>
      <point x="206.675" y="818.025" type="curve" smooth="yes"/>
      <point x="249.05" y="818.025"/>
      <point x="278.375" y="790.025"/>
      <point x="278.375" y="751.0" type="curve" smooth="yes"/>
      <point x="278.375" y="688.875"/>
      <point x="245.325" y="666.925"/>
    </contour>
  </outline>
</glyph>
<glyph name="ogonek" format="2">
  <advance width="251.0"/>
  <unicode hex="02DB"/>
  <note>
ogonek
</note>
  <outline>
    <contour>
      <point x="97.7" y="-215.9" type="curve" smooth="yes"/>
      <point x="151.3" y="-215.9"/>
      <point x="195.225" y="-192.625"/>
      <point x="225.825" y="-165.7" type="curve"/>
      <point x="201.8" y="-115.725" type="line"/>
      <point x="175.825" y="-133.7"/>
      <point x="157.825" y="-140.0"/>
      <point x="136.175" y="-140.0" type="curve" smooth="yes"/>
      <point x="119.875" y="-140.0"/>
      <point x="105.525" y="-131.675"/>
      <point x="105.525" y="-107.35" type="curve" smooth="yes"/>
      <point x="105.525" y="-75.35"/>
      <point x="148.8" y="-40.075"/>
      <point x="210.1" y="2.925" type="curve"/>
      <point x="175.55" y="29.0" type="line"/>
      <point x="131.825" y="3.575" type="line" smooth="yes"/>
      <point x="65.2" y="-32.6"/>
      <point x="3.375" y="-79.55"/>
      <point x="3.375" y="-139.275" type="curve" smooth="yes"/>
      <point x="3.375" y="-180.9"/>
      <point x="40.375" y="-215.9"/>
    </contour>
  </outline>
</glyph>
<glyph name="tilde" format="2">
  <advance width="389.5"/>
  <unicode hex="02DC"/>
  <note>
tilde
</note>
  <anchor x="230.6" y="557.0" name="_top"/>
  <anchor x="257.275" y="761.125" name="top"/>
  <outline>
    <contour>
      <point x="319.9" y="632.075" type="curve" smooth="yes"/>
      <point x="368.925" y="632.075"/>
      <point x="412.15000000000003" y="674.675"/>
      <point x="428.175" y="724.025" type="curve"/>
      <point x="388.55" y="771.575" type="line"/>
      <point x="371.475" y="738.725"/>
      <point x="351.5" y="717.9"/>
      <point x="323.25" y="717.9" type="curve" smooth="yes"/>
      <point x="307.6" y="717.9"/>
      <point x="294.925" y="724.875"/>
      <point x="276.925" y="744.2" type="curve" smooth="yes"/>
      <point x="253.225" y="769.9"/>
      <point x="219.57500000000002" y="787.55"/>
      <point x="188.55" y="787.55" type="curve" smooth="yes"/>
      <point x="143.9" y="787.55"/>
      <point x="95.325" y="745.25"/>
      <point x="75.65" y="702.6" type="curve"/>
      <point x="115.625" y="657.375" type="line"/>
      <point x="135.625" y="688.475"/>
      <point x="152.625" y="702.05"/>
      <point x="176.925" y="702.05" type="curve" smooth="yes"/>
      <point x="196.9" y="702.05"/>
      <point x="209.925" y="692.05"/>
      <point x="228.9" y="672.05" type="curve" smooth="yes"/>
      <point x="250.55" y="648.7"/>
      <point x="283.25" y="632.075"/>
    </contour>
  </outline>
</glyph>
<glyph name="hungarumlaut" format="2">
  <advance width="448.65"/>
  <unicode hex="02DD"/>
  <note>
hungarumlaut
</note>
  <outline>
    <contour>
      <point x="302.40000000000003" y="614.825" type="line"/>
      <point x="345.75" y="635.175"/>
      <point x="433.57500000000005" y="743.475"/>
      <point x="452.625" y="789.425" type="curve"/>
      <point x="376.425" y="849.375" type="line"/>
      <point x="253.8" y="643.1" type="line"/>
    </contour>
    <contour>
      <point x="90.5" y="614.825" type="line"/>
      <point x="134.82500000000002" y="639.85"/>
      <point x="214.72500000000002" y="741.15"/>
      <point x="234.75" y="790.075" type="curve"/>
      <point x="158.875" y="849.375" type="line"/>
      <point x="41.275000000000006" y="643.1" type="line"/>
    </contour>
  </outline>
</glyph>
<glyph name="gravecomb" format="2">
  <unicode hex="0300"/>
  <note>
grave
</note>
  <anchor x="37.0" y="557.0" name="_top"/>
  <anchor x="67.0" y="788.0" name="top"/>
  <outline>
    <contour>
      <point x="94.4" y="650.4" type="curve"/>
      <point x="138.65" y="686.675" type="line"/>
      <point x="-5.925" y="886.575" type="line"/>
      <point x="-84.8" y="814.375" type="line"/>
      <point x="-60.8" y="772.05"/>
      <point x="48.05" y="668.75"/>
    </contour>
  </outline>
</glyph>
<glyph name="acutecomb" format="2">
  <unicode hex="0301"/>
  <note>
acute
</note>
  <anchor x="57.25" y="557.0" name="_top"/>
  <anchor x="8.175" y="724.725" name="top"/>
  <outline>
    <contour>
      <point x="37.925" y="650.4" type="line"/>
      <point x="85.575" y="667.4"/>
      <point x="202.85" y="771.025"/>
      <point x="225.85" y="814.375" type="curve"/>
      <point x="147.3" y="886.575" type="line"/>
      <point x="-5.325" y="686.675" type="line"/>
    </contour>
  </outline>
</glyph>
<glyph name="tildecomb" format="2">
  <unicode hex="0303"/>
  <note>
tilde
</note>
  <anchor x="37.0" y="557.0" name="_top"/>
  <anchor x="58.975" y="744.375" name="top"/>
  <outline>
    <contour>
      <point x="126.3" y="632.075" type="curve" smooth="yes"/>
      <point x="175.325" y="632.075"/>
      <point x="218.55" y="674.675"/>
      <point x="234.575" y="724.025" type="curve"/>
      <point x="194.95" y="771.575" type="line"/>
      <point x="177.875" y="738.725"/>
      <point x="157.9" y="717.9"/>
      <point x="129.65" y="717.9" type="curve" smooth="yes"/>
      <point x="114.0" y="717.9"/>
      <point x="101.325" y="724.875"/>
      <point x="83.325" y="744.2" type="curve" smooth="yes"/>
      <point x="59.625" y="769.9"/>
      <point x="25.975" y="787.55"/>
      <point x="-5.05" y="787.55" type="curve" smooth="yes"/>
      <point x="-49.7" y="787.55"/>
      <point x="-98.275" y="745.25"/>
      <point x="-117.95" y="702.6" type="curve"/>
      <point x="-77.975" y="657.375" type="line"/>
      <point x="-57.975" y="688.475"/>
      <point x="-40.975" y="702.05"/>
      <point x="-16.675" y="702.05" type="curve" smooth="yes"/>
      <point x="3.3" y="702.05"/>
      <point x="16.325" y="692.05"/>
      <point x="35.3" y="672.05" type="curve" smooth="yes"/>
      <point x="56.95" y="648.7"/>
      <point x="89.65" y="632.075"/>
    </contour>
  </outline>
</glyph>
<glyph name="macroncomb" format="2">
  <unicode hex="0304"/>
  <note>
macron
</note>
  <anchor x="37.0" y="557.0" name="_top"/>
  <anchor x="58.0" y="711.575" name="top"/>
  <outline>
    <contour>
      <point x="-73.60000000000001" y="655.05" type="line"/>
      <point x="179.925" y="655.05" type="line"/>
      <point x="188.25" y="732.6" type="line"/>
      <point x="-65.95" y="732.6" type="line"/>
    </contour>
  </outline>
</glyph>
<glyph name="brevecomb" format="2">
  <unicode hex="0306"/>
  <note>
breve
</note>
  <anchor x="37.0" y="557.0" name="_top"/>
  <anchor x="67.0" y="788.0" name="top"/>
  <outline>
    <contour>
      <point x="47.625" y="631.325" type="curve" smooth="yes"/>
      <point x="143.55" y="631.325"/>
      <point x="214.9" y="711.675"/>
      <point x="214.9" y="804.6" type="curve"/>
      <point x="146.675" y="804.6" type="line"/>
      <point x="131.325" y="749.5"/>
      <point x="111.625" y="708.85"/>
      <point x="51.6" y="708.85" type="curve" smooth="yes"/>
      <point x="-1.0" y="708.85"/>
      <point x="-22.375" y="739.875"/>
      <point x="-29.124999999999993" y="804.6" type="curve"/>
      <point x="-99.35" y="804.6" type="line"/>
      <point x="-106.17500000000001" y="703.875"/>
      <point x="-52.25" y="631.325"/>
    </contour>
  </outline>
</glyph>
<glyph name="dotaccentcomb" format="2">
  <unicode hex="0307"/>
  <note>
dotaccent
</note>
  <anchor x="37.0" y="557.0" name="_top"/>
  <anchor x="63.65" y="768.675" name="top"/>
  <outline>
    <contour>
      <point x="51.025" y="665.4" type="curve" smooth="yes"/>
      <point x="94.575" y="665.4"/>
      <point x="131.225" y="701.725"/>
      <point x="131.225" y="743.625" type="curve" smooth="yes"/>
      <point x="131.225" y="776.575"/>
      <point x="103.95" y="801.525"/>
      <point x="67.0" y="801.525" type="curve" smooth="yes"/>
      <point x="26.424999999999997" y="801.525"/>
      <point x="-9.875000000000007" y="765.225"/>
      <point x="-9.875000000000007" y="724.975" type="curve" smooth="yes"/>
      <point x="-9.875000000000007" y="692.025"/>
      <point x="19.424999999999997" y="665.4"/>
    </contour>
  </outline>
</glyph>
<glyph name="dieresiscomb" format="2">
  <unicode hex="0308"/>
  <note>
dieresis
</note>
  <anchor x="37.0" y="557.0" name="_top"/>
  <anchor x="62.325" y="751.3" name="top"/>
  <outline>
    <contour>
      <point x="-59.0" y="659.375" type="curve" smooth="yes"/>
      <point x="-10.350000000000001" y="659.375"/>
      <point x="18.6" y="694.0"/>
      <point x="18.6" y="735.575" type="curve" smooth="yes"/>
      <point x="18.6" y="768.2"/>
      <point x="-7.699999999999999" y="795.175"/>
      <point x="-44.0" y="795.175" type="curve" smooth="yes"/>
      <point x="-83.60000000000001" y="795.175"/>
      <point x="-117.92500000000001" y="764.95"/>
      <point x="-117.92500000000001" y="718.95" type="curve" smooth="yes"/>
      <point x="-117.92500000000001" y="686.975"/>
      <point x="-89.625" y="659.375"/>
    </contour>
    <contour>
      <point x="157.0" y="659.375" type="curve" smooth="yes"/>
      <point x="205.975" y="659.375"/>
      <point x="234.925" y="694.0"/>
      <point x="234.925" y="735.575" type="curve" smooth="yes"/>
      <point x="234.925" y="768.2"/>
      <point x="208.625" y="795.175"/>
      <point x="172.325" y="795.175" type="curve" smooth="yes"/>
      <point x="132.725" y="795.175"/>
      <point x="98.39999999999999" y="764.95"/>
      <point x="98.39999999999999" y="718.95" type="curve" smooth="yes"/>
      <point x="98.39999999999999" y="686.975"/>
      <point x="126.375" y="659.375"/>
    </contour>
  </outline>
</glyph>
<glyph name="hookabovecomb" format="2">
  <unicode hex="0309"/>
  <anchor x="37.0" y="557.0" name="_top"/>
  <anchor x="67.0" y="788.0" name="top"/>
  <outline>
    <contour>
      <point x="24.774999999999995" y="652.325" type="curve"/>
      <point x="78.95" y="652.325" type="line"/>
      <point x="74.275" y="678.625"/>
      <point x="87.975" y="705.3"/>
      <point x="100.875" y="714.9" type="curve" smooth="yes"/>
      <point x="129.925" y="736.95"/>
      <point x="167.625" y="757.475"/>
      <point x="173.975" y="809.25" type="curve" smooth="yes"/>
      <point x="180.65" y="865.625"/>
      <point x="136.975" y="902.925"/>
      <point x="62.874999999999986" y="902.925" type="curve" smooth="yes"/>
      <point x="35.274999999999984" y="902.925"/>
      <point x="-4.45000000000001" y="895.95"/>
      <point x="-27.12500000000001" y="882.9" type="curve"/>
      <point x="-33.775000000000006" y="816.0" type="line"/>
      <point x="-21.10000000000001" y="823.325"/>
      <point x="8.54999999999999" y="832.0"/>
      <point x="30.924999999999983" y="832.0" type="curve" smooth="yes"/>
      <point x="67.19999999999999" y="832.0"/>
      <point x="85.17499999999998" y="818.7"/>
      <point x="82.17499999999998" y="791.7" type="curve"/>
      <point x="77.49999999999999" y="750.325"/>
      <point x="24.099999999999994" y="749.6"/>
      <point x="17.774999999999995" y="697.675" type="curve"/>
      <point x="15.449999999999994" y="679.025"/>
      <point x="19.449999999999996" y="666.325"/>
    </contour>
  </outline>
</glyph>
<glyph name="ringcomb" format="2">
  <unicode hex="030A"/>
  <note>
ring
</note>
  <anchor x="37.0" y="557.0" name="_top"/>
  <anchor x="135.55" y="732.925" name="top"/>
  <outline>
    <contour>
      <point x="49.025" y="612.0" type="curve" smooth="yes"/>
      <point x="108.675" y="612.0"/>
      <point x="162.975" y="631.65"/>
      <point x="193.95" y="672.625" type="curve" smooth="yes"/>
      <point x="209.275" y="692.275"/>
      <point x="216.6" y="716.925"/>
      <point x="216.6" y="746.575" type="curve" smooth="yes"/>
      <point x="216.6" y="826.25"/>
      <point x="163.625" y="873.3"/>
      <point x="79.325" y="873.3" type="curve" smooth="yes"/>
      <point x="23.325" y="873.3"/>
      <point x="-34.975" y="853.275"/>
      <point x="-68.95" y="812.3" type="curve" smooth="yes"/>
      <point x="-86.275" y="791.65"/>
      <point x="-94.6" y="766.675"/>
      <point x="-94.6" y="736.7" type="curve" smooth="yes"/>
      <point x="-94.6" y="657.675"/>
      <point x="-41.95" y="612.0"/>
    </contour>
    <contour>
      <point x="52.325" y="666.925" type="curve" smooth="yes"/>
      <point x="12.625" y="666.925"/>
      <point x="-22.375" y="697.275"/>
      <point x="-22.375" y="736.3" type="curve" smooth="yes"/>
      <point x="-22.375" y="794.675"/>
      <point x="19.975" y="818.025"/>
      <point x="71.0" y="818.025" type="curve" smooth="yes"/>
      <point x="113.375" y="818.025"/>
      <point x="142.7" y="790.025"/>
      <point x="142.7" y="751.0" type="curve" smooth="yes"/>
      <point x="142.7" y="688.875"/>
      <point x="109.65" y="666.925"/>
    </contour>
  </outline>
</glyph>
<glyph name="hungarumlautcomb" format="2">
  <unicode hex="030B"/>
  <note>
hungarumlaut
</note>
  <anchor x="43.75" y="557.0" name="_top"/>
  <anchor x="73.75" y="788.0" name="top"/>
  <outline>
    <contour>
      <point x="143.3" y="614.825" type="line"/>
      <point x="186.65" y="635.175"/>
      <point x="274.475" y="743.475"/>
      <point x="293.525" y="789.425" type="curve"/>
      <point x="217.325" y="849.375" type="line"/>
      <point x="94.7" y="643.1" type="line"/>
    </contour>
    <contour>
      <point x="-68.6" y="614.825" type="line"/>
      <point x="-24.275" y="639.85"/>
      <point x="55.625" y="741.15"/>
      <point x="75.65" y="790.075" type="curve"/>
      <point x="-0.22499999999999964" y="849.375" type="line"/>
      <point x="-117.825" y="643.1" type="line"/>
    </contour>
  </outline>
</glyph>
<glyph name="caroncomb" format="2">
  <unicode hex="030C"/>
  <note>
caron
</note>
  <anchor x="37.0" y="557.0" name="_top"/>
  <anchor x="67.0" y="788.0" name="top"/>
  <outline>
    <contour>
      <point x="6.699999999999999" y="638.125" type="line"/>
      <point x="93.025" y="638.125" type="line"/>
      <point x="250.575" y="794.325" type="line"/>
      <point x="205.375" y="835.025" type="line"/>
      <point x="56.3" y="720.25" type="line"/>
      <point x="-63.775" y="835.025" type="line"/>
      <point x="-109.7" y="793.325" type="line"/>
    </contour>
  </outline>
</glyph>
<glyph name="dblgravecomb" format="2">
  <unicode hex="030F"/>
  <anchor x="37.0" y="557.0" name="_top"/>
  <anchor x="68.0" y="789.0" name="top"/>
  <outline>
    <contour>
      <point x="-39.0" y="640.0" type="curve"/>
      <point x="-3.0" y="661.0" type="line"/>
      <point x="-125.0" y="863.0" type="line"/>
      <point x="-178.0" y="820.0" type="line"/>
      <point x="-158.0" y="777.0"/>
      <point x="-79.0" y="672.0"/>
    </contour>
    <contour>
      <point x="170.0" y="640.0" type="curve"/>
      <point x="205.0" y="661.0" type="line"/>
      <point x="89.0" y="863.0" type="line"/>
      <point x="34.0" y="820.0" type="line"/>
      <point x="61.0" y="763.0"/>
      <point x="127.0" y="675.0"/>
    </contour>
  </outline>
</glyph>
<glyph name="breveinvertedcomb" format="2">
  <unicode hex="0311"/>
  <note>
breve
</note>
  <anchor x="37.0" y="557.0" name="_top"/>
  <anchor x="68.0" y="789.0" name="top"/>
  <outline>
    <contour>
      <point x="53.65" y="821.275" type="curve" smooth="yes"/>
      <point x="-42.275" y="821.275"/>
      <point x="-113.625" y="740.925"/>
      <point x="-113.625" y="648.0" type="curve"/>
      <point x="-45.4" y="648.0" type="line"/>
      <point x="-30.05" y="703.1"/>
      <point x="-10.35" y="743.75"/>
      <point x="49.675" y="743.75" type="curve" smooth="yes"/>
      <point x="102.275" y="743.75"/>
      <point x="130.4" y="716.1"/>
      <point x="130.4" y="648.0" type="curve"/>
      <point x="200.625" y="648.0" type="line"/>
      <point x="207.45" y="748.725"/>
      <point x="153.525" y="821.275"/>
    </contour>
  </outline>
</glyph>
<glyph name="commaturnedabovecomb" format="2">
  <unicode hex="0312"/>
  <note>
uni0326
</note>
  <anchor x="37.0" y="557.0" name="_top"/>
  <anchor x="67.0" y="788.0" name="top"/>
  <outline>
    <contour>
      <point x="66.95" y="895.975" type="line"/>
      <point x="6.150000000000011" y="858.4250000000001"/>
      <point x="-12.600000000000003" y="807.4250000000001"/>
      <point x="-12.600000000000003" y="754.025" type="curve" smooth="yes"/>
      <point x="-12.600000000000003" y="708.1"/>
      <point x="10.925000000000004" y="670.725"/>
      <point x="48.275000000000006" y="644.625" type="curve"/>
      <point x="112.95" y="686.95" type="line"/>
      <point x="116.95" y="720.625" type="line"/>
      <point x="96.275" y="724.3"/>
      <point x="79.60000000000001" y="754.025"/>
      <point x="79.60000000000001" y="785.675" type="curve" smooth="yes"/>
      <point x="79.60000000000001" y="810.275"/>
      <point x="84.92500000000001" y="832.95"/>
      <point x="109.60000000000001" y="851.65" type="curve"/>
      <point x="111.60000000000001" y="865.325" type="line"/>
    </contour>
  </outline>
</glyph>
<glyph name="horncomb" format="2">
  <unicode hex="031B"/>
  <outline>
    <contour>
      <point x="-20.0" y="482.475" type="line"/>
      <point x="123.65" y="482.475"/>
      <point x="239.525" y="536.975"/>
      <point x="239.525" y="660.425" type="curve" smooth="yes"/>
      <point x="239.525" y="667.425"/>
      <point x="238.525" y="674.425"/>
      <point x="237.525" y="682.425" type="curve"/>
      <point x="152.325" y="682.425" type="line"/>
      <point x="153.325" y="678.425"/>
      <point x="151.325" y="672.425"/>
      <point x="151.325" y="665.425" type="curve" smooth="yes"/>
      <point x="151.325" y="601.025"/>
      <point x="109.55" y="555.325"/>
      <point x="-10.0" y="555.325" type="curve"/>
    </contour>
  </outline>
</glyph>
<glyph name="dotbelowcomb" format="2">
  <unicode hex="0323"/>
  <anchor x="0.0" y="0.0" name="_bottom"/>
  <anchor x="-26.0" y="-199.0" name="bottom"/>
  <outline>
    <contour>
      <point x="-32.975" y="-243.85000000000002" type="curve" smooth="yes"/>
      <point x="10.575000000000005" y="-243.85000000000002"/>
      <point x="47.22500000000001" y="-207.525"/>
      <point x="47.22500000000001" y="-165.625" type="curve" smooth="yes"/>
      <point x="47.22500000000001" y="-132.675"/>
      <point x="19.950000000000003" y="-107.725"/>
      <point x="-17.0" y="-107.725" type="curve" smooth="yes"/>
      <point x="-57.575" y="-107.725"/>
      <point x="-93.875" y="-144.025"/>
      <point x="-93.875" y="-184.275" type="curve" smooth="yes"/>
      <point x="-93.875" y="-217.225"/>
      <point x="-64.575" y="-243.85000000000002"/>
    </contour>
  </outline>
</glyph>
<glyph name="dieresisbelowcomb" format="2">
  <unicode hex="0324"/>
  <anchor x="0.0" y="0.0" name="_bottom"/>
  <anchor x="-26.0" y="-199.0" name="bottom"/>
  <outline>
    <contour>
      <point x="-136.275" y="-243.525" type="curve" smooth="yes"/>
      <point x="-93.7" y="-243.525"/>
      <point x="-58.675" y="-206.875"/>
      <point x="-58.675" y="-165.3" type="curve" smooth="yes"/>
      <point x="-58.675" y="-132.675"/>
      <point x="-84.975" y="-107.725"/>
      <point x="-121.275" y="-107.725" type="curve" smooth="yes"/>
      <point x="-160.875" y="-107.725"/>
      <point x="-195.2" y="-144.025"/>
      <point x="-195.2" y="-183.95" type="curve" smooth="yes"/>
      <point x="-195.2" y="-215.925"/>
      <point x="-166.9" y="-243.525"/>
    </contour>
    <contour>
      <point x="72.3" y="-243.525" type="curve" smooth="yes"/>
      <point x="114.525" y="-243.525"/>
      <point x="149.55" y="-206.875"/>
      <point x="149.55" y="-165.3" type="curve" smooth="yes"/>
      <point x="149.55" y="-132.675"/>
      <point x="123.925" y="-107.725"/>
      <point x="86.95" y="-107.725" type="curve" smooth="yes"/>
      <point x="47.35" y="-107.725"/>
      <point x="13.024999999999999" y="-144.025"/>
      <point x="13.024999999999999" y="-183.95" type="curve" smooth="yes"/>
      <point x="13.024999999999999" y="-215.925"/>
      <point x="40.325" y="-243.525"/>
    </contour>
  </outline>
</glyph>
